<svg width="56" height="57" viewBox="0 0 56 57" fill="none" xmlns="http://www.w3.org/2000/svg">
<mask id="mask0_811_1164" style="mask-type:alpha" maskUnits="userSpaceOnUse" x="0" y="0" width="56" height="57">
<rect y="0.713257" width="56" height="56" fill="#D9D9D9"/>
</mask>
<g mask="url(#mask0_811_1164)">
<path opacity="0.7" d="M13.7961 19.8456L10.806 22.0962L13.3271 23.6969C12.1458 24.3756 10.8636 24.9343 9.78792 25.7618C4.84491 29.5587 2.97207 34.5914 4.25905 40.6741C5.44037 46.2542 10.1161 50.5537 15.8242 51.5269C16.6901 51.6717 17.5666 51.744 18.4446 51.743C28.7116 51.7569 38.9786 51.7601 49.2456 51.7526H49.8858V50.6113L54.784 53.6655L49.9227 56.7132V55.5927H49.1719C38.9273 55.5927 28.6828 55.6312 18.4302 55.5783C11.7648 55.5431 6.50966 52.6971 2.88404 47.1106C-3.73652 36.8996 1.58266 23.087 13.3191 19.836C13.4632 19.7976 13.612 19.7815 13.7577 19.7543L13.7961 19.8456Z" fill="#E1890F"/>
<path opacity="0.7" d="M47.9714 17.2476H42.2184C42.2184 17.9839 42.204 18.7138 42.2184 19.4422C42.2344 20.0568 42.0583 20.5627 41.4644 20.8108C40.8706 21.0589 40.3327 20.8844 39.8877 20.433C39.3835 19.9224 38.8841 19.407 38.4311 18.9459L34.2964 23.0886C34.7687 23.5272 35.3577 24.0282 35.8972 24.5821C36.4974 25.2063 36.4558 26.0659 35.8555 26.5381C35.5818 26.7558 35.3753 26.8071 35.1352 26.4405C32.8084 22.813 29.3633 20.0422 25.3212 18.5474C24.9291 18.3985 24.9499 18.16 24.9547 17.8559C25.0203 12.1717 29.3999 6.9918 35.0104 5.96734C42.0391 4.68677 48.474 9.15277 49.7209 16.1943C49.9626 17.634 49.9393 19.1057 49.6521 20.5371C49.5801 20.918 49.3912 20.9837 49.0694 20.9292C48.4292 20.8204 47.9858 20.2889 47.973 19.559C47.9618 18.8083 47.9714 18.0543 47.9714 17.2476ZM32.5933 13.3707V11.5234H30.7637V13.3707H32.5933ZM34.5718 13.3707H36.4286V11.5234H34.5718V13.3707ZM38.4135 13.3707H40.2671V11.525H38.4135V13.3707ZM44.1088 13.3707V11.517H42.2648V13.3707H44.1088Z" fill="#E1890F"/>
<path opacity="0.5" d="M9.74463 38.3322H11.4974V36.4114H9.76223C9.81666 33.1283 12.9909 29.1825 17.268 28.8464V30.6216H19.1888V28.8608C22.6368 28.9824 26.4561 32.2223 26.7634 36.3713H25.0026V38.3082H26.7618C26.7298 41.9082 22.8145 45.8316 19.2257 45.8684V44.1076H17.3048V45.8236C13.9817 45.8284 9.95432 42.4765 9.74463 38.3322ZM18.3021 36.064L15.123 32.8626L13.8745 34.1159L18.2156 38.5195L20.6791 36.0496L19.4065 34.7066L18.3021 36.064Z" fill="#E1890F"/>
<path d="M32.96 26.6198C32.8127 26.8391 32.6399 26.9735 32.6399 27.1096C32.6223 28.904 32.6287 30.6984 32.6287 32.5712C33.3746 32.5712 34.0869 32.5857 34.7976 32.5712C35.4379 32.5552 35.9437 32.7425 36.2159 33.3524C36.504 34.0007 36.2415 34.5113 35.7725 34.9531C35.2682 35.4333 34.7672 35.9135 34.2006 36.4674C34.8585 37.1077 35.4811 37.6935 36.067 38.3162C36.2463 38.5131 36.3451 38.7702 36.3439 39.0365C35.9918 43.0687 34.4231 46.5743 31.7163 49.5804C31.6026 49.7107 31.4445 49.794 31.2729 49.8142C29.384 49.8302 27.4952 49.8254 25.5775 49.8254C31.5946 45.5258 34.0613 39.9121 31.8203 32.7425C30.0947 27.2169 24.9516 23.3799 19.2419 23.0006V25.0991L14.1948 21.9505L19.1811 18.2128L19.2275 19.1413C24.9228 19.6007 29.5249 22.0978 32.96 26.6198Z" fill="#E1890F"/>
<path d="M21.1226 25.2512C23.0771 25.7074 24.793 26.5413 26.2449 27.8363C30.1298 31.3147 31.6297 35.6414 30.2195 40.6901C28.8092 45.7387 25.3213 48.7497 20.1894 49.6701C13.2935 50.8978 6.69375 45.8444 5.87899 38.846C5.51591 35.863 6.24512 32.8494 7.9318 30.3623C9.61848 27.8753 12.1486 26.083 15.0543 25.3168C15.4865 25.2016 15.8402 25.2128 16.2244 25.4769C16.8487 25.9187 17.5178 26.2996 18.3053 26.7975C16.6454 26.8631 15.2176 27.1592 13.8602 27.7739C11.7557 28.7387 10.0259 30.3673 8.93607 32.4099C7.84627 34.4524 7.45668 36.7961 7.82706 39.0813C8.53138 43.605 12.2979 47.245 16.8711 47.8133C22.2975 48.492 27.327 44.9992 28.5243 39.7184C29.1066 37.1701 28.7193 34.4962 27.4381 32.2177C26.1568 29.9392 24.0732 28.2193 21.5932 27.3929C21.2379 27.2729 21.073 27.1208 21.113 26.7254C21.1594 26.258 21.1226 25.7778 21.1226 25.2512Z" fill="#E1890F"/>
<path d="M34.5735 30.6504V28.7599C36.115 28.8031 37.3747 28.2797 37.9862 26.7814C38.5977 25.2832 38.1191 24.0122 36.9922 22.9397L38.3288 21.5983C39.4109 22.7332 40.693 23.199 42.1817 22.5908C43.6704 21.9825 44.2002 20.7548 44.1458 19.1909H46.0362C46.0154 20.8076 46.6029 22.0593 48.1732 22.6484C49.649 23.2038 50.8624 22.714 51.834 21.5807L53.2186 22.9141C52.0309 24.049 51.5395 25.3616 52.2678 26.9079C52.9081 28.2765 54.0878 28.7903 55.5941 28.7519V30.6392C54.075 30.5927 52.8184 31.1194 52.2038 32.6176C51.5891 34.1159 52.0725 35.3853 53.1994 36.469L51.8628 37.804C50.7791 36.6835 49.505 36.1952 48.0131 36.8099C46.5212 37.4246 45.985 38.6395 46.0458 40.2114H44.1554C44.181 38.6107 43.5999 37.3446 42.028 36.7571C40.5874 36.2161 39.374 36.7043 38.3272 37.812L37.0466 36.4113C38.1463 35.3533 38.6473 34.0407 37.9142 32.496C37.2771 31.121 36.1006 30.6104 34.5735 30.6504ZM45.0694 22.9894C43.2913 22.9995 41.5897 23.7136 40.3369 24.9754C39.0841 26.2372 38.3822 27.9439 38.3848 29.722C38.3975 31.4996 39.1126 33.2002 40.3741 34.4528C41.6356 35.7053 43.3413 36.4082 45.119 36.4081C46.8968 36.3959 48.5976 35.6809 49.8503 34.4193C51.1029 33.1577 51.8057 31.4518 51.8052 29.6739C51.795 27.8953 51.0805 26.1932 49.818 24.9403C48.5555 23.6875 46.848 22.9859 45.0694 22.9894Z" fill="#E1890F"/>
<path d="M23.0083 17.7999L21.1355 17.4173C21.6573 11.365 24.3994 6.67648 29.7794 3.85762C35.8509 0.673797 41.868 1.17323 47.3344 5.31428C52.2742 9.05355 54.1823 14.2223 53.6124 20.4698C52.9721 19.8536 52.4183 19.3493 51.9012 18.8051C51.802 18.7027 51.8148 18.4722 51.8132 18.2993C51.7796 11.0592 46.7437 5.1558 39.5853 3.96967C32.022 2.71471 24.465 8.16354 23.2789 15.7317C23.17 16.4008 23.1012 17.0731 23.0083 17.7999Z" fill="#E1890F"/>
<path opacity="0.5" d="M45.0613 34.4905C43.7885 34.4791 42.5724 33.9628 41.68 33.0552C40.7877 32.1475 40.2922 30.9227 40.3024 29.65C40.318 28.3774 40.8381 27.1632 41.7484 26.2738C42.6587 25.3845 43.8848 24.8929 45.1574 24.907C46.4184 24.926 47.6215 25.4402 48.5065 26.3388C49.3916 27.2373 49.8876 28.448 49.8875 29.7092C49.8848 30.3401 49.7577 30.9643 49.5137 31.546C49.2696 32.1278 48.9133 32.6558 48.4651 33.0999C48.0169 33.5439 47.4856 33.8953 46.9016 34.1339C46.3176 34.3725 45.6922 34.4937 45.0613 34.4905ZM45.0821 32.5697C45.8381 32.5698 46.5637 32.2728 47.1027 31.7428C47.6417 31.2128 47.9508 30.4922 47.9634 29.7364C47.9679 29.3567 47.8972 28.9798 47.7555 28.6275C47.6138 28.2752 47.4038 27.9544 47.1377 27.6835C46.8716 27.4126 46.5545 27.197 46.2048 27.0491C45.855 26.9011 45.4795 26.8238 45.0997 26.8215C44.3441 26.8214 43.6186 27.1181 43.0797 27.6478C42.5408 28.1774 42.2315 28.8976 42.2185 29.6532C42.2134 30.0333 42.2836 30.4106 42.425 30.7635C42.5664 31.1164 42.7763 31.4378 43.0425 31.7092C43.3087 31.9806 43.6259 32.1966 43.976 32.3448C44.326 32.4931 44.702 32.5706 45.0821 32.5729V32.5697Z" fill="#E1890F"/>
<path d="M45.1029 28.744C45.3551 28.7477 45.5957 28.8506 45.7727 29.0303C45.9497 29.21 46.0489 29.4521 46.0489 29.7044C46.0447 29.9563 45.9417 30.1965 45.762 30.3732C45.5823 30.5498 45.3404 30.6488 45.0885 30.6488C44.8365 30.6446 44.5963 30.5416 44.4197 30.3619C44.243 30.1822 44.144 29.9403 44.144 29.6884C44.1482 29.4367 44.2511 29.1968 44.4304 29.0201C44.6097 28.8435 44.8512 28.7443 45.1029 28.744Z" fill="#E1890F"/>
</g>
</svg>
