<svg width="81" height="81" viewBox="0 0 81 81" fill="none" xmlns="http://www.w3.org/2000/svg">
<path opacity="0.7" d="M40.4447 0.288541C45.2297 0.288541 50.0131 0.288541 54.7951 0.288541C57.5184 0.288541 59.1667 1.92403 59.1667 4.63432C59.1667 11.0132 59.1667 17.3921 59.1667 23.7709C59.1667 24.5053 59.0953 25.1728 58.308 25.4932C57.5207 25.8137 56.9898 25.3575 56.4969 24.8257L56.4367 24.7679C55.3683 23.7176 54.465 22.2734 53.1803 21.7327C51.8956 21.192 50.2808 21.5992 48.8065 21.597H26.2794C23.3352 21.597 21.7561 20.0126 21.7561 17.0664C21.7561 12.9024 21.7561 8.73979 21.7561 4.57869C21.7561 1.93071 23.4222 0.275174 26.0831 0.272949C30.8681 0.280367 35.6553 0.285574 40.4447 0.288541ZM43.0498 11.6615C41.6692 10.2752 40.3042 8.8911 38.9213 7.52483C38.1295 6.74379 37.4671 6.73934 36.6909 7.52483C34.5765 9.61651 32.4718 11.7164 30.3767 13.8244C29.6696 14.532 29.6094 15.293 30.1714 15.876C30.7335 16.459 31.5208 16.4234 32.2301 15.7425C32.8702 15.1261 33.4903 14.4897 34.1192 13.86C35.3326 12.6495 36.5437 11.4367 37.8083 10.1706C39.1711 11.5346 40.4603 12.8297 41.754 14.1225C42.8892 15.2574 43.4045 15.2596 44.5308 14.1359C45.7999 12.8698 47.0645 11.5992 48.492 10.1706C48.492 10.9672 48.492 11.5369 48.492 12.1065C48.5121 13.0255 49.0251 13.6085 49.8057 13.6196C50.5863 13.6308 51.1439 13.0478 51.1551 12.1443C51.1729 10.4799 51.1729 8.81472 51.1551 7.14879C51.1551 6.1252 50.6421 5.6401 49.5938 5.63342C47.9582 5.62007 46.3173 5.62007 44.6713 5.63342C43.7457 5.63342 43.1658 6.15857 43.1524 6.93961C43.139 7.72065 43.7367 8.27474 44.7137 8.29254C45.2802 8.29254 45.8467 8.29254 46.4155 8.29254L43.0498 11.6615Z" fill="#E1890F"/>
<path d="M25.5925 55.1974C28.4402 53.4006 31.5966 52.1452 34.9022 51.4946C41.6559 50.1788 48.0572 51.172 54.106 54.4742C55.0963 55.0127 55.393 55.7403 54.9647 56.4768C54.5365 57.2134 53.7849 57.3202 52.7812 56.7795C39.4701 49.601 23.3198 55.0527 17.2062 68.7955C15.8639 71.8235 15.1427 75.089 15.0851 78.3994C15.0516 79.8725 14.6658 80.2552 13.1781 80.2552H2.1599C0.806045 80.2552 0.375533 79.8102 0.386685 78.4461C0.495975 62.1199 11.0012 47.1555 26.3263 41.508C27.2965 41.1497 28.037 41.399 28.3337 42.1755C28.6303 42.9521 28.2311 43.6085 27.2363 43.9935C24.485 45.0421 21.8653 46.4064 19.4299 48.0589C19.2069 48.2147 18.9838 48.3794 18.8188 48.504L25.5925 55.1974Z" fill="#E1890F"/>
<path d="M40.4446 24.2805C41.8529 24.2811 43.2472 24.5592 44.5475 25.0989C45.8478 25.6386 47.0284 26.4293 48.0215 27.4254C49.0146 28.4216 49.8007 29.6037 50.3346 30.9038C50.8686 32.2039 51.1398 33.5965 51.1327 35.0015C51.1156 37.824 49.9778 40.5245 47.9685 42.5116C45.9593 44.4986 43.2425 45.61 40.4134 45.6023C39.0056 45.595 37.613 45.3108 36.3154 44.7659C35.0179 44.221 33.8407 43.4261 32.8515 42.4268C31.8622 41.4274 31.0803 40.2433 30.5503 38.942C30.0204 37.6408 29.7529 36.248 29.7632 34.8435C29.7945 29.0491 34.6299 24.2694 40.4446 24.2805ZM40.3822 38.9423C41.2453 38.9423 42.1063 38.9557 42.9695 38.9423C43.8772 38.9245 44.4616 38.3793 44.4504 37.6072C44.4393 36.8351 43.8772 36.3077 43.0207 36.2988C41.2944 36.2788 39.5703 36.2765 37.8462 36.2988C36.9964 36.2988 36.4388 36.8796 36.45 37.6339C36.4611 38.3882 37.0209 38.9223 37.8774 38.9445C38.7339 38.9668 39.5525 38.9401 40.3889 38.9423H40.3822ZM37.0499 33.5863V33.6063C37.2998 33.6063 37.5518 33.6241 37.8016 33.6063C38.5844 33.5418 39.122 32.981 39.1064 32.2578C39.1025 31.9201 38.9682 31.597 38.7313 31.3557C38.4944 31.1144 38.1734 30.9737 37.8351 30.9628C37.3088 30.913 36.7787 30.919 36.2537 30.9806C36.0913 30.9935 35.9331 31.0383 35.7882 31.1125C35.6432 31.1868 35.5145 31.2889 35.4094 31.413C35.3042 31.5371 35.2248 31.6808 35.1756 31.8358C35.1264 31.9907 35.1085 32.1538 35.1228 32.3157C35.1228 33.0144 35.5444 33.4483 36.218 33.593C36.4971 33.6191 36.778 33.6168 37.0566 33.5863H37.0499ZM43.7791 30.945C42.423 30.945 41.7851 31.3767 41.7918 32.2801C41.7985 33.1835 42.4319 33.6152 43.7992 33.6152C45.1664 33.6152 45.7931 33.1702 45.7864 32.2801C45.7797 31.39 45.1597 30.945 43.7902 30.945H43.7791Z" fill="#E1890F"/>
<path d="M80.5274 32.3044C80.5151 35.1264 79.3838 37.8288 77.3808 39.8213C75.3777 41.8138 72.6657 42.9345 69.8371 42.9386C67.0082 42.931 64.2972 41.8066 62.2966 39.8111C60.296 37.8156 59.1684 35.1112 59.1602 32.2889C59.1566 29.4646 60.2758 26.7543 62.2722 24.752C64.2687 22.7498 66.9795 21.6191 69.8104 21.6079C71.2191 21.6044 72.6147 21.8787 73.9168 22.4151C75.219 22.9514 76.402 23.7393 77.3979 24.7333C78.3939 25.7273 79.1831 26.9079 79.7201 28.2072C80.2572 29.5066 80.5316 30.899 80.5274 32.3044ZM69.8215 37.6071C70.8201 37.6063 71.783 37.2366 72.5244 36.5693C73.2658 35.9019 73.7331 34.9843 73.8362 33.9934C73.921 33.0499 73.4504 32.3756 72.6497 32.2889C71.8846 32.2065 71.336 32.7094 71.1754 33.6396C71.0326 34.4718 70.5263 34.9747 69.8126 34.9302C69.0386 34.879 68.626 34.4273 68.5056 33.6663C68.3517 32.685 67.7628 32.1732 66.9777 32.2933C66.1926 32.4135 65.751 33.1011 65.8625 34.0512C65.9788 35.0233 66.4455 35.9201 67.1756 36.5743C67.9056 37.2286 68.8492 37.5956 69.8304 37.6071H69.8215ZM66.4625 30.9315C66.6588 30.9315 66.8528 30.9315 67.0469 30.9315C67.9078 30.8937 68.4743 30.3819 68.4922 29.632C68.5122 28.8487 67.9279 28.2969 67.029 28.2702C66.6677 28.2702 66.3041 28.2568 65.9428 28.2702C65.0796 28.3036 64.5176 28.8153 64.4997 29.5675C64.4819 30.3196 65.0596 30.9026 65.9629 30.9315C66.1391 30.9493 66.3175 30.9449 66.4714 30.9426L66.4625 30.9315ZM73.1091 30.9315C73.3862 30.9471 73.664 30.9471 73.9411 30.9315C74.2783 30.9077 74.5936 30.7562 74.8225 30.5079C75.0514 30.2597 75.1765 29.9336 75.1722 29.5964C75.1696 29.2588 75.0368 28.9352 74.8013 28.6928C74.5658 28.4504 74.2457 28.3078 73.9076 28.2947C73.4081 28.2546 72.9061 28.2546 72.4065 28.2947C72.0681 28.3147 71.7508 28.4652 71.5215 28.7143C71.2922 28.9634 71.1689 29.2917 71.1776 29.6298C71.1844 29.9665 71.3185 30.2882 71.553 30.5304C71.7875 30.7726 72.1052 30.9175 72.4422 30.9359C72.6673 30.9485 72.8929 30.9485 73.118 30.9359L73.1091 30.9315Z" fill="#E1890F"/>
<path opacity="0.5" d="M0.382118 33.5975C0.390947 30.7755 1.51886 28.0717 3.51939 26.0767C5.51992 24.0817 8.23052 22.9576 11.0591 22.95C12.4671 22.9496 13.8613 23.2268 15.1617 23.7656C16.462 24.3044 17.6428 25.0941 18.6364 26.0895C19.6299 27.0848 20.4166 28.2662 20.9512 29.5657C21.4858 30.8652 21.7578 32.2573 21.7517 33.662C21.7423 35.0665 21.4554 36.4554 20.9074 37.7492C20.3593 39.043 19.5608 40.2162 18.5577 41.2017C17.5546 42.1872 16.3664 42.9656 15.0614 43.4924C13.7563 44.0192 12.3598 44.284 10.952 44.2717C5.1463 44.2361 0.366505 39.4097 0.382118 33.5975ZM11.039 33.6131C10.0424 33.6259 9.08576 34.0062 8.35353 34.6809C7.6213 35.3555 7.16527 36.2767 7.07334 37.2668C7.00642 38.1569 7.45477 38.8244 8.2198 38.9268C8.98483 39.0292 9.57812 38.5196 9.73202 37.6184C9.88146 36.755 10.3409 36.2833 11.0546 36.2833C11.7684 36.2833 12.2568 36.7461 12.404 37.5961C12.5602 38.5129 13.1289 39.0203 13.8917 38.9313C14.6545 38.8422 15.1496 38.1502 15.0604 37.209C14.954 36.2197 14.4842 35.3049 13.7416 34.6409C12.999 33.9768 12.0362 33.6107 11.039 33.6131ZM7.6934 32.278C7.88744 32.278 8.08374 32.278 8.27779 32.278C9.13873 32.2401 9.70301 31.7283 9.72309 30.9784C9.74316 30.2285 9.15878 29.6433 8.2577 29.6166C7.8986 29.6166 7.53507 29.6033 7.17375 29.6166C6.31058 29.65 5.74853 30.1618 5.73068 30.9139C5.71284 31.666 6.29047 32.249 7.19379 32.278C7.36107 32.2824 7.52835 32.278 7.69563 32.2757L7.6934 32.278ZM14.3534 32.278C14.5475 32.278 14.7415 32.278 14.9355 32.278C15.8277 32.2424 16.421 31.6949 16.4031 30.9161C16.3853 30.1373 15.8188 29.6478 14.9578 29.6188C14.512 29.593 14.0649 29.5975 13.6196 29.6322C13.2832 29.6534 12.9683 29.8048 12.7421 30.0542C12.5159 30.3036 12.3962 30.6312 12.4085 30.9673C12.4531 31.7039 12.8769 32.1355 13.5973 32.2535C13.8471 32.278 14.0984 32.2825 14.3489 32.2668L14.3534 32.278Z" fill="#E1890F"/>
<path d="M40.7817 80.273C37.4941 80.2419 35.1299 77.8854 35.1143 74.9682C35.1155 73.5784 35.6554 72.2429 36.6211 71.2413C37.5869 70.2396 38.9035 69.6495 40.2955 69.5943C40.7811 69.5645 41.2509 69.4113 41.6605 69.1493C52.3828 62.088 63.0947 55.0127 73.7962 47.9232C74.8311 47.2379 75.9061 46.7706 77.1618 47.0331C78.8681 47.3847 80.0034 48.3972 80.3892 50.1195C80.7751 51.8418 80.2153 53.2837 78.7901 54.2784C76.1716 56.1075 73.4951 57.8587 70.8409 59.6366C62.6226 65.1447 54.4058 70.6535 46.1904 76.1631C45.8181 76.4331 45.5167 76.7889 45.3117 77.2C44.279 79.1604 42.6552 80.164 40.7817 80.273ZM40.8687 72.4648C39.2427 72.2022 38.0137 73.1457 37.8086 74.5854C37.7339 75.2397 37.8995 75.8989 38.2748 76.4406C38.6501 76.9824 39.2095 77.37 39.8494 77.5316C41.1876 77.8787 42.4768 77.0687 43.0478 75.6535C43.2664 75.128 43.6299 74.6751 44.0961 74.3473C53.7969 67.8201 63.5088 61.3077 73.2319 54.8102C74.5478 53.9201 75.8705 53.0612 77.1708 52.1555C77.8756 51.666 78.0317 50.9094 77.6169 50.2686C77.1931 49.601 76.4213 49.443 75.6474 49.8925C75.4801 49.9882 75.3195 50.1017 75.159 50.2085C64.2433 57.4211 53.3263 64.6292 42.4077 71.8329C41.9616 72.1222 41.3883 72.2468 40.8687 72.4537V72.4648Z" fill="#E1890F"/>
<path d="M68.5209 77.5494H77.9979C77.6344 75.184 77.3556 72.8765 76.9095 70.6113C76.3541 67.8009 75.3281 65.1329 74.0858 62.5472C73.9029 62.1711 73.7222 61.6282 73.8627 61.3011C74.0816 60.8501 74.4644 60.4993 74.9333 60.3198C75.5512 60.1151 76.0842 60.5156 76.3273 61.1053C77.166 63.1257 78.0693 65.1284 78.7563 67.2001C79.9349 70.8511 80.5324 74.6639 80.5272 78.4996C80.5272 79.8058 80.0811 80.2575 78.7875 80.2597C75.0315 80.2597 71.2762 80.2597 67.5217 80.2597C66.3173 80.2597 65.8533 79.8147 65.8355 78.6086C65.788 75.3832 65.1328 72.1954 63.904 69.2116C63.7434 68.82 63.5672 68.2793 63.7144 67.95C63.9371 67.4983 64.3276 67.151 64.8028 66.982C65.4719 66.7929 66.0139 67.2045 66.2102 67.8721C66.8793 70.1217 67.5663 72.3714 68.1529 74.6456C68.3938 75.569 68.4027 76.557 68.5209 77.5494Z" fill="#E1890F"/>
<path opacity="0.5" d="M29.7698 74.9326C29.7698 69.1783 34.5228 64.2918 40.1546 64.2517C41.2966 64.2517 42.0259 65.0105 41.7315 65.934C41.4951 66.6794 40.9174 66.8952 40.1702 66.9286C37.6677 67.0421 35.6024 68.0746 34.0946 70.0706C32.3103 72.4426 31.9757 75.0639 32.9928 77.8587C33.0597 78.0412 33.1601 78.2103 33.2159 78.395C33.4612 79.156 33.1779 79.8347 32.5021 80.1284C32.3449 80.2074 32.1726 80.2517 31.9967 80.2583C31.8208 80.2649 31.6456 80.2337 31.4829 80.1668C31.3202 80.0999 31.1739 79.9988 31.0538 79.8705C30.9337 79.7422 30.8427 79.5896 30.7869 79.4231C30.2918 77.97 29.9327 76.4725 29.5178 74.9949L29.7698 74.9326Z" fill="#E1890F"/>
<path d="M53.8491 41.281C54.032 41.3344 54.2774 41.3834 54.5183 41.4724C58.3434 42.9005 61.9251 44.9082 65.1372 47.4248C65.9201 48.0389 66.0606 48.7866 65.5476 49.4274C65.0346 50.0683 64.2763 50.1128 63.4889 49.5031C60.4887 47.1653 57.1495 45.2963 53.586 43.9601C52.8499 43.6842 52.3904 43.2169 52.5198 42.4025C52.6202 41.7305 53.1064 41.3834 53.8491 41.281Z" fill="#E1890F"/>
<path opacity="0.5" d="M50.9273 77.4849C50.5303 78.375 50.2872 79.1182 49.888 79.7635C49.5735 80.2686 48.9958 80.3954 48.4114 80.1507C47.8271 79.9059 47.4702 79.4008 47.6174 78.7688C47.7731 78.0996 48.0168 77.4539 48.3423 76.8485C48.4016 76.7209 48.4861 76.6065 48.5906 76.5121C48.6952 76.4177 48.8176 76.3452 48.9507 76.299C49.0839 76.2527 49.225 76.2336 49.3657 76.2427C49.5064 76.2519 49.6438 76.2891 49.7698 76.3523C50.2315 76.5904 50.5459 77.0888 50.9273 77.4849Z" fill="#E1890F"/>
</svg>
