<svg width="267" height="228" viewBox="0 0 267 228" fill="none" xmlns="http://www.w3.org/2000/svg">
<g opacity="0.3" clip-path="url(#clip0_804_5367)">
<path d="M75.3434 117.678L81.3151 125.651L96.3276 114.45C96.8447 115.284 97.3368 115.885 97.6871 116.585C102.574 126.332 107.448 136.09 112.308 145.86C112.834 146.744 113.164 147.731 113.275 148.754C113.333 166.227 113.317 183.691 113.317 201.373H103.308C103.229 199.845 103.229 198.313 103.308 196.785C103.742 192.832 101.874 190.714 98.3043 189.279C82.3417 182.879 68.6805 171.813 59.1049 157.528C44.1757 135.401 39.8471 111.222 45.9355 85.2173C46.8196 81.4057 49.7054 80.3715 52.9414 82.7152C58.3959 86.7102 63.7838 90.7886 69.1716 94.8753C71.0982 96.3432 73.0332 97.3774 75.4602 96.1264C77.8872 94.8753 78.3376 92.7902 78.2792 90.3465C78.2125 87.5692 78.2792 84.7836 78.2792 81.7143H116.578C121.632 81.7143 123.25 80.0463 123.25 74.9503C123.25 56.952 123.25 38.9564 123.25 20.9636V17.2939C150.773 14.7918 174.46 22.7651 194.56 41.756H191.599C177.665 41.756 163.723 41.756 149.772 41.756C144.885 41.756 143.242 43.424 143.242 48.3198C143.242 67.3523 143.192 86.3932 143.292 105.426C143.292 107.769 142.716 108.762 140.389 109.596C135.899 111.204 130.995 111.233 126.486 109.679C117.904 106.877 109.172 104.533 100.431 102.256C98.6675 101.804 96.7975 102.049 95.21 102.94C88.5962 107.594 82.1908 112.565 75.3434 117.678Z" fill="#E1890F"/>
<path opacity="0.5" d="M68.2123 81.6059C64.3257 78.7202 61.0313 76.0179 57.47 73.716C55.7765 72.5906 53.8123 71.9398 51.7819 71.8311C40.2389 71.6559 28.6876 71.7477 17.1446 71.7477H13.5667V1.98108H113.033V71.7477H75.8353C69.6552 71.7477 68.3958 72.9987 68.3291 79.2122C68.3124 79.8211 68.2623 80.4299 68.2123 81.6059ZM23.4916 41.5725H103.141V31.9811H23.4916V41.5725ZM23.4916 61.5892H88.0455V51.9228H23.4916V61.5892ZM103.141 12.0645H53.5834V21.6892H103.15L103.141 12.0645ZM33.4916 11.9728V21.6642H43.133V11.9227L33.4916 11.9728Z" fill="#E1890F"/>
<path opacity="0.7" d="M153.467 51.8972H253V121.697H249.806C236.586 121.697 223.375 121.597 210.164 121.797C207.84 121.952 205.595 122.708 203.651 123.991C200.181 126.168 196.978 128.836 193.217 131.664C193.217 129.996 193.217 129.02 193.217 128.019C193.167 123.39 191.465 121.705 186.745 121.697H153.467V51.8972ZM163.3 91.5386H242.95V81.9723H163.309L163.3 91.5386ZM228.029 101.889H163.475V111.48H228.054L228.029 101.889ZM242.908 71.6887V61.9639H193.5V71.6887H242.908ZM183.083 61.9639H173.484V71.5887H183.092L183.083 61.9639Z" fill="#E1890F"/>
<path d="M183.226 131.69C183.226 134.859 183.284 137.528 183.226 140.247C183.159 142.674 183.593 144.809 185.97 146.085C188.347 147.361 190.323 146.411 192.267 144.926C196.478 141.715 201.082 138.921 204.894 135.301C209.239 131.131 214.127 131.481 219.531 131.89C216.223 143.454 210.568 154.211 202.917 163.491C193.811 174.804 181.994 183.632 168.563 189.155C164.593 190.781 162.725 193.125 163.234 197.403C163.31 198.731 163.31 200.062 163.234 201.39H153.226V198.195C153.226 182.607 153.159 167.011 153.301 151.423C153.406 149.08 153.958 146.778 154.927 144.642C156.595 140.831 158.522 137.136 160.482 133.5C160.7 133.076 161.007 132.705 161.381 132.41C161.755 132.115 162.188 131.904 162.65 131.79C169.406 131.64 176.145 131.69 183.226 131.69Z" fill="#E1890F"/>
<path d="M107.854 114.642C114.793 116.61 121.032 118.111 127.087 120.18C131.177 121.745 135.707 121.709 139.773 120.08C140.828 119.729 141.907 119.45 143 119.246C144.218 124.141 140.431 131.473 150.056 131.848C148.23 135.518 146.336 138.937 144.802 142.515C143.915 144.475 143.414 146.588 143.326 148.737C143.209 166.202 143.259 183.666 143.259 201.381H123.242V198.162C123.242 181.631 123.292 165.101 123.184 148.57C123.146 146.516 122.669 144.494 121.783 142.64C117.387 133.524 112.767 124.433 107.854 114.642Z" fill="#E1890F"/>
<path opacity="0.6" d="M173.1 211.831V221.431H93.4172V211.831H173.1Z" fill="#E1890F"/>
</g>
<defs>
<clipPath id="clip0_804_5367">
<rect width="267" height="227" fill="white" transform="translate(0 0.272827)"/>
</clipPath>
</defs>
</svg>
