<svg width="80" height="80" viewBox="0 0 80 80" fill="none" xmlns="http://www.w3.org/2000/svg">
<path d="M39.9856 40.0145H4.5973C4.59289 36.285 5.76936 32.6499 7.95806 29.6302C10.1468 26.6105 13.2353 24.3613 16.781 23.205C14.9531 22.0169 13.5582 20.2697 12.8043 18.2242C12.0504 16.1786 11.9779 13.9441 12.5975 11.8539C13.2171 9.76371 14.4958 7.92978 16.2427 6.62556C17.9897 5.32134 20.1114 4.6167 22.2915 4.6167C24.4716 4.6167 26.5933 5.32134 28.3402 6.62556C30.0872 7.92978 31.3658 9.76371 31.9854 11.8539C32.605 13.9441 32.5325 16.1786 31.7786 18.2242C31.0247 20.2697 29.6298 22.0169 27.8019 23.205C31.3476 24.3613 34.4362 26.6105 36.6249 29.6302C38.8136 32.6499 39.99 36.285 39.9856 40.0145Z" fill="#E08812"/>
<path d="M75.374 7.15454V27.3764H60.2076L50.0966 32.4319V27.3764H45.0411V7.15454H75.374Z" fill="#D3D3D3"/>
<path d="M75.3739 75.403H39.9856C39.9812 71.6736 41.1577 68.0385 43.3464 65.0188C45.5351 61.9991 48.6236 59.7499 52.1693 58.5936C50.3414 57.4054 48.9465 55.6583 48.1926 53.6127C47.4387 51.5671 47.3662 49.3326 47.9858 47.2424C48.6054 45.1523 49.8841 43.3183 51.631 42.0141C53.378 40.7099 55.4997 40.0052 57.6798 40.0052C59.8599 40.0052 61.9816 40.7099 63.7285 42.0141C65.4755 43.3183 66.7541 45.1523 67.3737 47.2424C67.9933 49.3326 67.9208 51.5671 67.1669 53.6127C66.413 55.6583 65.0181 57.4054 63.1902 58.5936C66.7359 59.7499 69.8245 61.9991 72.0132 65.0188C74.2019 68.0385 75.3783 71.6736 75.3739 75.403Z" fill="#E08812"/>
<path d="M34.9301 47.5975V67.8194H29.8747V72.8749L19.7637 67.8194H4.59729V47.5975H34.9301Z" fill="#D3D3D3"/>
<path d="M4.59726 41.2782H39.9856C40.3208 41.2782 40.6422 41.145 40.8793 40.908C41.1163 40.671 41.2494 40.3495 41.2494 40.0143C41.254 36.398 40.2177 32.8567 38.2644 29.8134C36.3111 26.77 33.5232 24.353 30.2336 22.851C31.8528 21.2717 32.9644 19.2456 33.4264 17.0314C33.8884 14.8173 33.6798 12.5157 32.8273 10.4207C31.9748 8.32567 30.5171 6.53237 28.6404 5.26991C26.7637 4.00744 24.5532 3.33313 22.2914 3.33313C20.0296 3.33313 17.8191 4.00744 15.9424 5.26991C14.0657 6.53237 12.608 8.32567 11.7555 10.4207C10.903 12.5157 10.6944 14.8173 11.1564 17.0314C11.6184 19.2456 12.7301 21.2717 14.3493 22.851C11.0596 24.353 8.27175 26.77 6.31842 29.8134C4.36509 32.8567 3.32884 36.398 3.33339 40.0143C3.33339 40.3495 3.46655 40.671 3.70357 40.908C3.94059 41.145 4.26206 41.2782 4.59726 41.2782ZM13.4443 14.7369C13.4427 12.7687 14.0974 10.8562 15.3049 9.30196C16.5123 7.74769 18.2036 6.64043 20.1111 6.15539C22.0186 5.67034 24.0333 5.8352 25.8366 6.62388C27.6398 7.41255 29.1286 8.78001 30.0673 10.5099C31.0061 12.2398 31.3412 14.2333 31.0196 16.175C30.698 18.1168 29.7382 19.8958 28.2919 21.2307C26.8456 22.5656 24.9955 23.3802 23.0343 23.5454C21.073 23.7107 19.1127 23.2173 17.4634 22.1432C16.2311 21.3396 15.2184 20.2417 14.5167 18.9486C13.815 17.6556 13.4465 16.2081 13.4443 14.7369ZM16.6975 24.6002C18.3952 25.5898 20.3251 26.1113 22.2901 26.1113C24.2552 26.1113 26.1851 25.5898 27.8828 24.6002C30.8574 25.6622 33.4602 27.5643 35.3755 30.0759C37.2909 32.5875 38.4365 35.6008 38.6737 38.7504H5.90915C6.14609 35.6011 7.29139 32.588 9.20625 30.0764C11.1211 27.5649 13.7233 25.6626 16.6975 24.6002ZM75.3739 5.88985H45.041C44.7058 5.88985 44.3844 6.023 44.1473 6.26003C43.9103 6.49705 43.7772 6.81852 43.7772 7.15371V27.3756C43.7772 27.7108 43.9103 28.0323 44.1473 28.2693C44.3844 28.5063 44.7058 28.6395 45.041 28.6395H48.8326V32.4311C48.8326 32.6466 48.8878 32.8585 48.9928 33.0468C49.0978 33.235 49.2492 33.3932 49.4325 33.5065C49.6159 33.6197 49.8252 33.6841 50.0405 33.6937C50.2559 33.7032 50.47 33.6575 50.6627 33.561L60.5057 28.6395H75.3739C75.7091 28.6395 76.0305 28.5063 76.2676 28.2693C76.5046 28.0323 76.6377 27.7108 76.6377 27.3756V7.15371C76.6377 6.81852 76.5046 6.49705 76.2676 6.26003C76.0305 6.023 75.7091 5.88985 75.3739 5.88985ZM74.11 26.1117H60.2075C60.0109 26.1118 59.817 26.1576 59.6412 26.2457L51.3604 30.3836V27.3756C51.3604 27.0404 51.2272 26.7189 50.9902 26.4819C50.7532 26.2449 50.4317 26.1117 50.0965 26.1117H46.3049V8.41758H74.11V26.1117Z" fill="#474747"/>
<path d="M52.6242 16.0006H67.7906C68.1258 16.0006 68.4473 15.8675 68.6843 15.6305C68.9214 15.3934 69.0545 15.072 69.0545 14.7368C69.0545 14.4016 68.9214 14.0801 68.6843 13.8431C68.4473 13.6061 68.1258 13.4729 67.7906 13.4729H52.6242C52.289 13.4729 51.9676 13.6061 51.7305 13.8431C51.4935 14.0801 51.3604 14.4016 51.3604 14.7368C51.3604 15.072 51.4935 15.3934 51.7305 15.6305C51.9676 15.8675 52.289 16.0006 52.6242 16.0006ZM52.6242 21.0561H67.7906C68.1258 21.0561 68.4473 20.923 68.6843 20.6859C68.9214 20.4489 69.0545 20.1274 69.0545 19.7922C69.0545 19.457 68.9214 19.1356 68.6843 18.8986C68.4473 18.6615 68.1258 18.5284 67.7906 18.5284H52.6242C52.289 18.5284 51.9676 18.6615 51.7305 18.8986C51.4935 19.1356 51.3604 19.457 51.3604 19.7922C51.3604 20.1274 51.4935 20.4489 51.7305 20.6859C51.9676 20.923 52.289 21.0561 52.6242 21.0561ZM65.6218 58.2391C67.241 56.6599 68.3527 54.6337 68.8147 52.4196C69.2767 50.2055 69.0681 47.9039 68.2156 45.8088C67.3631 43.7138 65.9054 41.9205 64.0287 40.6581C62.152 39.3956 59.9415 38.7213 57.6797 38.7213C55.4179 38.7213 53.2074 39.3956 51.3307 40.6581C49.454 41.9205 47.9963 43.7138 47.1438 45.8088C46.2913 47.9039 46.0827 50.2055 46.5447 52.4196C47.0067 54.6337 48.1184 56.6599 49.7376 58.2391C46.4479 59.7411 43.66 62.1581 41.7067 65.2015C39.7534 68.2449 38.7171 71.7861 38.7217 75.4024C38.7217 75.7376 38.8548 76.0591 39.0919 76.2961C39.3289 76.5331 39.6503 76.6663 39.9855 76.6663H52.6242C52.9594 76.6663 53.2809 76.5331 53.5179 76.2961C53.7549 76.0591 53.8881 75.7376 53.8881 75.4024C53.8881 75.0672 53.7549 74.7458 53.5179 74.5087C53.2809 74.2717 52.9594 74.1386 52.6242 74.1386H41.2974C41.5344 70.9892 42.6797 67.9762 44.5945 65.4646C46.5094 62.953 49.1116 61.0507 52.0858 59.9883C53.7835 60.978 55.7134 61.4995 57.6784 61.4995C59.6435 61.4995 61.5734 60.978 63.2711 59.9883C66.2456 61.0506 68.8481 62.9528 70.7634 65.4643C72.6787 67.9759 73.8245 70.989 74.062 74.1386H62.7352C62.4 74.1386 62.0785 74.2717 61.8415 74.5087C61.6045 74.7458 61.4713 75.0672 61.4713 75.4024C61.4713 75.7376 61.6045 76.0591 61.8415 76.2961C62.0785 76.5331 62.4 76.6663 62.7352 76.6663H75.3739C75.7091 76.6663 76.0305 76.5331 76.2675 76.2961C76.5046 76.0591 76.6377 75.7376 76.6377 75.4024C76.6423 71.7861 75.606 68.2449 73.6527 65.2015C71.6994 62.1581 68.9115 59.7411 65.6218 58.2391ZM52.8543 57.5313C51.2557 56.4909 50.0362 54.9617 49.3776 53.1717C48.7189 51.3817 48.6564 49.4268 49.1993 47.5983C49.7422 45.7699 50.8614 44.1659 52.3902 43.0254C53.919 41.8849 55.7754 41.269 57.6827 41.2695C59.59 41.27 61.4461 41.8868 62.9743 43.0282C64.5025 44.1695 65.6209 45.7741 66.1628 47.6028C66.7048 49.4315 66.6412 51.3864 65.9816 53.176C65.322 54.9657 64.1017 56.4943 62.5026 57.5339C61.0625 58.4557 59.3884 58.9457 57.6784 58.9457C55.9685 58.9457 54.2944 58.4532 52.8543 57.5313ZM34.9301 46.3335H4.59724C4.26204 46.3335 3.94057 46.4666 3.70355 46.7036C3.46653 46.9407 3.33337 47.2621 3.33337 47.5973V67.8192C3.33337 68.1544 3.46653 68.4759 3.70355 68.7129C3.94057 68.9499 4.26204 69.0831 4.59724 69.0831H19.4654L29.3084 74.0046C29.5011 74.1012 29.7153 74.1468 29.9306 74.1373C30.1459 74.1277 30.3552 74.0633 30.5386 73.9501C30.722 73.8368 30.8733 73.6786 30.9783 73.4904C31.0833 73.3022 31.1385 73.0902 31.1385 72.8747V69.0831H34.9301C35.2653 69.0831 35.5867 68.9499 35.8238 68.7129C36.0608 68.4759 36.1939 68.1544 36.1939 67.8192V47.5973C36.1939 47.2621 36.0608 46.9407 35.8238 46.7036C35.5867 46.4666 35.2653 46.3335 34.9301 46.3335ZM33.6662 66.5554H29.8746C29.5394 66.5554 29.2179 66.6885 28.9809 66.9255C28.7439 67.1626 28.6107 67.484 28.6107 67.8192V70.8272L20.3299 66.6893C20.1541 66.6012 19.9602 66.5554 19.7637 66.5554H5.86111V48.8612H33.6662V66.5554Z" fill="#474747"/>
<path d="M12.1805 56.4444H27.3469C27.6821 56.4444 28.0036 56.3112 28.2406 56.0742C28.4776 55.8372 28.6108 55.5157 28.6108 55.1805C28.6108 54.8453 28.4776 54.5238 28.2406 54.2868C28.0036 54.0498 27.6821 53.9166 27.3469 53.9166H12.1805C11.8453 53.9166 11.5238 54.0498 11.2868 54.2868C11.0498 54.5238 10.9166 54.8453 10.9166 55.1805C10.9166 55.5157 11.0498 55.8372 11.2868 56.0742C11.5238 56.3112 11.8453 56.4444 12.1805 56.4444ZM12.1805 61.4998H27.3469C27.6821 61.4998 28.0036 61.3667 28.2406 61.1297C28.4776 60.8926 28.6108 60.5712 28.6108 60.236C28.6108 59.9008 28.4776 59.5793 28.2406 59.3423C28.0036 59.1053 27.6821 58.9721 27.3469 58.9721H12.1805C11.8453 58.9721 11.5238 59.1053 11.2868 59.3423C11.0498 59.5793 10.9166 59.9008 10.9166 60.236C10.9166 60.5712 11.0498 60.8926 11.2868 61.1297C11.5238 61.3667 11.8453 61.4998 12.1805 61.4998Z" fill="#474747"/>
</svg>
