<svg width="1280" height="267" viewBox="0 0 1280 267" fill="none" xmlns="http://www.w3.org/2000/svg">
<mask id="mask0_61_3653" style="mask-type:alpha" maskUnits="userSpaceOnUse" x="0" y="0" width="1280" height="267">
<rect width="1280" height="267" fill="#D9D9D9"/>
</mask>
<g mask="url(#mask0_61_3653)">
<path d="M1279.5 1.00688L1191.96 21.9525L1217.63 37.8786C1082.5 132.845 938.868 193.409 790.501 217.943C668.209 238.162 542.414 234.132 416.568 205.917C221.907 162.279 86.8959 73.3595 62.4565 56.4746C67.287 43.095 61.4358 27.8797 48.6921 21.7204C35.254 15.2255 19.2075 21.2022 12.9046 35.0498C6.6017 48.8973 12.4016 65.4327 25.8397 71.9276C35.3553 76.5267 46.1738 74.8423 53.9039 68.5742C66.3174 77.1693 108.238 105.099 172.763 136.285C237.289 167.472 316.386 198.74 412.897 220.423C540.562 249.117 668.27 253.269 792.42 232.792C943.19 207.908 1089.05 146.418 1226.19 49.9659L1232.95 80.2472L1279.47 1.01708L1279.5 1.00688ZM32.0293 58.3792C25.8358 55.3858 23.1651 47.7715 26.07 41.3892C28.975 35.007 36.3641 32.2549 42.5576 35.2483C48.7512 38.2418 51.4219 45.856 48.517 52.2383C45.612 58.6205 38.2229 61.3727 32.0293 58.3792Z" fill="#E08812"/>
</g>
</svg>
