<svg width="20" height="25" viewBox="0 0 20 25" fill="none" xmlns="http://www.w3.org/2000/svg">
<path d="M15.6823 14.387L15.1014 14.5075L14.6899 14.1219L14.6172 14.7003L14.1089 14.9655L14.6414 15.2065L14.7625 15.7608L15.1498 15.327L15.7307 15.3993L15.4403 14.8932L15.6823 14.387Z" fill="white"/>
<path d="M4.74083 10.2896L3.89358 9.49426L3.77255 10.6512L2.75586 11.2296L3.82096 11.6876L4.06303 12.8445L4.83765 11.9527L5.99958 12.0973L5.39441 11.085L5.90275 10.0245L4.74083 10.2896Z" fill="white"/>
<path d="M13.6384 2.57279L12.7185 2.45228L12.1134 3.15125L11.9439 2.23536L11.0967 1.87383L11.8955 1.41589L11.9923 0.5L12.6701 1.12666L13.5658 0.93384L13.1785 1.77742L13.6384 2.57279Z" fill="white"/>
<path d="M7.9359 11.3743C7.9359 8.48199 5.8299 6.07177 3.07031 5.56562C4.03859 5.01127 5.17631 4.69794 6.36245 4.69794C10.0419 4.69794 13.0193 7.66251 13.0193 11.3261C13.0193 14.9896 10.0419 17.9542 6.36245 17.9542C5.22473 17.9542 4.15962 17.6649 3.21556 17.1588C5.92673 16.6044 7.9359 14.2424 7.9359 11.3743Z" fill="white"/>
<path d="M19.4285 16.2531L18.8475 16.1808L18.4602 16.6147L18.3392 16.0362L17.8066 15.8193L18.315 15.5301L18.3634 14.9516L18.7991 15.3613L19.3801 15.2167L19.1138 15.747L19.4285 16.2531Z" fill="white"/>
<path d="M2.32258 23.8888L1.50654 23.8209L0.941587 24.5L0.816035 23.6172L0 23.2097L0.753268 22.8022L0.816035 21.9194L1.44376 22.5306L2.2598 22.3268L1.94594 23.1418L2.32258 23.8888Z" fill="white"/>
</svg>
