<svg width="57" height="57" viewBox="0 0 57 57" fill="none" xmlns="http://www.w3.org/2000/svg">
<path d="M16.1842 56.7458C15.7199 56.493 15.3671 56.1614 15.5512 55.6048C15.7354 55.0483 16.2105 54.9664 16.7506 54.9708C18.1217 54.984 19.4913 54.9504 20.8609 54.9884C21.3623 55.003 21.5573 54.8306 21.7059 54.404C22.1578 53.1287 22.6669 51.8709 23.1296 50.6058C23.2426 50.2961 23.4082 50.1997 23.7486 50.1997C27.0501 50.2133 30.3516 50.2133 33.653 50.1997C34.0368 50.1997 34.1761 50.337 34.2921 50.6569C34.7316 51.8797 35.2331 53.0819 35.6525 54.309C35.8273 54.8174 36.0548 55.0219 36.6553 54.9986C37.9846 54.9445 39.3186 54.9898 40.6495 54.9781C41.1896 54.9781 41.6663 55.0497 41.8504 55.6092C42.0346 56.1687 41.6848 56.4959 41.2175 56.7516L16.1842 56.7458Z" fill="#E1890F"/>
<path d="M48.3592 8.86646V9.45079C48.3592 17.1446 48.3592 24.8384 48.3592 32.5321C48.3592 34.0324 47.6055 35.0521 46.253 35.3618C45.9316 35.4223 45.604 35.4478 45.2765 35.4377C42.9201 35.4436 40.5636 35.4436 38.2072 35.4377C37.8977 35.4377 37.4102 35.5268 37.4474 35.1047C37.4783 34.7497 37.7445 34.348 38.0324 34.0923C38.4115 33.7534 38.9918 33.6029 39.3354 33.245C39.6201 32.9528 39.7671 32.4737 39.8306 32.0588C39.89 31.4967 39.8998 30.9308 39.86 30.3672C39.8306 29.3212 39.2673 28.6273 38.2397 28.2577C37.5448 28.0079 37.2864 27.4396 37.5866 26.8173C38.0664 25.8268 37.9117 24.943 37.1131 24.1571C36.7788 23.827 36.4378 23.5046 36.0902 23.19C35.2591 22.4406 34.3136 22.296 33.2674 22.7518C32.636 23.0235 32.0015 22.7824 31.7632 22.1835C31.3438 21.1317 30.5855 20.6073 29.397 20.5766C28.8186 20.5522 28.2391 20.5629 27.6622 20.6087C26.6934 20.7051 26.0341 21.2164 25.6828 22.0783C25.3857 22.8087 24.8193 23.0366 24.0842 22.7269C23.0922 22.3091 22.1451 22.4523 21.359 23.1549C20.9814 23.4939 20.6125 23.8421 20.2524 24.1995C19.5003 24.9489 19.3487 25.8254 19.7882 26.7691C20.1085 27.4484 19.8749 28.0006 19.1583 28.2592C18.1323 28.6288 17.569 29.3212 17.5396 30.3672C17.5241 30.896 17.521 31.4248 17.5396 31.9536C17.5813 32.9528 18.1168 33.6701 19.1119 33.9637C19.6628 34.1274 19.8098 34.494 19.9507 34.8928C20.0528 35.185 19.929 35.4392 19.5359 35.4392C16.8509 35.4392 14.1659 35.4597 11.4886 35.4129C10.328 35.3925 9.30655 34.4385 9.10846 33.3502C9.06441 33.0981 9.04268 32.8431 9.04348 32.5876C9.04348 24.8598 9.04348 17.1314 9.04348 9.40257V8.87519L48.3592 8.86646ZM36.7603 14.1868C36.5668 14.3431 36.4275 14.4615 36.2821 14.571C35.3535 15.2605 34.4327 15.9457 33.5119 16.6381C32.9424 17.0662 32.831 17.5643 33.2024 17.9996C33.5738 18.435 34.0953 18.4584 34.6772 18.0289C36.0432 17.018 37.4066 16.0036 38.7674 14.9859C39.5087 14.4308 39.4948 13.8041 38.7257 13.3016C37.3623 12.409 35.9911 11.5296 34.6215 10.6443C34.5751 10.6136 34.5256 10.5829 34.4761 10.5552C33.9669 10.2805 33.4454 10.374 33.1529 10.7918C32.8604 11.2096 32.9672 11.6903 33.4516 12.0292C33.8245 12.2892 34.213 12.5273 34.5952 12.7742L36.7603 14.1868ZM20.6409 14.2102C20.7956 14.0992 20.8916 14.0203 20.9984 13.9502C21.9532 13.3337 22.9111 12.7231 23.8614 12.0993C24.4262 11.7297 24.5639 11.2389 24.2529 10.7933C23.9418 10.3477 23.394 10.2616 22.8353 10.6165C21.4126 11.5242 19.9966 12.4392 18.5873 13.3614C17.9419 13.788 17.9373 14.4352 18.5517 14.9114C19.0159 15.2679 19.488 15.6126 19.9569 15.9618C20.9102 16.6732 21.8573 17.3919 22.8198 18.0931C23.3305 18.4657 23.8552 18.4174 24.2018 18.0025C24.5485 17.5877 24.4603 17.1041 23.979 16.7068C23.8784 16.6221 23.7669 16.549 23.6617 16.4701L20.6409 14.2102ZM27.5136 19.6971C28.0367 19.6723 28.2719 19.3159 28.4081 18.8338C29.2082 15.9881 30.0206 13.1365 30.8238 10.2981C30.9987 9.6772 30.765 9.20389 30.2357 9.06365C29.6569 8.91756 29.2128 9.18784 29.0194 9.84668C28.6959 10.9511 28.3849 12.0584 28.0707 13.1642C27.5662 14.9377 27.057 16.7097 26.5603 18.4861C26.3684 19.1756 26.7723 19.7088 27.5136 19.6971Z" fill="#E1890F"/>
<path d="M7.13698 8.29086V11.7224C6.71295 11.7224 6.29977 11.7224 5.88503 11.7224C5.00602 11.7384 4.68722 12.0292 4.68722 12.8414C4.68722 23.193 4.68722 33.5445 4.68722 43.896C4.68722 44.7024 5.00599 44.9917 5.90048 44.9931C8.5272 44.9931 11.1534 44.9931 13.7791 44.9931H51.1434C51.3746 45.0012 51.6062 44.9953 51.8367 44.9756C52.3659 44.9143 52.6739 44.6338 52.7064 44.1181C52.7172 43.9355 52.7064 43.7529 52.7064 43.5717V13.173C52.7064 11.9065 52.5083 11.7209 51.1588 11.7195H50.2675V8.24121C51.5055 8.29526 52.7435 8.24118 53.9398 8.43255C55.3868 8.66191 56.4654 9.92849 56.6341 11.309C56.6671 11.5801 56.6831 11.8527 56.6821 12.1256C56.6821 22.9524 56.6821 33.7782 56.6821 44.6031C56.6821 46.6483 55.5292 48.0565 53.587 48.3838C53.3201 48.4213 53.0504 48.4369 52.7807 48.4305C36.7139 48.4305 20.6482 48.4305 4.58351 48.4305C2.27455 48.4305 0.694509 46.9945 0.691414 44.8207C0.679034 33.8498 0.679034 22.8789 0.691414 11.9079C0.691414 9.72833 2.26374 8.29816 4.57115 8.28939C5.41767 8.28793 6.24559 8.29086 7.13698 8.29086Z" fill="#E1890F"/>
<path opacity="0.7" d="M50.2425 13.5398H50.798V43.1818H6.60596V13.5515H7.1569V14.2147C7.1569 20.3561 7.1569 26.4985 7.1569 32.6418C7.1569 34.893 8.57756 36.6314 10.803 37.0988C11.2389 37.1771 11.6825 37.2109 12.1261 37.1996C14.4629 37.2103 16.7997 37.2103 19.1365 37.1996C19.4739 37.1996 19.6488 37.3077 19.8778 37.5648C20.4594 38.2409 21.1111 38.8604 21.8231 39.4143C22.4901 39.9153 23.3026 39.8525 24.0794 39.5341C24.8083 39.2287 25.3887 39.4493 25.6626 40.1301C26.0649 41.1264 26.8356 41.6435 27.953 41.6611C28.4358 41.6669 28.9187 41.6669 29.4015 41.6611C30.5622 41.6479 31.322 41.141 31.7367 40.114C31.9983 39.4698 32.6158 39.2273 33.2843 39.515C34.2871 39.9533 35.2219 39.8364 36.0111 39.1192C36.5914 38.5933 37.0789 37.9782 37.6391 37.4304C37.7989 37.2942 38.0058 37.2179 38.221 37.2157C40.5764 37.2011 42.9333 37.2157 45.2887 37.2055C48.3142 37.2055 50.2409 35.3765 50.2409 32.5176C50.2409 26.4298 50.2409 20.3429 50.2409 14.2571L50.2425 13.5398Z" fill="#E1890F"/>
<path opacity="0.5" d="M9.087 6.99804C9.087 5.62631 9.0127 4.29547 9.10865 2.97487C9.19996 1.72 10.3607 0.801134 11.6947 0.751465C11.8494 0.751465 12.0042 0.751465 12.1589 0.751465H45.2364C47.2668 0.751465 48.3517 1.77406 48.3563 3.68047C48.3563 4.77172 48.3563 5.86297 48.3563 7.00096L9.087 6.99804ZM35.3584 4.7863C38.2724 4.7863 41.1865 4.7863 44.099 4.7863C44.7722 4.7863 45.1714 4.42548 45.1637 3.88205C45.1559 3.33861 44.7799 3.04207 44.1253 3.01431C44.0278 3.01431 43.9318 3.01431 43.8359 3.01431H26.9335C26.7214 3.01431 26.4692 2.96465 26.3144 3.05814C26.0421 3.22176 25.7155 3.44672 25.635 3.70675C25.6111 3.85267 25.6228 4.00182 25.6692 4.14283C25.7156 4.28384 25.7955 4.413 25.9028 4.52045C26.1055 4.70452 26.4924 4.77753 26.7988 4.78045C29.6479 4.7936 32.5031 4.7863 35.3584 4.7863ZM13.5378 2.97194C13.2608 3.01869 12.976 3.01431 12.7439 3.11803C12.5439 3.19506 12.3827 3.34117 12.293 3.52657C12.2033 3.71197 12.1918 3.92272 12.261 4.11579C12.4158 4.66215 12.8801 4.79653 13.4248 4.79215C14.2512 4.78484 14.6629 4.60662 14.7774 4.13331C14.8826 3.69505 14.7495 3.32401 14.3131 3.1268C14.0825 3.02016 13.7978 3.01869 13.5393 2.97048L13.5378 2.97194ZM17.58 3.00846C16.6174 3.00846 16.2182 3.2568 16.1655 3.80169C16.1098 4.38603 16.5215 4.76731 17.2488 4.7863C18.2733 4.8126 18.7732 4.50291 18.7345 3.85137C18.7356 3.65846 18.6643 3.47141 18.5331 3.32349C18.4019 3.17557 18.2193 3.07636 18.018 3.04352C17.8741 3.0182 17.7279 3.00646 17.5815 3.00846H17.58ZM21.3576 3.00846V3.02597C21.2236 3.01939 21.0893 3.01939 20.9552 3.02597C20.7224 3.0343 20.5022 3.1276 20.3408 3.28619C20.1794 3.44478 20.0896 3.6563 20.0902 3.8762C20.0772 4.09633 20.1553 4.31263 20.308 4.47944C20.4608 4.64624 20.6762 4.75051 20.9088 4.77025C21.2328 4.80727 21.5604 4.80481 21.8838 4.76294C22.1157 4.73475 22.327 4.62248 22.4728 4.44991C22.6187 4.27733 22.6877 4.05796 22.6653 3.83821C22.6599 3.62653 22.5692 3.42477 22.4116 3.2741C22.254 3.12342 22.0414 3.03519 21.8172 3.02744C21.6671 3.00845 21.5124 3.00992 21.3592 3.00408L21.3576 3.00846Z" fill="#E1890F"/>
<path opacity="0.5" d="M35.9959 25.8064C35.8628 26.0621 35.7421 26.3513 35.5718 26.6114C35.3026 27.0204 35.2623 27.3871 35.5548 27.8195C35.7699 28.1441 35.9268 28.4999 36.0191 28.8727C36.1444 29.3548 36.4276 29.6031 36.9306 29.7288C37.9907 30.0063 37.9845 30.021 37.9845 31.0611V31.1707C37.9845 32.2108 37.9922 32.24 36.9476 32.5132C36.4168 32.6519 36.1011 32.8988 36.0191 33.4101C36.0038 33.5006 35.9712 33.5877 35.9231 33.6672C35.3954 34.5262 35.1262 35.3852 35.9077 36.2515C35.9336 36.2794 35.9484 36.3151 35.9495 36.3523C35.8953 37.0827 35.1664 37.3354 34.7346 37.7912C34.6108 37.9198 34.1543 37.9373 33.9763 37.8219C33.2165 37.3456 32.4968 37.2901 31.7525 37.8131C31.706 37.8428 31.6531 37.8622 31.5977 37.8701C30.6522 37.9957 30.1709 38.5406 30.0177 39.401C29.9542 39.7633 29.7081 39.9255 29.3135 39.8948C29.2563 39.8948 29.1975 39.8948 29.1402 39.8948C27.6453 39.9021 27.6592 39.8948 27.1098 38.618C26.9911 38.4044 26.8014 38.2334 26.5697 38.1316C26.1952 37.9504 25.7402 37.8978 25.3982 37.6802C24.7915 37.2931 24.2514 37.3632 23.6959 37.7298C23.1759 38.0746 22.7828 37.9796 22.3464 37.5399C21.1594 36.3479 21.2817 36.7379 21.9379 35.4042C22.0462 35.1836 21.9951 34.8534 21.9177 34.6022C21.8048 34.2399 21.5231 33.917 21.4535 33.5518C21.3173 32.8755 20.9041 32.5541 20.2247 32.4533C19.6057 32.3612 19.3906 32.0369 19.4138 31.4307C19.4649 30.1086 19.4339 30.1159 20.7664 29.6192C20.9936 29.5077 21.1762 29.3292 21.2863 29.1108C21.4782 28.7573 21.5324 28.3264 21.7645 28.005C22.1777 27.4353 22.1127 26.9225 21.7196 26.4083C21.3266 25.8941 21.424 25.4719 21.9518 25.1111C21.9668 25.0996 21.9808 25.0868 21.9936 25.0731C23.1372 24.0154 22.7673 24.1133 24.1601 24.7225C24.4344 24.8116 24.7324 24.8116 25.0066 24.7225C25.4817 24.5851 25.9166 24.3105 26.3994 24.1937C26.8823 24.0768 27.0881 23.8168 27.2212 23.396C27.5539 22.3545 27.5694 22.3588 28.7254 22.3588C28.9189 22.3588 29.1123 22.3588 29.3042 22.3588C29.6803 22.3457 29.9403 22.4728 30.0239 22.8453C30.0517 22.968 30.1214 23.0849 30.1446 23.209C30.2591 23.7817 30.5655 24.1688 31.2186 24.2462C31.3142 24.2595 31.4059 24.2913 31.4878 24.3397C32.3669 24.8686 33.2366 24.9986 34.1187 24.3485C34.1919 24.3112 34.2738 24.2916 34.357 24.2916C34.4402 24.2916 34.5221 24.3112 34.5953 24.3485C35.0519 24.7356 35.4759 25.1593 35.9046 25.5756C35.9464 25.6136 35.9541 25.6983 35.9959 25.8064ZM28.7084 26.1935C28.0218 26.1897 27.3411 26.3142 26.7057 26.5598C26.0703 26.8055 25.4927 27.1674 25.0061 27.6248C24.5196 28.0822 24.1337 28.6259 23.8709 29.2247C23.608 29.8235 23.4733 30.4655 23.4746 31.1137C23.4733 31.7665 23.6091 32.4131 23.8741 33.0161C24.1391 33.6191 24.528 34.1666 25.0184 34.6269C25.5087 35.0872 26.0909 35.4512 26.7311 35.698C27.3714 35.9447 28.0571 36.0693 28.7487 36.0645C31.5745 36.0718 33.9206 33.8338 33.9237 31.1297C33.9266 30.4821 33.7937 29.8403 33.5327 29.2413C33.2718 28.6423 32.8878 28.0979 32.4031 27.6395C31.9184 27.1811 31.3424 26.8178 30.7083 26.5704C30.0742 26.323 29.3946 26.1964 28.7084 26.1979V26.1935Z" fill="#E1890F"/>
<path opacity="0.5" d="M28.6929 27.97C29.1325 27.9679 29.5682 28.0476 29.9751 28.2046C30.382 28.3616 30.7521 28.5927 31.0643 28.8848C31.3765 29.1769 31.6246 29.5243 31.7945 29.907C31.9643 30.2897 32.0526 30.7003 32.0542 31.1152C32.0515 31.5347 31.9614 31.9496 31.7888 32.3362C31.6163 32.7228 31.3648 33.0735 31.0486 33.3683C30.7324 33.6631 30.3578 33.8962 29.9462 34.0543C29.5346 34.2124 29.0939 34.2923 28.6496 34.2896C27.7719 34.2714 26.9362 33.9311 26.3199 33.3409C25.7037 32.7507 25.3553 31.9571 25.3486 31.1284C25.3478 30.7135 25.4338 30.3026 25.6015 29.9191C25.7693 29.5357 26.0155 29.1873 26.3262 28.8939C26.6369 28.6005 27.0059 28.3678 27.412 28.2093C27.8181 28.0508 28.2534 27.9694 28.6929 27.97Z" fill="#E1890F"/>
</svg>
