<svg width="41" height="41" viewBox="0 0 41 41" fill="none" xmlns="http://www.w3.org/2000/svg">
<g clip-path="url(#clip0_577_2279)">
<path d="M40.6365 20.1538C40.6365 9.10693 31.6833 0.153809 20.6365 0.153809C9.5896 0.153809 0.636475 9.10693 0.636475 20.1538C0.636475 31.2007 9.5896 40.1538 20.6365 40.1538C20.7537 40.1538 20.8708 40.1538 20.988 40.146V24.5835H16.6912V19.5757H20.988V15.8882C20.988 11.6147 23.5974 9.28662 27.4099 9.28662C29.238 9.28662 30.8083 9.41943 31.2615 9.48193V13.9507H28.6365C26.5662 13.9507 26.1599 14.9351 26.1599 16.3804V19.5679H31.1208L30.4724 24.5757H26.1599V39.3804C34.5193 36.9819 40.6365 29.2866 40.6365 20.1538Z" fill="#F4F4F4"/>
</g>
<defs>
<clipPath id="clip0_577_2279">
<rect width="40" height="40" fill="white" transform="translate(0.636475 0.153809)"/>
</clipPath>
</defs>
</svg>
