<svg width="489" height="881" viewBox="0 0 489 881" fill="none" xmlns="http://www.w3.org/2000/svg">
<path opacity="0.5" d="M506.499 -51.9998C471.994 -52.0423 438.556 -39.8305 411.949 -17.4698L94.8053 248.504L88.6027 253.72C60.8996 276.894 38.5859 306.028 23.2658 339.027C7.94571 372.026 0 408.07 0 444.568C0 481.065 7.94571 517.11 23.2658 550.109C38.5859 583.108 60.8996 612.242 88.6027 635.416L94.8593 640.576L409.899 904.08C424.914 917.306 442.379 927.338 461.263 933.585C480.148 939.833 500.07 942.168 519.855 940.455C539.641 938.742 558.889 933.014 576.465 923.609C594.041 914.204 609.589 901.313 622.193 885.696C634.797 870.078 644.201 852.051 649.851 832.676C655.501 813.3 657.283 792.97 655.091 772.883C652.899 752.796 646.778 733.359 637.089 715.717C627.4 698.076 614.339 682.588 598.675 670.166L329.049 444.376L601.103 216.17C618.057 201.972 631.713 184.128 641.088 163.92C650.463 143.713 655.325 121.643 655.325 99.2954C655.325 76.9481 650.463 54.8781 641.088 34.6705C631.713 14.4628 618.057 -3.38103 601.103 -17.5796C574.474 -39.8886 541.042 -52.0594 506.553 -51.9998" fill="#E08812"/>
</svg>
