<svg width="57" height="57" viewBox="0 0 57 57" fill="none" xmlns="http://www.w3.org/2000/svg">
<path d="M56.3022 15.6761V43.9927C56.3022 46.1785 55.1736 47.2865 52.9711 47.2865H3.61885C1.43574 47.2865 0.302246 46.1753 0.302246 44.0404C0.302246 34.1607 0.302246 24.2811 0.302246 14.4014C0.302246 12.2934 1.43895 11.1664 3.56725 11.1648H18.0493C17.9284 11.814 17.8171 12.4204 17.6978 13.0696H4.47659C2.99968 13.0696 2.2419 13.8109 2.24029 15.2506C2.24029 23.3091 2.24029 31.3675 2.24029 39.4259C2.24029 40.8403 2.99807 41.5847 4.4379 41.5847H52.1633C53.6354 41.5847 54.3787 40.8466 54.3803 39.3847C54.3803 32.2363 54.3771 25.089 54.3706 17.9428C54.3525 17.7513 54.3881 17.5587 54.4734 17.3858C54.5586 17.2129 54.6904 17.0662 54.8543 16.9618C55.3445 16.6094 55.7686 16.1554 56.3022 15.6761ZM2.26446 43.5102V45.3483H4.12511V43.5102H2.26446ZM6.12602 43.5102V45.3483H7.98183V43.5102H6.12602ZM11.8402 45.3642V43.5149H9.99403V45.3642H11.8402Z" fill="#E1890F"/>
<path opacity="0.7" d="M13.8411 28.2859H8.04633V39.6338H4.2041V15.0061H17.6446V18.757H13.8411V28.2859Z" fill="#E1890F"/>
<path opacity="0.7" d="M52.402 39.6559H48.5985V28.3048H42.8021V18.795H38.9712V14.9727C40.0305 14.9727 41.1075 14.9727 42.183 14.9838C42.291 14.9838 42.4168 15.1171 42.5054 15.2171C45.0771 18.3918 48.3405 19.4395 52.3134 18.322C52.3295 18.322 52.352 18.322 52.4085 18.3378L52.402 39.6559Z" fill="#E1890F"/>
<path opacity="0.5" d="M15.7502 28.2748V20.719H40.8109V28.2732C39.305 28.2732 37.8039 28.2843 36.2964 28.2573C36.1125 28.2573 35.9126 28.0669 35.753 27.9272C34.1557 26.5388 32.5622 25.1445 30.9724 23.7445C29.2101 22.2016 27.3946 22.1953 25.642 23.7286C24.0296 25.135 22.435 26.5541 20.8049 27.943C20.5652 28.1353 20.269 28.2466 19.9601 28.2605C18.588 28.2922 17.2046 28.2748 15.7502 28.2748ZM19.5699 26.3478V22.6191H17.7125V26.3478H19.5699ZM38.8793 26.3478V22.6191H37.0171V26.3478H38.8793Z" fill="#E1890F"/>
<path opacity="0.5" d="M56.2992 10.1886C56.3022 11.9515 55.5958 13.6439 54.3346 14.8954C53.0734 16.1469 51.36 16.8557 49.5693 16.8666C47.7793 16.867 46.0618 16.1708 44.7911 14.9296C43.5204 13.6885 42.7998 12.0031 42.7861 10.2409C42.7831 8.47798 43.4895 6.78562 44.7508 5.53412C46.012 4.28262 47.7254 3.57391 49.5161 3.563C51.3068 3.56003 53.0258 4.25543 54.297 5.49711C55.5682 6.7388 56.2881 8.42566 56.2992 10.1886ZM51.6508 6.69642L47.4587 10.8394L46.4542 9.54888L45.0918 10.8283L47.6119 13.3204L53.0375 7.97742L51.6508 6.69642Z" fill="#E1890F"/>
<path d="M15.7502 56.7516V54.688C15.7502 54.0753 16.0727 53.7356 16.679 53.6388C17.7076 53.469 18.7363 53.3039 19.8037 53.1293C20.2664 53.9769 20.9162 54.623 21.9191 54.8087C22.2348 54.8621 22.5548 54.8871 22.8752 54.8833C26.4352 54.8833 29.9937 54.8595 33.5521 54.8992C34.9952 54.9135 36.1013 54.4595 36.7881 53.1182C37.8781 53.3023 38.9648 53.4785 40.0467 53.6721C40.2708 53.6968 40.4773 53.8035 40.6252 53.9711C40.773 54.1388 40.8514 54.355 40.8448 54.5769C40.8673 55.2865 40.8448 56.0056 40.8448 56.7469L15.7502 56.7516Z" fill="#E1890F"/>
<path d="M36.9251 18.7412H35.0822V15.0125H29.2778V18.738H27.3607V15.0077H21.5562V18.7205H19.6472V13.1045H36.9138L36.9251 18.7412Z" fill="#E1890F"/>
<path d="M9.99878 30.2017H18.2379L16.1531 32.0478H19.5713V39.648H17.7106V34.0192H11.8933V39.6527H9.99878V30.2017Z" fill="#E1890F"/>
<path d="M46.6039 39.6528H44.7303V34.0225H38.9259V39.6512H37.0298V32.0939H40.298L40.3576 31.9685L38.3874 30.2224H46.5974L46.6039 39.6528Z" fill="#E1890F"/>
<path d="M21.5385 49.2134H35.0241C35.0241 50.2277 35.0725 51.2484 35.0032 52.2627C34.9693 52.7389 34.542 52.9865 34.0358 52.9865C30.2005 52.9865 26.3642 52.9865 22.5268 52.9865C21.9238 52.9865 21.5772 52.6071 21.5369 52.0119C21.5369 51.9135 21.5369 51.8135 21.5369 51.715L21.5385 49.2134Z" fill="#E1890F"/>
<path d="M25.4468 32.1035H31.1658V39.6339H25.4468V32.1035Z" fill="#E1890F"/>
<path d="M35.4047 30.1541H21.2966C21.4288 30.0096 21.5046 29.9096 21.5982 29.8271C23.4438 28.208 25.2926 26.5905 27.1446 24.9745C27.8589 24.3539 28.6618 24.2856 29.3293 24.8587C31.3222 26.573 33.2957 28.3191 35.4047 30.1541Z" fill="#E1890F"/>
<path opacity="0.5" d="M25.4485 11.1219C25.5614 9.5584 25.8177 8.05836 26.7964 6.8361C28.1443 5.15669 28.4845 5.16939 29.8115 6.8361C30.787 8.05836 31.0417 9.55999 31.1529 11.1219H25.4485Z" fill="#E1890F"/>
<path d="M21.5835 32.105H23.4425V39.6338H21.5835V32.105Z" fill="#E1890F"/>
<path d="M35.0177 39.6561H33.1619V32.1257H35.0177V39.6561Z" fill="#E1890F"/>
<path opacity="0.5" d="M36.4204 11.1472H33.1151C32.9426 9.45988 32.662 7.79314 31.7527 6.27563C33.4698 6.60898 35.8883 9.1313 36.4204 11.1472Z" fill="#E1890F"/>
<path opacity="0.5" d="M24.8921 6.18042C23.9779 7.78364 23.6232 9.41225 23.5135 11.1298H20.2485C20.3598 9.57257 22.6526 7.08521 24.8921 6.18042Z" fill="#E1890F"/>
<path d="M13.8638 35.9036H15.7164V39.6529H13.8638V35.9036Z" fill="#E1890F"/>
<path d="M40.8755 39.6337V35.9177H42.7523V39.6337H40.8755Z" fill="#E1890F"/>
<path d="M29.2406 0.751709V3.52798H27.3848V0.751709H29.2406Z" fill="#E1890F"/>
<path d="M40.8865 11.2124C41.03 11.8219 41.1687 12.4108 41.317 13.0379H38.9082C38.7969 12.4458 38.6841 11.8505 38.5615 11.2124H40.8865Z" fill="#E1890F"/>
<path d="M23.5056 16.895H25.3614V18.7331H23.5056V16.895Z" fill="#E1890F"/>
<path d="M31.2124 18.733V16.9155H33.0892V18.733H31.2124Z" fill="#E1890F"/>
</svg>
