<svg width="56" height="57" viewBox="0 0 56 57" fill="none" xmlns="http://www.w3.org/2000/svg">
<mask id="mask0_811_3802" style="mask-type:alpha" maskUnits="userSpaceOnUse" x="0" y="0" width="56" height="57">
<rect y="0.713257" width="56" height="56" fill="#D9D9D9"/>
</mask>
<g mask="url(#mask0_811_3802)">
<path d="M15.2003 17.3513C15.8312 17.5743 16.4071 17.8355 17.0104 17.9791C18.4539 18.3243 19.844 17.8997 21.2355 17.585C22.676 17.2596 24.1149 16.9984 25.5813 17.417C25.8685 17.4979 26.1465 17.6049 26.4978 17.7225C24.4356 19.6273 22.5171 21.5565 20.1754 22.9801C19.6698 23.2856 19.1642 23.5911 18.6693 23.9135C17.93 24.3961 17.8139 25.111 18.3394 25.8228C20.3251 28.5006 22.847 29.3361 26.2183 28.3157C27.9092 27.801 29.5406 27.0937 31.2117 26.5224C31.8084 26.3273 32.4221 26.1882 33.0447 26.1069C33.842 25.9909 34.5722 26.2078 35.2825 26.6126C38.1847 28.2852 41.1053 29.9303 44.0122 31.5983C45.1899 32.2735 45.3992 33.6162 44.4888 34.4624C43.9083 35.0001 43.143 35.0734 42.3747 34.6503C40.4806 33.5902 38.59 32.524 36.7031 31.4517C36.587 31.386 36.4739 31.3173 36.3563 31.2531C35.7667 30.9385 35.2428 31.0362 34.9648 31.5113C34.6868 31.9863 34.8594 32.5041 35.4474 32.8371C37.4352 33.9665 39.4256 35.0867 41.4185 36.1977C41.9837 36.5139 42.3869 36.9416 42.477 37.5984C42.5305 37.9017 42.4958 38.2139 42.3769 38.498C42.258 38.7821 42.06 39.026 41.8065 39.2007C41.5505 39.4051 41.2396 39.5288 40.9132 39.556C40.5868 39.5832 40.2597 39.5127 39.9734 39.3535C39.1975 38.9487 38.4459 38.5042 37.6822 38.075C35.7224 36.9736 33.7733 35.8555 31.7967 34.7908C31.4664 34.6383 31.089 34.6229 30.7473 34.7481C30.5304 34.8397 30.289 35.298 30.3471 35.5286C30.4463 35.8819 30.6741 36.1854 30.9856 36.3794C33.089 37.6014 35.2168 38.799 37.34 39.9935C37.8624 40.2868 38.2672 40.6687 38.3772 41.2797C38.4964 41.9503 38.3283 42.5399 37.7784 42.9599C37.2285 43.38 36.5824 43.5098 35.9561 43.1677C34.3354 42.2817 32.7346 41.3606 31.1261 40.4518C31.076 40.4246 31.0306 40.3896 30.9917 40.3479C29.9225 39.1702 28.6088 38.8586 27.1073 39.2298C26.1908 36.9217 24.3868 36.2863 22.4224 36.7201C21.6953 34.8137 20.3022 33.9293 18.2034 34.1233C17.9101 32.7073 17.154 31.635 15.7594 31.163C14.3846 30.7048 13.1306 31.0102 11.9743 32.0352C11.6794 30.8132 11.3495 29.6523 9.96558 29.2032L15.2003 17.3513Z" fill="#E1890F"/>
<path opacity="0.7" d="M20.1555 25.1186C22.8775 23.6431 25.0313 21.5351 27.2691 19.528C27.9267 18.9496 28.6336 18.4298 29.3817 17.9745C31.453 16.6883 33.6449 16.5906 35.8995 17.4444C36.7183 17.7499 37.5233 18.0982 38.3436 18.4007C40.0421 19.0269 40.7998 19.0331 42.503 18.4587L47.1542 30.4512C46.8197 30.5917 46.5295 30.7261 46.2301 30.83C46.1285 30.8528 46.022 30.8347 45.9337 30.7796C44.9531 30.1686 43.9984 29.5072 42.9994 28.9237C40.8303 27.6589 38.6109 26.4796 36.4662 25.1736C34.786 24.1548 33.0691 23.9913 31.2635 24.5901C29.8201 25.0682 28.4132 25.6502 26.9865 26.1726C25.7997 26.6064 24.5899 26.9364 23.3037 26.8004C22.0496 26.6752 21.0415 26.0901 20.1555 25.1186Z" fill="#E1890F"/>
<path d="M56 29.8952C55.9481 30.7155 55.5968 31.2348 54.9048 31.5067C53.8951 31.9039 52.8885 32.3056 51.8742 32.686C50.805 33.0862 50.0061 32.7272 49.583 31.6564C48.476 28.8244 47.3747 25.9894 46.279 23.1513C45.2606 20.527 44.2423 17.9033 43.224 15.28C42.7229 13.9832 43.062 13.224 44.3604 12.7276C45.2662 12.3808 46.1675 12.0234 47.0748 11.6812C48.1548 11.2734 48.9567 11.6079 49.3661 12.671C51.5188 18.1986 53.6645 23.7287 55.803 29.2613C55.8797 29.469 55.9455 29.6806 56 29.8952ZM46.8136 14.223C46.5253 14.2298 46.2512 14.3501 46.0511 14.5577C45.8509 14.7653 45.7406 15.0436 45.7443 15.332C45.7485 15.4745 45.7807 15.6148 45.8392 15.7448C45.8977 15.8748 45.9813 15.992 46.0852 16.0896C46.1891 16.1873 46.3112 16.2634 46.4446 16.3138C46.578 16.3641 46.72 16.3876 46.8625 16.3829C47.1389 16.3722 47.4003 16.2549 47.592 16.0555C47.7837 15.8561 47.8907 15.5902 47.8905 15.3136C47.8934 15.1708 47.8676 15.0288 47.8146 14.8961C47.7617 14.7634 47.6827 14.6426 47.5823 14.5409C47.4819 14.4393 47.3622 14.3588 47.2301 14.3041C47.0981 14.2495 46.9565 14.2219 46.8136 14.223Z" fill="#E1890F"/>
<path opacity="0.5" d="M1.0769 28.4593C1.14327 28.2036 1.2249 27.9522 1.32132 27.7063C3.69914 22.3091 6.08204 16.918 8.47004 11.533C8.94662 10.4638 9.76996 10.1476 10.8469 10.6165C11.7909 11.0238 12.7313 11.4363 13.6682 11.8538C14.7252 12.3304 15.0429 13.1659 14.577 14.2398C12.1982 19.6369 9.81425 25.027 7.42523 30.4099C6.93185 31.525 6.12532 31.8321 5.01329 31.3494C4.05402 30.9339 3.09934 30.5062 2.14312 30.0831C1.49393 29.7867 1.13037 29.2964 1.0769 28.4593ZM10.8988 13.172C10.7565 13.1726 10.6158 13.2022 10.4852 13.2589C10.3547 13.3156 10.237 13.3982 10.1394 13.5018C10.0419 13.6054 9.96637 13.7278 9.91756 13.8615C9.86874 13.9951 9.84763 14.1374 9.8555 14.2795C9.86378 14.5585 9.97975 14.8234 10.1791 15.0188C10.3784 15.2141 10.6457 15.3247 10.9248 15.3273C11.0669 15.3257 11.2074 15.2961 11.3381 15.2402C11.4688 15.1843 11.5871 15.1031 11.6865 15.0014C11.7858 14.8997 11.864 14.7794 11.9168 14.6474C11.9696 14.5154 11.9958 14.3743 11.994 14.2321C11.9952 14.0896 11.9674 13.9483 11.9123 13.8169C11.8572 13.6854 11.776 13.5665 11.6736 13.4674C11.5711 13.3683 11.4497 13.291 11.3165 13.2402C11.1833 13.1894 11.0412 13.1662 10.8988 13.172Z" fill="#E1890F"/>
<path opacity="0.7" d="M14.7419 41.9365C14.8612 41.5818 15.0025 41.2349 15.1651 40.8978C15.9502 39.4864 16.7552 38.0857 17.5571 36.6819C17.9757 35.9502 18.8799 35.7074 19.6956 36.1015C20.5113 36.4956 20.9513 37.5083 20.577 38.2583C19.798 39.8225 18.9991 41.3775 18.1651 42.9157C17.742 43.6977 16.9675 43.9544 16.1075 43.7039C15.2827 43.4656 14.7969 42.8087 14.7419 41.9365Z" fill="#E1890F"/>
<path opacity="0.7" d="M23.5771 38.4309C23.8776 38.4225 24.175 38.4929 24.4398 38.6353C24.7046 38.7776 24.9274 38.9868 25.0861 39.2421C25.2448 39.4974 25.3339 39.7898 25.3443 40.0903C25.3548 40.3907 25.2864 40.6886 25.1458 40.9544C24.5348 42.1382 23.9147 43.3174 23.3021 44.5012C22.9462 45.1871 22.3688 45.4819 21.6219 45.4498C20.8749 45.4177 20.322 45.0496 20.0944 44.3592C19.9697 43.9715 19.9832 43.5526 20.1325 43.1738C20.7435 41.8632 21.4401 40.5939 22.1076 39.3092C22.4116 38.7059 22.876 38.4309 23.5771 38.4309Z" fill="#E1890F"/>
<path opacity="0.7" d="M13.0189 39.5124C11.5769 39.5231 10.6818 38.1957 11.2714 36.9752C11.8167 35.8479 12.417 34.7465 13.0403 33.6605C13.1594 33.4587 13.3173 33.2824 13.5048 33.1418C13.6924 33.0013 13.9058 32.8991 14.133 32.8414C14.3601 32.7836 14.5964 32.7713 14.8283 32.8052C15.0602 32.8391 15.2832 32.9184 15.4843 33.0388C15.8891 33.277 16.1848 33.664 16.3083 34.1171C16.4319 34.5703 16.3735 35.0537 16.1457 35.4645C15.5209 36.5719 14.8626 37.661 14.2424 38.7715C13.9445 39.2985 13.5138 39.5231 13.0189 39.5124Z" fill="#E1890F"/>
<path opacity="0.7" d="M30.0263 42.8775C30.0136 43.039 29.9749 43.1973 29.9117 43.3464C29.3175 44.4921 28.7401 45.6499 28.0787 46.7604C27.6663 47.4554 26.9484 47.6235 26.177 47.4799C25.8303 47.4035 25.5162 47.2203 25.2789 46.9562C25.0416 46.6921 24.8931 46.3603 24.8542 46.0074C24.8311 45.7287 24.8839 45.4489 25.0069 45.1978C25.5553 44.0919 26.1388 43.0028 26.7101 41.9075C27.1347 41.0934 27.8175 40.7695 28.6836 40.9742C29.4734 41.1606 30.0278 41.8877 30.0263 42.8775Z" fill="#E1890F"/>
<path d="M30.5396 46.2242C31.0436 45.1412 31.5202 44.1193 32.0121 43.0653C32.4016 43.296 32.8919 43.5465 33.338 43.8611C33.6888 44.1129 33.9318 44.4875 34.0187 44.9105C34.1056 45.3334 34.03 45.7736 33.8069 46.1432C33.5816 46.5239 33.2183 46.8032 32.7926 46.9232C32.3668 47.0432 31.9112 46.9948 31.5202 46.7878C31.1887 46.6152 30.868 46.4136 30.5396 46.2242Z" fill="#E1890F"/>
</g>
</svg>
