<svg width="24" height="24" viewBox="0 0 24 24" fill="none" xmlns="http://www.w3.org/2000/svg">
<g clip-path="url(#clip0_617_2353)">
<path d="M20.8506 6.15772C20.8506 6.39503 20.6583 6.5874 20.4209 6.5874C20.1836 6.5874 19.9913 6.39503 19.9913 6.15772C19.9913 5.92036 20.1836 5.72803 20.4209 5.72803C20.6583 5.72803 20.8506 5.92036 20.8506 6.15772ZM18.2723 6.15772C18.2723 6.39503 18.08 6.5874 17.8426 6.5874C17.6053 6.5874 17.4128 6.39503 17.4128 6.15772C17.4128 5.92036 17.6053 5.72803 17.8426 5.72803C18.08 5.72803 18.2723 5.92036 18.2723 6.15772ZM15.694 6.15772C15.694 6.39503 15.5015 6.5874 15.2642 6.5874C15.0268 6.5874 14.8345 6.39503 14.8345 6.15772C14.8345 5.92036 15.0268 5.72803 15.2642 5.72803C15.5015 5.72803 15.694 5.92036 15.694 6.15772Z" fill="#F4F4F4"/>
<path d="M17.8427 1.00098C14.9992 1.00098 12.6859 3.31425 12.6859 6.15776C12.6859 7.18867 12.9896 8.17764 13.5669 9.03164L12.7079 11.6082C12.681 11.6889 12.6787 11.7757 12.7011 11.8577C12.7236 11.9397 12.7699 12.0131 12.8341 12.0689C12.8983 12.1245 12.9775 12.1599 13.0618 12.1706C13.1462 12.1812 13.2317 12.1666 13.3077 12.1286L15.7937 10.8855C16.4466 11.1703 17.1348 11.3145 17.8426 11.3145C20.686 11.3145 22.9994 9.00105 22.9994 6.15776C22.9994 3.31425 20.686 1.00098 17.8427 1.00098ZM17.8427 10.455C17.1949 10.455 16.5659 10.3095 15.9734 10.0223C15.9141 9.99362 15.8491 9.97893 15.7833 9.97933C15.7174 9.97973 15.6526 9.99522 15.5937 10.0246L13.8514 10.8957L14.451 9.09726C14.4728 9.0318 14.4786 8.96204 14.4678 8.89388C14.457 8.82573 14.4299 8.76118 14.3889 8.70568C13.837 7.95991 13.5453 7.07888 13.5453 6.15776C13.5453 3.78824 15.473 1.86053 17.8427 1.86053C20.2122 1.86053 22.1399 3.78824 22.1399 6.15776C22.1399 8.52728 20.2122 10.455 17.8427 10.455ZM9.50586 14.8381C9.50586 15.0755 9.31353 15.268 9.07617 15.268C8.83881 15.268 8.64648 15.0755 8.64648 14.8381C8.64648 14.6008 8.83886 14.4084 9.07617 14.4084C9.31349 14.4084 9.50586 14.6008 9.50586 14.8381Z" fill="#F4F4F4"/>
<path d="M15.9067 14.5626C15.739 14.3947 15.4668 14.3949 15.2989 14.5626L13.2391 16.6221C12.9467 16.9146 12.4953 16.9742 12.166 16.7639C11.6913 16.4605 11.2327 16.1328 10.7919 15.782C10.6062 15.6343 10.3358 15.665 10.1879 15.8506C10.0403 16.0364 10.0709 16.3067 10.2566 16.4545C10.7207 16.8238 11.2037 17.1688 11.7035 17.4881C12.3703 17.914 13.272 17.8052 13.847 17.2296L15.6027 15.4742L19.6383 19.5092L18.0482 21.0987C17.022 22.1253 15.4785 22.4289 14.2074 21.8545C7.44838 18.8 3.93133 13.6215 2.17107 9.81507C1.56663 8.50804 1.85684 6.93362 2.89329 5.89734L4.4595 4.33082L8.49505 8.36603L6.73917 10.1217C6.16365 10.6973 6.0552 11.599 6.48119 12.2655C6.78625 12.7428 7.11469 13.2049 7.46531 13.6499C7.61217 13.8364 7.8824 13.8684 8.06872 13.7214C8.2552 13.5745 8.28726 13.3043 8.14022 13.118C7.80716 12.6952 7.49515 12.2562 7.2053 11.8027C6.99484 11.4734 7.05439 11.0221 7.34697 10.7295L9.40664 8.66986C9.5743 8.50198 9.57448 8.2299 9.40664 8.06207L4.76342 3.41924C4.59563 3.25153 4.32355 3.25153 4.15567 3.41924L2.28554 5.2895C0.995483 6.57947 0.636092 8.54319 1.3911 10.1759C3.89721 15.5953 8.14443 20.0577 13.8536 22.6377C15.4579 23.3628 17.3864 22.9766 18.656 21.7065L20.5498 19.8132C20.7175 19.6453 20.7177 19.3731 20.5498 19.2054L15.9067 14.5626Z" fill="#F4F4F4"/>
</g>
<defs>
<clipPath id="clip0_617_2353">
<rect width="24" height="24" fill="white" transform="translate(0 0.000976562)"/>
</clipPath>
</defs>
</svg>
