<svg width="24" height="24" viewBox="0 0 24 24" fill="none" xmlns="http://www.w3.org/2000/svg">
<path d="M18.0738 16.8894C18.0157 16.8894 17.9587 16.8742 17.9082 16.8455C17.8578 16.8168 17.8157 16.7755 17.786 16.7256C17.7564 16.6757 17.7402 16.619 17.7391 16.5609C17.738 16.5029 17.7519 16.4456 17.7796 16.3946C19.156 13.8583 19.8539 11.4588 19.8539 9.26287C19.8539 5.07665 16.4481 1.67094 12.2619 1.67094C11.7545 1.67094 11.2472 1.72125 10.7543 1.82058C10.6678 1.8367 10.5784 1.81813 10.5054 1.76888C10.4325 1.71962 10.3819 1.64364 10.3645 1.55735C10.3471 1.47107 10.3644 1.38141 10.4126 1.30776C10.4608 1.23411 10.536 1.18239 10.6221 1.16377C11.1619 1.05541 11.7112 1.00088 12.2619 1.00098C16.8175 1.00098 20.5238 4.70726 20.5238 9.26287C20.5238 11.5717 19.7986 14.0786 18.3684 16.7141C18.3397 16.7672 18.2971 16.8115 18.2452 16.8423C18.1934 16.8732 18.1341 16.8895 18.0738 16.8894ZM12.2619 24.001C11.9065 24.001 11.5738 23.8609 11.3252 23.6066C10.3697 22.6291 8.52943 20.6086 6.94009 18.0594C4.98922 14.9304 4 11.9709 4 9.26287C4 5.93493 5.98061 2.94686 9.04589 1.65037C9.12772 1.61575 9.21995 1.61506 9.30228 1.64844C9.38462 1.68182 9.45032 1.74654 9.48494 1.82837C9.51955 1.9102 9.52025 2.00242 9.48687 2.08476C9.45348 2.16709 9.38876 2.2328 9.30694 2.26741C6.49006 3.45883 4.66996 6.20468 4.66996 9.26287C4.66996 15.3654 10.1307 21.4261 11.8043 23.1383C11.9258 23.2626 12.0883 23.331 12.2619 23.331C12.4355 23.331 12.598 23.2626 12.7195 23.1383C13.6494 22.187 15.441 20.2209 16.9922 17.7417C17.0399 17.6676 17.1148 17.6152 17.2009 17.5959C17.2869 17.5767 17.377 17.5921 17.4518 17.6388C17.5265 17.6856 17.5798 17.7599 17.6001 17.8457C17.6204 17.9315 17.6061 18.0218 17.5602 18.0971C15.9756 20.6295 14.1473 22.636 13.1986 23.6066C12.95 23.8609 12.6173 24.001 12.2619 24.001Z" fill="#F4F4F4"/>
<path d="M12.262 13.0368C11.4078 13.0368 10.5993 12.762 9.92407 12.242C9.88922 12.2152 9.85999 12.1818 9.83806 12.1436C9.81613 12.1055 9.80192 12.0634 9.79625 12.0198C9.79058 11.9762 9.79356 11.9319 9.80502 11.8894C9.81648 11.8469 9.83619 11.8071 9.86303 11.7723C9.88986 11.7374 9.9233 11.7082 9.96143 11.6862C9.99956 11.6643 10.0416 11.6501 10.0853 11.6444C10.1289 11.6388 10.1732 11.6417 10.2157 11.6532C10.2581 11.6647 10.2979 11.6844 10.3328 11.7112C10.8898 12.1401 11.557 12.3668 12.2621 12.3668C14.0076 12.3668 15.4276 10.9468 15.4276 9.20129C15.4276 7.4558 14.0076 6.03569 12.262 6.03569C10.5165 6.03569 9.09648 7.45576 9.09648 9.20124C9.09648 9.68896 9.20434 10.1566 9.41709 10.5911C9.455 10.6708 9.45997 10.7622 9.43091 10.8455C9.40186 10.9288 9.34112 10.9972 9.26189 11.036C9.18266 11.0748 9.09132 11.0808 9.00771 11.0526C8.92411 11.0245 8.85497 10.9645 8.81531 10.8857C8.55733 10.3587 8.42651 9.79197 8.42651 9.20124C8.42651 7.08632 10.1471 5.36572 12.262 5.36572C14.377 5.36572 16.0976 7.08632 16.0976 9.20124C16.0976 11.3162 14.377 13.0368 12.262 13.0368Z" fill="#F4F4F4"/>
</svg>
