<svg width="24" height="24" viewBox="0 0 24 24" fill="none" xmlns="http://www.w3.org/2000/svg">
<path d="M1.44231 16.3858C1.55961 16.3858 1.67212 16.3392 1.75507 16.2562C1.83802 16.1733 1.88462 16.0608 1.88462 15.9435V14.1742C1.88462 14.0569 1.83802 13.9444 1.75507 13.8615C1.67212 13.7785 1.55961 13.7319 1.44231 13.7319C1.325 13.7319 1.2125 13.7785 1.12955 13.8615C1.0466 13.9444 1 14.0569 1 14.1742V15.9435C1 16.0608 1.0466 16.1733 1.12955 16.2562C1.2125 16.3392 1.325 16.3858 1.44231 16.3858Z" fill="#F4F4F4"/>
<path d="M21.7885 4.00098H3.21154C2.625 4.00098 2.06249 4.23398 1.64774 4.64872C1.233 5.06347 1 5.62598 1 6.21251V12.4048C1 12.5221 1.0466 12.6346 1.12955 12.7176C1.2125 12.8005 1.325 12.8471 1.44231 12.8471C1.55961 12.8471 1.67212 12.8005 1.75507 12.7176C1.83802 12.6346 1.88462 12.5221 1.88462 12.4048V6.21251C1.88708 5.90704 1.99488 5.61177 2.18981 5.37655L10.9342 14.121C11.1397 14.3269 11.3837 14.4903 11.6524 14.6018C11.9211 14.7133 12.2091 14.7707 12.5 14.7707C12.7909 14.7707 13.0789 14.7133 13.3476 14.6018C13.6163 14.4903 13.8603 14.3269 14.0658 14.121L22.8102 5.37655C23.0051 5.61177 23.1129 5.90704 23.1154 6.21251V18.5971C23.1154 18.9491 22.9756 19.2866 22.7267 19.5354C22.4779 19.7843 22.1404 19.9241 21.7885 19.9241H3.21154C2.85962 19.9241 2.52211 19.7843 2.27326 19.5354C2.02442 19.2866 1.88462 18.9491 1.88462 18.5971V17.7125C1.88462 17.5952 1.83802 17.4827 1.75507 17.3998C1.67212 17.3168 1.55961 17.2702 1.44231 17.2702C1.325 17.2702 1.2125 17.3168 1.12955 17.3998C1.0466 17.4827 1 17.5952 1 17.7125V18.5971C1 19.1837 1.233 19.7462 1.64774 20.1609C2.06249 20.5757 2.625 20.8087 3.21154 20.8087H21.7885C22.375 20.8087 22.9375 20.5757 23.3523 20.1609C23.767 19.7462 24 19.1837 24 18.5971V6.21251C24 5.62598 23.767 5.06347 23.3523 4.64872C22.9375 4.23398 22.375 4.00098 21.7885 4.00098ZM13.4377 13.4929C13.1889 13.7414 12.8516 13.881 12.5 13.881C12.1484 13.881 11.8111 13.7414 11.5623 13.4929L2.97712 4.90771C3.05447 4.89356 3.1329 4.88616 3.21154 4.88559H21.7885C21.8671 4.88616 21.9455 4.89356 22.0229 4.90771L13.4377 13.4929Z" fill="#F4F4F4"/>
</svg>
