<svg width="56" height="57" viewBox="0 0 56 57" fill="none" xmlns="http://www.w3.org/2000/svg">
<mask id="mask0_811_1671" style="mask-type:alpha" maskUnits="userSpaceOnUse" x="0" y="0" width="56" height="57">
<rect y="0.713257" width="56" height="56" fill="#D9D9D9"/>
</mask>
<g mask="url(#mask0_811_1671)">
<path opacity="0.7" d="M1.07983 28.5379C1.07983 27.4194 1.06608 26.3559 1.09817 25.2939C1.09817 25.1625 1.33654 24.9883 1.50004 24.9195C2.61091 24.4718 3.72637 24.0302 4.86169 23.6238C5.02169 23.5758 5.16493 23.4837 5.27494 23.3581C5.38495 23.2324 5.45726 23.0782 5.48359 22.9133C5.97127 20.9911 6.73671 19.1503 7.75575 17.449C7.84779 17.3205 7.90178 17.1686 7.9115 17.0108C7.92123 16.8529 7.88631 16.6956 7.81076 16.5567C7.30499 15.4687 6.83895 14.3624 6.33623 13.2745C6.19871 12.9689 6.19564 12.784 6.45235 12.5334C7.8948 11.1184 9.32095 9.68924 10.7308 8.24577C10.9967 7.97531 11.2045 7.97836 11.5223 8.12658C12.6103 8.63235 13.715 9.0984 14.803 9.60265C14.935 9.67221 15.0836 9.70389 15.2325 9.69418C15.3814 9.68447 15.5246 9.63375 15.6465 9.54764C17.3637 8.51794 19.2227 7.74571 21.1642 7.2556C21.3197 7.22857 21.4645 7.15836 21.582 7.05299C21.6995 6.94762 21.785 6.81133 21.8288 6.65968C22.2964 5.39295 22.7961 4.13997 23.2896 2.86713C25.5282 2.86713 27.7392 2.86713 29.9503 2.88546C30.1031 2.88546 30.3109 3.11313 30.3781 3.28121C30.8457 4.4257 31.2674 5.59006 31.7426 6.73149C31.7965 6.84251 31.872 6.94171 31.9646 7.02329C32.0572 7.10488 32.1651 7.16722 32.282 7.2067C34.2176 7.71434 36.0742 8.48557 37.7997 9.49874C37.9525 9.60513 38.1325 9.66556 38.3186 9.67287C38.5046 9.68018 38.6888 9.63407 38.8495 9.54C39.9191 9.03422 41.0086 8.58957 42.0782 8.09144C42.3716 7.95544 42.5458 7.99364 42.7673 8.21826C44.1869 9.65613 45.614 11.0894 47.058 12.4967C47.33 12.7641 47.3269 12.978 47.1818 13.2913C46.6806 14.3808 46.1809 15.4718 45.7302 16.5811C45.6471 16.8531 45.6645 17.1459 45.7791 17.4063C46.349 18.7127 46.9709 19.9963 47.5409 21.3012C47.5723 21.4051 47.5779 21.5151 47.5571 21.6216C47.5363 21.7281 47.4898 21.8279 47.4217 21.9124C45.3329 23.6696 44.8103 25.7661 45.8646 28.298C45.8837 28.3636 45.898 28.4305 45.9074 28.4982H41.2286C41.1644 27.8442 41.1217 27.1871 41.033 26.5362C40.0047 19.0351 33.2844 13.5923 25.7528 14.1592C19.2755 14.6451 14.0023 19.217 12.6408 25.5246C12.5247 26.0579 11.643 26.5347 11.1434 26.3223C10.5322 26.061 9.92096 25.7966 9.31892 25.5048C9.03165 25.3657 8.8483 25.4024 8.62521 25.6331C7.77563 26.5102 6.9077 27.3674 6.03826 28.2308C5.90838 28.3576 5.73265 28.5211 5.57985 28.5241C4.10225 28.5455 2.62008 28.5379 1.07983 28.5379Z" fill="#E1890F"/>
<path d="M25.9638 49.3862C25.5622 49.2353 25.1712 49.0576 24.7933 48.8545C24.1454 48.4526 23.5847 48.4832 22.9123 48.8743C22.24 49.2655 21.4668 49.4443 20.7517 49.7514C20.5399 49.8423 20.3642 50.0008 20.252 50.2022C20.0152 50.6973 19.8655 51.2367 19.6286 51.7302C19.5787 51.8184 19.5095 51.8942 19.4261 51.9519C19.3427 52.0096 19.2474 52.0477 19.1473 52.0633C18.1571 52.0954 17.1608 52.0954 16.1753 52.0633C16.0087 52.0633 15.7352 51.8662 15.7062 51.7211C15.4158 50.3153 14.6075 49.4703 13.1742 49.2457C13.0421 49.2262 12.917 49.1737 12.8106 49.0929C11.8938 48.3502 10.977 48.4817 10.0601 49.0929C9.54519 49.4367 9.16777 49.3343 8.76285 48.8652C8.22957 48.2463 7.62293 47.6886 7.03159 47.1202C6.81308 46.9108 6.72598 46.7351 6.87878 46.431C7.16605 45.8534 7.6046 45.2514 7.60765 44.6585C7.60765 44.0947 7.13396 43.5309 6.87267 42.964C6.7859 42.8158 6.723 42.6549 6.68625 42.4872C6.56554 41.3886 5.8871 40.837 4.87096 40.6444C4.14209 40.5069 3.96333 40.0959 4.02139 39.4006C4.08862 38.606 4.02138 37.8008 4.05194 37.0016C4.05194 36.832 4.23531 36.5524 4.37588 36.5234C5.79694 36.2177 6.66793 35.4186 6.88949 33.9563C6.90433 33.8614 6.94326 33.772 7.00256 33.6965C7.79255 32.7079 7.62294 31.7238 6.98576 30.7489C6.70766 30.3226 6.79016 30.0201 7.16758 29.6793C7.80324 29.1063 8.39001 28.4844 8.98899 27.8656C9.21361 27.6303 9.41377 27.508 9.7209 27.7128C10.8379 28.4508 11.9472 28.5944 13.0933 27.7357C13.3955 27.5332 13.7418 27.4058 14.1033 27.3644C14.8062 27.262 15.0889 26.8372 15.3058 26.2061C15.7765 24.8309 15.8116 24.8493 17.2693 24.8523C17.9921 24.8523 18.8722 24.6185 19.3933 24.9471C19.8792 25.2527 19.9693 26.1695 20.2658 26.8036C20.3607 26.9755 20.5102 27.111 20.6906 27.1887C21.6298 27.5961 22.5762 27.9888 23.5296 28.3668C23.7153 28.4277 23.9155 28.4277 24.1011 28.3668C24.4219 28.2476 24.7361 28.1114 25.0424 27.9588C25.9867 27.5355 25.9867 27.5355 26.7003 28.2491C27.2397 28.7885 27.7974 29.3111 28.3062 29.8765C28.3695 29.9658 28.4121 30.0681 28.4309 30.1759C28.4496 30.2838 28.4441 30.3944 28.4147 30.4999C28.1962 31.1111 27.7118 31.6872 27.7073 32.2816C27.7073 32.8439 28.1764 33.4092 28.4361 33.9746C28.523 34.1227 28.5859 34.2836 28.6225 34.4514C28.7448 35.579 29.4492 36.1169 30.4867 36.3171C31.1438 36.4439 31.3516 36.8121 31.2951 37.4768C31.2487 38.2757 31.2451 39.0765 31.2844 39.8758C31.2844 40.1814 31.2385 40.3984 30.9054 40.4641C29.5302 40.733 28.6546 41.4864 28.4514 42.9258C28.429 43.078 28.3674 43.2217 28.2726 43.3429C27.5086 44.2597 27.6859 45.1765 28.2726 46.0796C28.6195 46.6052 28.4927 46.9781 28.0312 47.3799C27.42 47.9163 26.8638 48.529 26.2816 49.1051C26.1945 49.2029 26.0753 49.2915 25.9638 49.3862ZM17.6712 45.0146C19.4053 45.0146 21.0684 44.3257 22.2946 43.0995C23.5207 41.8733 24.2096 40.2103 24.2096 38.4762C24.2127 37.6132 24.0447 36.7583 23.7153 35.9607C23.386 35.1631 22.9019 34.4387 22.2909 33.8293C21.68 33.2199 20.9543 32.7376 20.1558 32.4103C19.3574 32.083 18.502 31.9172 17.6391 31.9225C16.78 31.9251 15.9297 32.0972 15.1373 32.4291C14.3448 32.761 13.6256 33.2461 13.021 33.8565C12.4164 34.467 11.9382 35.1907 11.614 35.9864C11.2897 36.782 11.1256 37.6338 11.1313 38.493C11.1341 40.2249 11.8246 41.8848 13.051 43.1078C14.2774 44.3307 15.9393 45.0166 17.6712 45.0146Z" fill="#E1890F"/>
<path d="M46.4957 29.3447L47.9107 30.4999C47.1467 31.4167 46.3979 32.3641 45.5988 33.2672C45.446 33.4337 45.1128 33.4964 44.8638 33.4964C40.4621 33.5096 36.0598 33.5096 31.6571 33.4964C30.9802 33.4964 30.5875 33.1342 30.6043 32.5612C30.6211 31.9882 30.9893 31.6719 31.6907 31.6704C35.7889 31.6704 39.8855 31.6612 43.9837 31.6795C44.1789 31.6953 44.3748 31.6592 44.5516 31.575C44.7284 31.4907 44.8799 31.3613 44.9906 31.1997C45.4689 30.5702 45.9899 29.9666 46.4957 29.3447Z" fill="#E1890F"/>
<path d="M52.7805 41.6651C52.3607 41.6665 51.9448 41.5849 51.5567 41.4249C51.1686 41.2649 50.816 41.0297 50.5192 40.7329C50.2223 40.4361 49.9872 40.0834 49.8272 39.6953C49.6672 39.3072 49.5855 38.8913 49.5869 38.4716C49.5845 37.6231 49.9181 36.8083 50.5149 36.2052C51.1116 35.6022 51.9229 35.26 52.7713 35.2535C53.1961 35.2531 53.6167 35.3366 54.0091 35.4992C54.4016 35.6618 54.758 35.9003 55.058 36.201C55.358 36.5017 55.5956 36.8587 55.7573 37.2515C55.919 37.6443 56.0014 38.0651 56 38.4899C55.9972 38.9098 55.9117 39.3251 55.7484 39.7119C55.5851 40.0988 55.3471 40.4497 55.0481 40.7445C54.7492 41.0394 54.395 41.2725 54.0059 41.4304C53.6168 41.5884 53.2004 41.6681 52.7805 41.6651Z" fill="#E1890F"/>
<path opacity="0.5" d="M47.1666 50.9051C47.1637 50.4853 47.2441 50.0691 47.4031 49.6805C47.562 49.2919 47.7963 48.9387 48.0926 48.6412C48.3888 48.3437 48.741 48.1078 49.1289 47.9472C49.5168 47.7866 49.9327 47.7044 50.3525 47.7054C50.7776 47.703 51.199 47.7851 51.5922 47.9468C51.9853 48.1086 52.3424 48.3469 52.6426 48.6479C52.9429 48.9489 53.1803 49.3065 53.3412 49.7C53.5021 50.0936 53.5831 50.5151 53.5797 50.9403C53.5664 51.7886 53.2198 52.5976 52.6147 53.1924C52.0097 53.7871 51.1948 54.1199 50.3464 54.1185C49.9266 54.1163 49.5114 54.0315 49.1244 53.8688C48.7374 53.7061 48.3862 53.4688 48.0909 53.1704C47.7957 52.872 47.5621 52.5184 47.4035 52.1297C47.2449 51.741 47.1644 51.3249 47.1666 50.9051Z" fill="#E1890F"/>
<path opacity="0.5" d="M47.1649 26.0381C47.1584 25.19 47.4888 24.374 48.0837 23.7695C48.6785 23.1649 49.489 22.8212 50.3371 22.814C51.1949 22.8136 52.0179 23.1531 52.626 23.7583C53.234 24.3634 53.5774 25.1848 53.5811 26.0427C53.5718 26.8907 53.2286 27.7009 52.6259 28.2976C52.0232 28.8943 51.2096 29.2294 50.3615 29.2301C49.9416 29.2321 49.5253 29.151 49.1369 28.9914C48.7485 28.8317 48.3955 28.5967 48.0983 28.3C47.8011 28.0032 47.5656 27.6506 47.4054 27.2624C47.2452 26.8742 47.1635 26.4581 47.1649 26.0381Z" fill="#E1890F"/>
<path d="M47.9062 46.4433C47.4172 46.8405 46.9894 47.1874 46.5034 47.5862C46.045 47.03 45.5331 46.4769 45.1068 45.8641C44.7707 45.3843 44.3764 45.2529 43.8141 45.2606C39.8688 45.2835 35.9249 45.2728 31.9811 45.2713C31.7525 45.2795 31.5237 45.2647 31.2981 45.2269C30.8137 45.1261 30.5937 44.7823 30.6135 44.3101C30.6334 43.838 30.8764 43.5201 31.3775 43.4605C31.567 43.4425 31.7573 43.4358 31.9475 43.4407C36.1587 43.4407 40.3699 43.4483 44.5812 43.4285C45.2107 43.4285 45.663 43.6057 46.0435 44.1176C46.6287 44.9106 47.2736 45.6609 47.9062 46.4433Z" fill="#E1890F"/>
<path opacity="0.5" d="M47.773 37.57V39.3349C47.6401 39.3471 47.4965 39.3746 47.3513 39.3746C43.1752 39.3746 38.9991 39.3746 34.8215 39.3655C34.5358 39.3655 34.1645 39.3028 33.9903 39.1194C33.8893 39.0018 33.8149 38.8638 33.7719 38.7149C33.7289 38.5659 33.7185 38.4095 33.7412 38.2561C33.8039 37.9979 34.1186 37.784 34.3524 37.5975C34.4533 37.5181 34.6473 37.5471 34.7986 37.5471H47.3284C47.4644 37.5471 47.5943 37.5609 47.773 37.57Z" fill="#E1890F"/>
</g>
</svg>
