<svg width="79" height="265" viewBox="0 0 79 265" fill="none" xmlns="http://www.w3.org/2000/svg">
<g clip-path="url(#clip0_61_5151)">
<mask id="mask0_61_5151" style="mask-type:luminance" maskUnits="userSpaceOnUse" x="-1" y="0" width="266" height="265">
<path d="M225.638 226.175C277.257 174.434 277.257 90.5462 225.638 38.8056C174.018 -12.9351 90.3267 -12.9351 38.7073 38.8056C-12.9122 90.5462 -12.9122 174.434 38.7073 226.175C90.3267 277.916 174.018 277.916 225.638 226.175Z" fill="white"/>
</mask>
<g mask="url(#mask0_61_5151)">
<path d="M146.021 257.14H-15.2335C-16.7431 257.14 -17.9783 255.921 -17.9783 254.388C-17.9783 252.856 -16.7627 251.637 -15.2335 251.637H146.021C147.531 251.637 148.766 252.856 148.766 254.388C148.766 255.921 147.551 257.14 146.021 257.14Z" fill="#E08812"/>
<path d="M146.021 238.392H-15.2335C-16.7431 238.392 -17.9783 237.174 -17.9783 235.641C-17.9783 234.108 -16.7627 232.89 -15.2335 232.89H146.021C147.531 232.89 148.766 234.108 148.766 235.641C148.766 237.174 147.551 238.392 146.021 238.392Z" fill="#E08812"/>
<path d="M146.021 219.645H-15.2335C-16.7431 219.645 -17.9783 218.426 -17.9783 216.894C-17.9783 215.361 -16.7627 214.142 -15.2335 214.142H146.021C147.531 214.142 148.766 215.361 148.766 216.894C148.766 218.426 147.551 219.645 146.021 219.645Z" fill="#E08812"/>
<path d="M146.021 200.877H-15.2335C-16.7431 200.877 -17.9783 199.659 -17.9783 198.126C-17.9783 196.593 -16.7627 195.375 -15.2335 195.375H146.021C147.531 195.375 148.766 196.593 148.766 198.126C148.766 199.659 147.551 200.877 146.021 200.877Z" fill="#E08812"/>
<path d="M146.021 182.13H-15.2335C-16.7431 182.13 -17.9783 180.911 -17.9783 179.379C-17.9783 177.846 -16.7627 176.627 -15.2335 176.627H146.021C147.531 176.627 148.766 177.846 148.766 179.379C148.766 180.911 147.551 182.13 146.021 182.13Z" fill="#E08812"/>
<path d="M146.021 163.363H-15.2335C-16.7431 163.363 -17.9783 162.144 -17.9783 160.612C-17.9783 159.079 -16.7627 157.86 -15.2335 157.86H146.021C147.531 157.86 148.766 159.079 148.766 160.612C148.766 162.144 147.551 163.363 146.021 163.363Z" fill="#E08812"/>
<path d="M146.021 144.615H-15.2335C-16.7431 144.615 -17.9783 143.397 -17.9783 141.864C-17.9783 140.331 -16.7627 139.113 -15.2335 139.113H146.021C147.531 139.113 148.766 140.331 148.766 141.864C148.766 143.397 147.551 144.615 146.021 144.615Z" fill="#E08812"/>
<path d="M146.021 125.868H-15.2335C-16.7431 125.868 -17.9783 124.649 -17.9783 123.116C-17.9783 121.584 -16.7627 120.365 -15.2335 120.365H146.021C147.531 120.365 148.766 121.584 148.766 123.116C148.766 124.649 147.551 125.868 146.021 125.868Z" fill="#E08812"/>
<path d="M146.021 107.101H-15.2335C-16.7431 107.101 -17.9783 105.882 -17.9783 104.349C-17.9783 102.817 -16.7627 101.598 -15.2335 101.598H146.021C147.531 101.598 148.766 102.817 148.766 104.349C148.766 105.882 147.551 107.101 146.021 107.101Z" fill="#E08812"/>
<path d="M146.021 88.353H-15.2335C-16.7431 88.353 -17.9783 87.1346 -17.9783 85.6018C-17.9783 84.069 -16.7627 82.8506 -15.2335 82.8506H146.021C147.531 82.8506 148.766 84.069 148.766 85.6018C148.766 87.1346 147.551 88.353 146.021 88.353Z" fill="#E08812"/>
<path d="M146.021 69.6057H-15.2335C-16.7431 69.6057 -17.9783 68.3873 -17.9783 66.8545C-17.9783 65.3217 -16.7627 64.1033 -15.2335 64.1033H146.021C147.531 64.1033 148.766 65.3217 148.766 66.8545C148.766 68.3873 147.551 69.6057 146.021 69.6057Z" fill="#E08812"/>
<path d="M146.021 50.8383H-15.2335C-16.7431 50.8383 -17.9783 49.62 -17.9783 48.0871C-17.9783 46.5543 -16.7627 45.3359 -15.2335 45.3359H146.021C147.531 45.3359 148.766 46.5543 148.766 48.0871C148.766 49.62 147.551 50.8383 146.021 50.8383Z" fill="#E08812"/>
<path d="M146.021 32.091H-15.2335C-16.7431 32.091 -17.9783 30.8726 -17.9783 29.3398C-17.9783 27.807 -16.7627 26.5886 -15.2335 26.5886H146.021C147.531 26.5886 148.766 27.807 148.766 29.3398C148.766 30.8726 147.551 32.091 146.021 32.091Z" fill="#E08812"/>
<path d="M146.021 13.3435H-15.2335C-16.7431 13.3435 -17.9783 12.1251 -17.9783 10.5923C-17.9783 9.05946 -16.7627 7.84106 -15.2335 7.84106H146.021C147.531 7.84106 148.766 9.05946 148.766 10.5923C148.766 12.1251 147.551 13.3435 146.021 13.3435Z" fill="#E08812"/>
</g>
</g>
<defs>
<clipPath id="clip0_61_5151">
<rect width="79" height="265" fill="white"/>
</clipPath>
</defs>
</svg>
