<svg width="49" height="265" viewBox="0 0 49 265" fill="none" xmlns="http://www.w3.org/2000/svg">
<g clip-path="url(#clip0_61_5131)">
<mask id="mask0_61_5131" style="mask-type:luminance" maskUnits="userSpaceOnUse" x="-216" y="0" width="266" height="265">
<path d="M-176.638 226.175C-228.257 174.434 -228.257 90.5462 -176.638 38.8056C-125.018 -12.9351 -41.3267 -12.9351 10.2927 38.8056C61.9122 90.5462 61.9122 174.434 10.2927 226.175C-41.3267 277.916 -125.018 277.916 -176.638 226.175Z" fill="white"/>
</mask>
<g mask="url(#mask0_61_5131)">
<path d="M-97.0213 257.139H64.2335C65.7431 257.139 66.9783 255.921 66.9783 254.388C66.9783 252.855 65.7627 251.637 64.2335 251.637H-97.0213C-98.5309 251.637 -99.7661 252.855 -99.7661 254.388C-99.7661 255.921 -98.5505 257.139 -97.0213 257.139Z" fill="#E08812"/>
<path d="M-97.0213 238.392H64.2335C65.7431 238.392 66.9783 237.173 66.9783 235.641C66.9783 234.108 65.7627 232.889 64.2335 232.889H-97.0213C-98.5309 232.889 -99.7661 234.108 -99.7661 235.641C-99.7661 237.173 -98.5505 238.392 -97.0213 238.392Z" fill="#E08812"/>
<path d="M-97.0213 219.644H64.2335C65.7431 219.644 66.9783 218.426 66.9783 216.893C66.9783 215.36 65.7627 214.142 64.2335 214.142H-97.0213C-98.5309 214.142 -99.7661 215.36 -99.7661 216.893C-99.7661 218.426 -98.5505 219.644 -97.0213 219.644Z" fill="#E08812"/>
<path d="M-97.0213 200.877H64.2335C65.7431 200.877 66.9783 199.659 66.9783 198.126C66.9783 196.593 65.7627 195.375 64.2335 195.375H-97.0213C-98.5309 195.375 -99.7661 196.593 -99.7661 198.126C-99.7661 199.659 -98.5505 200.877 -97.0213 200.877Z" fill="#E08812"/>
<path d="M-97.0213 182.13H64.2335C65.7431 182.13 66.9783 180.911 66.9783 179.378C66.9783 177.846 65.7627 176.627 64.2335 176.627H-97.0213C-98.5309 176.627 -99.7661 177.846 -99.7661 179.378C-99.7661 180.911 -98.5505 182.13 -97.0213 182.13Z" fill="#E08812"/>
<path d="M-97.0213 163.363H64.2335C65.7431 163.363 66.9783 162.144 66.9783 160.612C66.9783 159.079 65.7627 157.86 64.2335 157.86H-97.0213C-98.5309 157.86 -99.7661 159.079 -99.7661 160.612C-99.7661 162.144 -98.5505 163.363 -97.0213 163.363Z" fill="#E08812"/>
<path d="M-97.0213 144.615H64.2335C65.7431 144.615 66.9783 143.397 66.9783 141.864C66.9783 140.331 65.7627 139.113 64.2335 139.113H-97.0213C-98.5309 139.113 -99.7661 140.331 -99.7661 141.864C-99.7661 143.397 -98.5505 144.615 -97.0213 144.615Z" fill="#E08812"/>
<path d="M-97.0213 125.867H64.2335C65.7431 125.867 66.9783 124.649 66.9783 123.116C66.9783 121.583 65.7627 120.365 64.2335 120.365H-97.0213C-98.5309 120.365 -99.7661 121.583 -99.7661 123.116C-99.7661 124.649 -98.5505 125.867 -97.0213 125.867Z" fill="#E08812"/>
<path d="M-97.0213 107.1H64.2335C65.7431 107.1 66.9783 105.882 66.9783 104.349C66.9783 102.816 65.7627 101.598 64.2335 101.598H-97.0213C-98.5309 101.598 -99.7661 102.816 -99.7661 104.349C-99.7661 105.882 -98.5505 107.1 -97.0213 107.1Z" fill="#E08812"/>
<path d="M-97.0213 88.3528H64.2335C65.7431 88.3528 66.9783 87.1344 66.9783 85.6015C66.9783 84.0687 65.7627 82.8503 64.2335 82.8503H-97.0213C-98.5309 82.8503 -99.7661 84.0687 -99.7661 85.6015C-99.7661 87.1344 -98.5505 88.3528 -97.0213 88.3528Z" fill="#E08812"/>
<path d="M-97.0213 69.6054H64.2335C65.7431 69.6054 66.9783 68.387 66.9783 66.8542C66.9783 65.3214 65.7627 64.103 64.2335 64.103H-97.0213C-98.5309 64.103 -99.7661 65.3214 -99.7661 66.8542C-99.7661 68.387 -98.5505 69.6054 -97.0213 69.6054Z" fill="#E08812"/>
<path d="M-97.0213 50.8383H64.2335C65.7431 50.8383 66.9783 49.62 66.9783 48.0871C66.9783 46.5543 65.7627 45.3359 64.2335 45.3359H-97.0213C-98.5309 45.3359 -99.7661 46.5543 -99.7661 48.0871C-99.7661 49.62 -98.5505 50.8383 -97.0213 50.8383Z" fill="#E08812"/>
<path d="M-97.0213 32.0908H64.2335C65.7431 32.0908 66.9783 30.8724 66.9783 29.3396C66.9783 27.8068 65.7627 26.5884 64.2335 26.5884H-97.0213C-98.5309 26.5884 -99.7661 27.8068 -99.7661 29.3396C-99.7661 30.8724 -98.5505 32.0908 -97.0213 32.0908Z" fill="#E08812"/>
<path d="M-97.0213 13.3432H64.2335C65.7431 13.3432 66.9783 12.1248 66.9783 10.592C66.9783 9.05921 65.7627 7.84082 64.2335 7.84082H-97.0213C-98.5309 7.84082 -99.7661 9.05921 -99.7661 10.592C-99.7661 12.1248 -98.5505 13.3432 -97.0213 13.3432Z" fill="#E08812"/>
</g>
</g>
<defs>
<clipPath id="clip0_61_5131">
<rect width="49" height="265" fill="white" transform="matrix(-1 0 0 1 49 0)"/>
</clipPath>
</defs>
</svg>
