<svg width="41" height="41" viewBox="0 0 41 41" fill="none" xmlns="http://www.w3.org/2000/svg">
<g clip-path="url(#clip0_577_2284)">
<path d="M20.6365 0.153809C16.6809 0.153809 12.8141 1.32679 9.52508 3.52442C6.2361 5.72204 3.67265 8.84562 2.15889 12.5001C0.64514 16.1547 0.249074 20.176 1.02078 24.0556C1.79248 27.9352 3.6973 31.4989 6.49435 34.2959C9.2914 37.093 12.8551 38.9978 16.7347 39.7695C20.6143 40.5412 24.6356 40.1452 28.2902 38.6314C31.9447 37.1176 35.0682 34.5542 37.2659 31.2652C39.4635 27.9762 40.6365 24.1094 40.6365 20.1538C40.6365 14.8495 38.5293 9.7624 34.7786 6.01167C31.0279 2.26095 25.9408 0.153809 20.6365 0.153809ZM14.8207 30.6801H10.4575V16.6249H14.8207V30.6801ZM12.6365 14.7064C12.1343 14.7085 11.6429 14.5617 11.2242 14.2845C10.8054 14.0073 10.4783 13.6122 10.2841 13.1491C10.0899 12.686 10.0374 12.1758 10.1331 11.6828C10.2288 11.1899 10.4686 10.7364 10.822 10.3797C11.1754 10.023 11.6266 9.77904 12.1186 9.67871C12.6107 9.57839 13.1214 9.62619 13.5862 9.81606C14.0511 10.0059 14.4492 10.3294 14.7303 10.7455C15.0114 11.1616 15.1628 11.6517 15.1654 12.1538C15.1668 12.8271 14.9016 13.4737 14.4277 13.952C13.9538 14.4303 13.3098 14.7016 12.6365 14.7064ZM31.1628 30.6801H26.8023V23.838C26.8023 22.2064 26.7707 20.1143 24.5339 20.1143C22.297 20.1143 21.9023 21.888 21.9023 23.7196V30.6801H17.5575V16.6249H21.7444V18.5407H21.8049C22.3865 17.4354 23.8102 16.2696 25.9339 16.2696C30.3496 16.2696 31.1628 19.1801 31.1628 22.9591V30.6801Z" fill="#F4F4F4"/>
</g>
<defs>
<clipPath id="clip0_577_2284">
<rect width="40" height="40" fill="white" transform="translate(0.636475 0.153809)"/>
</clipPath>
</defs>
</svg>
