<svg width="236" height="65" viewBox="0 0 236 65" fill="none" xmlns="http://www.w3.org/2000/svg">
<g clip-path="url(#clip0_61_3349)">
<path d="M115.301 24.2327C115.325 25.8302 115.035 27.4168 114.448 28.9025C113.904 30.2473 113.071 31.456 112.008 32.4429C110.881 33.4607 109.555 34.2334 108.114 34.7123C106.334 35.2813 104.473 35.5516 102.605 35.5124H98.6787V47.9428C98.6812 48.0773 98.6403 48.2089 98.5618 48.3181C98.4639 48.4367 98.3335 48.524 98.1865 48.5695C97.9565 48.647 97.7193 48.7016 97.4785 48.7323C96.7433 48.8173 96.0008 48.8173 95.2657 48.7323C95.0252 48.6996 94.7882 48.6451 94.5576 48.5695C94.4097 48.5282 94.2793 48.44 94.1859 48.3181C94.1111 48.2075 94.0727 48.0763 94.0761 47.9428V16.0791C94.0761 15.3711 94.2638 14.8612 94.6391 14.5568C94.9904 14.2627 95.4342 14.1022 95.8924 14.1036H103.281C104.029 14.1036 104.746 14.1343 105.43 14.1956C106.247 14.2815 107.058 14.4151 107.859 14.5957C108.863 14.8299 109.826 15.2168 110.713 15.7428C111.656 16.2782 112.495 16.9785 113.191 17.8104C113.879 18.6516 114.408 19.6115 114.752 20.6427C115.132 21.8009 115.317 23.014 115.301 24.2327ZM110.461 24.608C110.507 23.38 110.236 22.1609 109.675 21.0676C109.226 20.1994 108.554 19.4662 107.728 18.9433C106.993 18.4971 106.177 18.1988 105.328 18.0653C104.528 17.943 103.721 17.8803 102.913 17.8777H98.6645V31.7561H102.803C103.977 31.7914 105.147 31.6102 106.255 31.2215C107.127 30.9007 107.92 30.3946 108.578 29.738C109.208 29.0941 109.691 28.321 109.994 27.4722C110.315 26.5519 110.473 25.5826 110.461 24.608Z" fill="#221F1F"/>
<path d="M140.827 48.003C140.834 48.0945 140.818 48.1862 140.781 48.2701C140.744 48.354 140.687 48.4276 140.615 48.4845C140.438 48.6061 140.238 48.6883 140.027 48.7253C139.666 48.7867 139.299 48.8128 138.933 48.8031C138.563 48.8108 138.194 48.7847 137.828 48.7253C137.611 48.6964 137.404 48.6136 137.227 48.4845C137.161 48.4234 137.111 48.3484 137.078 48.2651C137.046 48.1817 137.032 48.0922 137.039 48.003V45.6026C136.044 46.6852 134.855 47.5725 133.534 48.219C132.257 48.836 130.856 49.1544 129.438 49.1501C128.275 49.1656 127.118 48.9996 126.007 48.658C125.049 48.3671 124.161 47.8854 123.394 47.2418C122.668 46.6131 122.094 45.829 121.712 44.9476C121.299 43.9692 121.096 42.9152 121.114 41.8533C121.079 40.6218 121.364 39.4022 121.939 38.3129C122.509 37.2995 123.326 36.4469 124.315 35.8346C125.481 35.123 126.763 34.622 128.103 34.3547C129.761 34.0084 131.451 33.8422 133.144 33.8591H136.455V31.9968C136.466 31.1696 136.367 30.3445 136.161 29.5433C135.99 28.8862 135.665 28.2793 135.212 27.7731C134.745 27.2839 134.163 26.9188 133.52 26.711C132.691 26.4526 131.825 26.333 130.957 26.3569C129.969 26.3444 128.985 26.4756 128.036 26.7464C127.259 26.9697 126.501 27.2551 125.77 27.5996C125.118 27.9112 124.576 28.1956 124.141 28.4529C123.852 28.6567 123.518 28.789 123.168 28.8388C123.035 28.8416 122.904 28.8046 122.792 28.7326C122.676 28.6495 122.58 28.5404 122.513 28.4139C122.425 28.242 122.366 28.0565 122.339 27.8652C122.302 27.6226 122.285 27.3776 122.286 27.1323C122.277 26.7757 122.309 26.4193 122.382 26.0702C122.46 25.7807 122.624 25.5216 122.853 25.3267C123.229 25.0037 123.646 24.73 124.092 24.5124C124.744 24.1741 125.422 23.8888 126.12 23.6591C126.934 23.3856 127.766 23.1691 128.609 23.0113C129.515 22.8425 130.435 22.7584 131.357 22.7599C132.847 22.7343 134.333 22.9385 135.761 23.3653C136.863 23.6953 137.87 24.2854 138.696 25.0859C139.464 25.8806 140.023 26.854 140.321 27.9183C140.68 29.1941 140.851 30.5157 140.827 31.841V48.003ZM136.455 37.0277H132.691C131.634 37.0122 130.578 37.1155 129.544 37.3358C128.755 37.4979 128.004 37.8053 127.328 38.2421C126.779 38.602 126.334 39.0987 126.035 39.683C125.749 40.2866 125.608 40.9484 125.621 41.6161C125.595 42.1681 125.688 42.7192 125.893 43.2322C126.098 43.7452 126.411 44.2083 126.811 44.5901C127.601 45.3288 128.708 45.6982 130.132 45.6982C131.263 45.7039 132.375 45.4003 133.346 44.8202C134.511 44.0802 135.558 43.171 136.455 42.1224V37.0277Z" fill="#221F1F"/>
<path d="M161.999 46.2151C162.009 46.6272 161.973 47.0392 161.893 47.4436C161.85 47.6906 161.74 47.9209 161.574 48.1092C161.387 48.2805 161.169 48.4161 160.933 48.5092C160.62 48.6454 160.294 48.7487 159.96 48.8173C159.606 48.8987 159.206 48.966 158.798 49.0191C158.391 49.0714 157.981 49.0974 157.57 49.0969C156.487 49.1208 155.409 48.9543 154.384 48.6048C153.537 48.3042 152.784 47.7895 152.196 47.1108C151.591 46.3738 151.166 45.5058 150.956 44.5758C150.679 43.3914 150.548 42.1774 150.567 40.9611V26.9269H147.207C147.071 26.9253 146.938 26.8844 146.824 26.809C146.71 26.7337 146.621 26.6271 146.566 26.5021C146.377 26.0652 146.294 25.5894 146.326 25.1142C146.32 24.8283 146.343 24.5426 146.393 24.261C146.428 24.0624 146.486 23.8687 146.566 23.6839C146.623 23.5504 146.721 23.4387 146.846 23.3652C146.965 23.3038 147.098 23.2722 147.232 23.2732H150.567V17.5625C150.565 17.4379 150.598 17.3152 150.663 17.2085C150.749 17.0815 150.873 16.9839 151.017 16.9288C151.233 16.8353 151.462 16.7767 151.696 16.7553C152.049 16.7164 152.404 16.6986 152.758 16.7022C153.124 16.698 153.489 16.7158 153.852 16.7553C154.084 16.7756 154.31 16.8343 154.522 16.9288C154.662 16.9901 154.784 17.0865 154.876 17.2085C154.946 17.3128 154.984 17.4364 154.982 17.5625V23.2732H161.146C161.276 23.2709 161.404 23.3026 161.517 23.3652C161.638 23.4438 161.735 23.5541 161.797 23.6839C161.887 23.8651 161.946 24.0602 161.971 24.261C162.01 24.5437 162.027 24.8289 162.024 25.1142C162.057 25.5895 161.974 26.0657 161.783 26.5021C161.729 26.6265 161.64 26.7327 161.527 26.8081C161.414 26.8834 161.281 26.9247 161.146 26.9269H154.957V40.3203C154.957 41.9725 155.201 43.2222 155.69 44.0696C156.179 44.9122 157.053 45.337 158.317 45.337C158.685 45.3408 159.052 45.3004 159.411 45.2167C159.733 45.1352 160.016 45.0503 160.264 44.9618C160.512 44.8732 160.728 44.7883 160.905 44.7104C161.055 44.6363 161.219 44.5953 161.386 44.59C161.475 44.5902 161.563 44.612 161.641 44.6537C161.731 44.714 161.796 44.8044 161.825 44.9086C161.881 45.0734 161.921 45.2429 161.946 45.4149C161.985 45.6798 162.002 45.9474 161.999 46.2151Z" fill="#221F1F"/>
<path d="M188.853 34.9318C188.853 35.6399 188.676 36.1178 188.329 36.4117C187.998 36.6987 187.574 36.8548 187.136 36.8507H171.324C171.307 38.0633 171.436 39.2735 171.71 40.4548C171.948 41.4588 172.406 42.3973 173.052 43.2022C173.702 43.9896 174.541 44.5988 175.491 44.9724C176.664 45.4133 177.911 45.6225 179.163 45.5884C180.189 45.599 181.214 45.5041 182.222 45.3052C183.008 45.1498 183.783 44.9404 184.541 44.6785C185.192 44.4425 185.728 44.2336 186.148 44.0519C186.445 43.8987 186.768 43.8038 187.1 43.7722C187.222 43.7686 187.341 43.8028 187.442 43.8701C187.543 43.9373 187.62 44.0342 187.663 44.1475C187.726 44.3138 187.766 44.4875 187.784 44.6644C187.811 44.9349 187.824 45.2067 187.823 45.4787C187.825 45.6796 187.816 45.8805 187.798 46.0805C187.78 46.2505 187.755 46.3992 187.731 46.5337C187.705 46.6583 187.66 46.7779 187.596 46.8878C187.531 47.0002 187.45 47.1028 187.355 47.1922C187.088 47.39 186.797 47.5518 186.488 47.6737C185.884 47.9402 185.26 48.1592 184.622 48.3287C183.747 48.5651 182.861 48.7565 181.967 48.9023C180.904 49.0739 179.829 49.158 178.752 49.1536C176.987 49.187 175.23 48.9077 173.562 48.3287C172.137 47.816 170.854 46.9741 169.816 45.8717C168.754 44.6975 167.975 43.2965 167.536 41.7754C166.987 39.9274 166.724 38.0065 166.754 36.0789C166.727 34.1944 166.997 32.3174 167.554 30.5169C168.029 28.9776 168.814 27.5522 169.862 26.3286C170.862 25.1839 172.107 24.2799 173.505 23.6839C175.018 23.0543 176.643 22.7422 178.281 22.7669C179.933 22.7212 181.574 23.0303 183.096 23.6733C184.356 24.2288 185.473 25.0628 186.364 26.1126C187.235 27.1696 187.876 28.3974 188.244 29.7168C188.653 31.1525 188.855 32.639 188.846 34.1317L188.853 34.9318ZM184.424 33.6325C184.478 31.317 183.964 29.502 182.88 28.1873C181.797 26.8726 180.191 26.2094 178.062 26.1976C177.07 26.1742 176.086 26.384 175.19 26.8101C174.392 27.1984 173.687 27.7538 173.123 28.4387C172.553 29.1409 172.117 29.9412 171.834 30.8001C171.526 31.7142 171.355 32.6685 171.324 33.6325H184.424Z" fill="#221F1F"/>
<path d="M213.961 47.472C214.084 47.6597 214.157 47.8752 214.174 48.0986C214.172 48.1832 214.148 48.2658 214.104 48.3379C214.06 48.4101 213.997 48.4692 213.923 48.5093C213.683 48.6396 213.419 48.718 213.147 48.7394C212.7 48.7869 212.251 48.8082 211.802 48.8032C211.267 48.8032 210.846 48.8032 210.534 48.7642C210.281 48.7496 210.03 48.7044 209.787 48.6297C209.628 48.584 209.481 48.5016 209.359 48.3889C209.26 48.2905 209.175 48.1784 209.108 48.0561L203.344 38.5324L197.608 48.0561C197.54 48.1786 197.454 48.2906 197.353 48.3889C197.232 48.5011 197.087 48.5835 196.929 48.6297C196.689 48.7039 196.442 48.7491 196.192 48.7642C195.891 48.7925 195.484 48.8032 194.992 48.8032C194.569 48.8081 194.145 48.7869 193.724 48.7394C193.474 48.7185 193.231 48.6398 193.016 48.5093C192.947 48.4668 192.89 48.406 192.853 48.3336C192.815 48.2612 192.798 48.1799 192.804 48.0986C192.833 47.8718 192.92 47.6562 193.055 47.472L200.515 35.7567L193.434 24.4735C193.314 24.2836 193.236 24.0697 193.208 23.8468C193.205 23.7603 193.226 23.6747 193.269 23.5993C193.311 23.5238 193.373 23.4613 193.448 23.4184C193.685 23.2826 193.951 23.2049 194.224 23.1918C194.578 23.1564 195.027 23.1387 195.597 23.1387C196.111 23.1387 196.525 23.1387 196.837 23.1777C197.084 23.1945 197.329 23.2348 197.569 23.298C197.719 23.335 197.857 23.4093 197.969 23.514C198.063 23.609 198.144 23.7162 198.21 23.8326L203.68 32.7686L209.239 23.8326C209.309 23.727 209.39 23.6286 209.479 23.5388C209.582 23.4414 209.702 23.3644 209.833 23.3122C210.04 23.239 210.256 23.1937 210.474 23.1777C210.747 23.1529 211.126 23.1387 211.607 23.1387C212.03 23.1345 212.453 23.1523 212.875 23.1918C213.13 23.2059 213.38 23.2747 213.607 23.3936C213.681 23.4321 213.74 23.4921 213.778 23.5655C213.816 23.639 213.831 23.7223 213.82 23.8043C213.779 24.0435 213.689 24.2715 213.554 24.4735L206.537 35.6257L213.961 47.472Z" fill="#221F1F"/>
<path d="M235.271 41.439C235.292 42.5704 235.059 43.6921 234.588 44.721C234.144 45.6715 233.481 46.5036 232.655 47.1497C231.765 47.8366 230.75 48.344 229.667 48.6438C228.425 48.9922 227.14 49.1626 225.85 49.1501C224.315 49.1533 222.79 48.9143 221.329 48.442C220.793 48.2688 220.271 48.0545 219.768 47.8012C219.435 47.6383 219.122 47.4362 218.837 47.1993C218.624 46.9975 218.475 46.7378 218.408 46.4523C218.307 46.0245 218.262 45.5853 218.274 45.1459C218.27 44.8605 218.288 44.5753 218.327 44.2926C218.353 44.1021 218.398 43.9147 218.461 43.7332C218.5 43.608 218.58 43.4996 218.688 43.4252C218.787 43.3625 218.903 43.3305 219.021 43.3332C219.335 43.3758 219.634 43.4976 219.888 43.6872C220.271 43.9232 220.743 44.1864 221.304 44.4767C221.944 44.792 222.608 45.0548 223.29 45.2627C224.148 45.514 225.038 45.6333 225.932 45.6167C226.615 45.6238 227.297 45.5429 227.96 45.376C228.522 45.2351 229.054 44.9953 229.532 44.6679C229.97 44.3654 230.324 43.9575 230.562 43.4819C230.811 42.9467 230.932 42.3615 230.917 41.7718C230.936 41.1612 230.753 40.5612 230.396 40.0654C230.018 39.5755 229.552 39.1601 229.022 38.8404C228.414 38.4646 227.771 38.1469 227.104 37.8916C226.395 37.6154 225.655 37.3286 224.901 37.0242C224.144 36.7224 223.405 36.3797 222.685 35.9974C221.977 35.6191 221.326 35.1423 220.752 34.5813C220.173 34.0176 219.706 33.3482 219.378 32.6093C219.011 31.741 218.834 30.8043 218.858 29.8619C218.856 28.9313 219.042 28.0098 219.407 27.1535C219.776 26.2836 220.336 25.508 221.046 24.8841C221.853 24.2082 222.782 23.6927 223.783 23.3653C225.017 22.9538 226.312 22.7562 227.613 22.7811C228.256 22.7813 228.898 22.8346 229.532 22.9404C230.119 23.0348 230.698 23.1684 231.267 23.3405C231.727 23.4696 232.175 23.639 232.605 23.8467C232.895 23.987 233.172 24.1516 233.434 24.3389C233.581 24.4391 233.707 24.5665 233.806 24.7141C233.869 24.8241 233.915 24.9436 233.94 25.0682C233.965 25.2027 233.993 25.3691 234.021 25.5638C234.049 25.7989 234.062 26.0353 234.06 26.2719C234.062 26.5344 234.049 26.7968 234.021 27.0579C234.002 27.246 233.956 27.4306 233.887 27.6067C233.84 27.7273 233.761 27.8335 233.66 27.9147C233.574 27.9745 233.472 28.0066 233.366 28.0067C233.109 27.9724 232.865 27.871 232.658 27.7129C232.281 27.4775 231.889 27.2682 231.483 27.0862C230.928 26.8414 230.357 26.6367 229.773 26.4737C229.049 26.2681 228.299 26.1691 227.546 26.1799C226.879 26.1692 226.213 26.2551 225.571 26.4348C225.053 26.5671 224.57 26.8085 224.154 27.1429C223.798 27.4442 223.516 27.8233 223.329 28.251C223.14 28.6889 223.045 29.1617 223.05 29.6389C223.029 30.2633 223.216 30.877 223.581 31.3843C223.963 31.8803 224.434 32.3016 224.969 32.627C225.594 33.0113 226.254 33.3361 226.941 33.597C227.67 33.8803 228.413 34.1741 229.171 34.4786C229.925 34.7795 230.672 35.1194 231.412 35.4912C232.126 35.8497 232.785 36.3074 233.37 36.8507C233.949 37.3966 234.416 38.0495 234.747 38.7731C235.114 39.6129 235.293 40.5228 235.271 41.439Z" fill="#221F1F"/>
<path d="M35.1743 18.0051L19.8266 30.6585L3.56553 17.3041C1.56504 15.6609 0.299255 13.2903 0.0466194 10.7138C-0.206016 8.13733 0.575199 5.56602 2.21841 3.56553C3.86161 1.56504 6.23221 0.299255 8.80869 0.0466194C11.3852 -0.206016 13.9565 0.575199 15.957 2.21841L35.1743 18.0051Z" fill="#E08812"/>
<path d="M64.0074 0.111892C61.7425 0.109148 59.5476 0.896713 57.8011 2.33881L36.9835 19.4921L36.5763 19.8284C34.7579 21.323 33.2932 23.2019 32.2876 25.3301C31.2819 27.4583 30.7604 29.7829 30.7604 32.1367C30.7604 34.4905 31.2819 36.8151 32.2876 38.9433C33.2932 41.0714 34.7579 42.9504 36.5763 44.4449L36.987 44.7777L57.6666 61.7717C58.6522 62.6246 59.7985 63.2716 61.0381 63.6745C62.2777 64.0774 63.5854 64.2281 64.8842 64.1176C66.1829 64.0071 67.4464 63.6377 68.6001 63.0311C69.7538 62.4246 70.7744 61.5932 71.6017 60.586C72.429 59.5788 73.0463 58.4162 73.4172 57.1666C73.7881 55.9171 73.905 54.6059 73.7612 53.3105C73.6173 52.015 73.2155 50.7615 72.5795 49.6237C71.9435 48.486 71.0862 47.4871 70.058 46.686L52.3595 32.1243L70.2173 17.4068C71.3303 16.4911 72.2266 15.3403 72.842 14.0371C73.4574 12.7338 73.7765 11.3105 73.7765 9.86926C73.7765 8.42804 73.4574 7.00469 72.842 5.70146C72.2266 4.39822 71.3303 3.24743 70.2173 2.33173C68.4694 0.892966 66.2749 0.108045 64.011 0.111892" fill="#E08812"/>
<path d="M34.9902 46.4382L16.3889 61.7681C14.6425 63.2019 12.4528 63.9856 10.1932 63.9856C7.93362 63.9856 5.74396 63.2019 3.9975 61.7681C2.88505 60.8517 1.98919 59.7005 1.37417 58.397C0.759137 57.0935 0.440186 55.6701 0.440186 54.2288C0.440186 52.7875 0.759137 51.3641 1.37417 50.0606C1.98919 48.7572 2.88505 47.6059 3.9975 46.6895L19.6142 33.806L34.9902 46.4382Z" fill="#E08812"/>
</g>
<defs>
<clipPath id="clip0_61_3349">
<rect width="235.273" height="64.1527" fill="white"/>
</clipPath>
</defs>
</svg>
