<svg width="74" height="65" viewBox="0 0 74 65" fill="none" xmlns="http://www.w3.org/2000/svg">
<path d="M35.1743 18.0051L19.8266 30.6585L3.56553 17.3041C1.56504 15.6609 0.299255 13.2903 0.0466194 10.7138C-0.206016 8.13733 0.575199 5.56602 2.21841 3.56553C3.86161 1.56504 6.23221 0.299255 8.80869 0.0466194C11.3852 -0.206016 13.9565 0.575199 15.957 2.21841L35.1743 18.0051Z" fill="#E08812"/>
<path d="M64.0074 0.111892C61.7425 0.109148 59.5476 0.896713 57.8011 2.33881L36.9835 19.4921L36.5763 19.8284C34.7579 21.323 33.2932 23.2019 32.2876 25.3301C31.2819 27.4583 30.7604 29.7829 30.7604 32.1367C30.7604 34.4905 31.2819 36.8151 32.2876 38.9433C33.2932 41.0714 34.7579 42.9504 36.5763 44.4449L36.987 44.7777L57.6666 61.7717C58.6522 62.6246 59.7985 63.2716 61.0381 63.6745C62.2777 64.0774 63.5854 64.2281 64.8842 64.1176C66.1829 64.0071 67.4464 63.6377 68.6001 63.0311C69.7538 62.4246 70.7744 61.5932 71.6017 60.586C72.429 59.5788 73.0463 58.4162 73.4172 57.1666C73.7881 55.9171 73.905 54.6059 73.7612 53.3105C73.6173 52.015 73.2155 50.7615 72.5795 49.6237C71.9435 48.486 71.0862 47.4871 70.058 46.686L52.3595 32.1243L70.2173 17.4068C71.3303 16.4911 72.2266 15.3403 72.842 14.0371C73.4574 12.7338 73.7765 11.3105 73.7765 9.86926C73.7765 8.42804 73.4574 7.00469 72.842 5.70146C72.2266 4.39822 71.3303 3.24743 70.2173 2.33173C68.4694 0.892966 66.2749 0.108045 64.011 0.111892" fill="#E08812"/>
<path d="M34.9902 46.4382L16.3889 61.7681C14.6425 63.2019 12.4528 63.9856 10.1932 63.9856C7.93362 63.9856 5.74396 63.2019 3.9975 61.7681C2.88505 60.8517 1.98919 59.7005 1.37417 58.397C0.759137 57.0935 0.440186 55.6701 0.440186 54.2288C0.440186 52.7875 0.759137 51.3641 1.37417 50.0606C1.98919 48.7572 2.88505 47.6059 3.9975 46.6895L19.6142 33.806L34.9902 46.4382Z" fill="#E08812"/>
</svg>
