<svg width="305" height="266" viewBox="0 0 305 266" fill="none" xmlns="http://www.w3.org/2000/svg">
<g opacity="0.2">
<path d="M145.563 75.079L82.1097 127.255L14.8804 72.1884C6.60962 65.4127 1.37639 55.6377 0.331902 45.0137C-0.712583 34.3896 2.51724 23.7869 9.31085 15.538C16.1045 7.28909 25.9054 2.06966 36.5575 1.02793C47.2096 -0.0138041 57.8403 3.2075 66.111 9.9832L145.563 75.079Z" fill="#E08812"/>
<path d="M263.72 0.835751C254.376 0.824426 245.321 4.07605 238.116 10.0301L152.232 80.851L150.552 82.2397C143.05 88.4102 137.007 96.1677 132.859 104.954C128.71 113.741 126.558 123.339 126.558 133.057C126.558 142.775 128.71 152.373 132.859 161.159C137.007 169.946 143.05 177.703 150.552 183.874L152.246 185.248L237.561 255.411C241.627 258.933 246.356 261.604 251.47 263.268C256.584 264.931 261.979 265.553 267.337 265.097C272.695 264.64 277.908 263.115 282.668 260.611C287.427 258.107 291.638 254.674 295.051 250.516C298.464 246.358 301.011 241.557 302.541 236.398C304.071 231.239 304.553 225.826 303.96 220.477C303.366 215.129 301.709 209.953 299.085 205.256C296.461 200.558 292.924 196.434 288.682 193.127L215.666 133.006L289.339 72.2414C293.931 68.4608 297.629 63.7095 300.168 58.3288C302.707 52.9481 304.023 47.0715 304.023 41.1211C304.023 35.1707 302.707 29.2941 300.168 23.9134C297.629 18.5328 293.931 13.7815 289.339 10.0008C282.128 4.06058 273.075 0.819869 263.735 0.835751" fill="#E08812"/>
<path d="M144.736 191.872L68.2218 255.248C61.0379 261.176 52.0309 264.416 42.7363 264.416C33.4417 264.416 24.4347 261.176 17.2508 255.248C12.6749 251.46 8.98985 246.701 6.46 241.312C3.93014 235.923 2.61816 230.038 2.61816 224.08C2.61816 218.121 3.93014 212.237 6.46 206.848C8.98985 201.459 12.6749 196.7 17.2508 192.911L81.4888 139.649L144.736 191.872Z" fill="#E08812"/>
</g>
</svg>
