<svg width="459" height="476" viewBox="0 0 459 476" fill="none" xmlns="http://www.w3.org/2000/svg">
<g opacity="0.1">
<path d="M161.7 138.713L43.1486 236.195L-82.4585 133.312C-97.911 120.653 -107.688 102.39 -109.64 82.5404C-111.591 62.6911 -105.557 42.8817 -92.8642 27.4699C-80.1714 12.0581 -61.86 2.30644 -41.9583 0.360133C-22.0565 -1.58617 -2.19473 4.43232 13.2578 17.0916L161.7 138.713Z" fill="#221F1F"/>
<path d="M382.459 0.00108512C365.001 -0.0200747 348.083 6.05507 334.621 17.1791L174.161 149.497L171.023 152.091C157.006 163.62 145.716 178.113 137.965 194.53C130.214 210.946 126.194 228.878 126.194 247.035C126.194 265.192 130.214 283.123 137.965 299.539C145.716 315.956 157.006 330.45 171.023 341.978L174.188 344.545L333.584 475.634C341.181 482.214 350.017 487.204 359.572 490.312C369.127 493.42 379.206 494.582 389.217 493.73C399.228 492.877 408.966 490.028 417.859 485.349C426.752 480.671 434.618 474.258 440.995 466.488C447.372 458.719 452.13 449.75 454.989 440.111C457.848 430.473 458.749 420.359 457.64 410.366C456.531 400.373 453.434 390.703 448.532 381.927C443.63 373.151 437.021 365.445 429.096 359.266L292.678 246.939L430.324 133.411C438.903 126.347 445.812 117.47 450.555 107.417C455.298 97.3645 457.759 86.3851 457.759 75.2678C457.759 64.1504 455.298 53.171 450.555 43.118C445.812 33.0651 438.903 24.1881 430.324 17.1245C416.852 6.02616 399.936 -0.0285889 382.486 0.00108512" fill="#221F1F"/>
<path d="M160.156 356.921L17.2009 475.33C3.77899 486.404 -13.049 492.457 -30.4146 492.457C-47.7801 492.457 -64.6081 486.404 -78.03 475.33C-86.5794 468.251 -93.4643 459.359 -98.1909 449.291C-102.918 439.223 -105.369 428.229 -105.369 417.096C-105.369 405.964 -102.918 394.969 -98.1909 384.901C-93.4643 374.833 -86.5794 365.941 -78.03 358.863L41.9882 259.351L160.156 356.921Z" fill="#221F1F"/>
</g>
</svg>
