<svg width="437" height="380" viewBox="0 0 437 380" fill="none" xmlns="http://www.w3.org/2000/svg">
<g opacity="0.2">
<path d="M209 106.701L117.807 181.688L21.1858 102.547C9.29924 92.809 1.77812 78.7605 0.277005 63.4918C-1.22411 48.2232 3.41774 32.9852 13.1814 21.1299C22.9451 9.27472 37.0308 1.77343 52.3398 0.276275C67.6488 -1.22088 82.9271 3.40873 94.8137 13.1466L209 106.701Z" fill="#E08812"/>
<path d="M378.815 8.3505e-05C365.386 -0.0161933 352.372 4.65699 342.016 13.214L218.585 114.997L216.171 116.992C205.389 125.861 196.705 137.01 190.742 149.638C184.78 162.266 181.688 176.059 181.688 190.026C181.688 203.993 184.78 217.786 190.742 230.414C196.705 243.042 205.389 254.191 216.171 263.059L218.606 265.034L341.219 365.872C347.062 370.933 353.86 374.772 361.209 377.163C368.559 379.553 376.313 380.447 384.013 379.791C391.713 379.136 399.205 376.944 406.045 373.345C412.886 369.746 418.937 364.813 423.843 358.836C428.748 352.86 432.408 345.961 434.607 338.547C436.806 331.132 437.499 323.352 436.646 315.665C435.793 307.978 433.411 300.54 429.64 293.789C425.869 287.038 420.786 281.111 414.69 276.357L309.752 189.952L415.634 102.623C422.233 97.1896 427.548 90.3611 431.196 82.6281C434.845 74.895 436.737 66.4493 436.737 57.8975C436.737 49.3457 434.845 40.9 431.196 33.167C427.548 25.4339 422.233 18.6054 415.634 13.172C405.27 4.63476 392.259 -0.0227427 378.836 8.3505e-05" fill="#E08812"/>
<path d="M207.812 274.554L97.8469 365.638C87.5223 374.156 74.5777 378.813 61.2196 378.813C47.8615 378.813 34.9169 374.156 24.5923 365.638C18.0159 360.193 12.7198 353.353 9.08392 345.608C5.44805 337.864 3.5625 329.406 3.5625 320.843C3.5625 312.279 5.44805 303.822 9.08392 296.077C12.7198 288.333 18.0159 281.493 24.5923 276.048L116.914 199.5L207.812 274.554Z" fill="#E08812"/>
</g>
</svg>
