<svg width="57" height="57" viewBox="0 0 57 57" fill="none" xmlns="http://www.w3.org/2000/svg">
<path d="M2.77379 56.9684C2.3708 56.7978 1.98037 56.6026 1.60504 56.384C1.02616 55.9983 0.615159 55.4474 0.569664 54.7914C0.500637 53.7687 0.55082 52.7226 0.55082 51.6429C0.751626 51.6341 0.941442 51.6195 1.13127 51.6195C6.29887 51.6195 11.4649 51.6195 16.6325 51.6078C16.8121 51.5912 16.9926 51.629 17.1472 51.7156C17.3018 51.8022 17.4223 51.933 17.4906 52.0885C17.9409 52.876 18.4523 53.6314 18.912 54.4145C19.0029 54.5959 19.1505 54.7476 19.3356 54.8495C19.5206 54.9514 19.7344 54.9989 19.949 54.9858C25.6437 54.978 31.3389 54.978 37.0347 54.9858C37.2489 54.9986 37.4624 54.951 37.6471 54.8491C37.8319 54.7472 37.9792 54.5957 38.0701 54.4145C38.5595 53.5846 39.0662 52.7635 39.6028 51.96C39.6678 51.8707 39.7525 51.7953 39.8512 51.7389C39.95 51.6825 40.0605 51.6463 40.1754 51.6327C45.4978 51.6152 50.8212 51.6113 56.1457 51.621C56.221 51.621 56.3026 51.6341 56.5332 51.6546C56.4626 52.8234 56.5034 54.0112 56.2885 55.1611C56.1018 56.1502 55.1762 56.6396 54.2082 56.9757L2.77379 56.9684ZM5.31369 54.9711C5.50015 54.9826 5.68413 54.9264 5.82692 54.8141C5.96971 54.7018 6.06015 54.5423 6.07924 54.3692C6.09363 54.2789 6.08703 54.1868 6.05986 54.0991C6.03269 54.0114 5.98561 53.9302 5.92179 53.8609C5.85797 53.7916 5.7789 53.7359 5.68996 53.6976C5.60101 53.6592 5.50423 53.6392 5.40623 53.6387C4.98422 53.6314 4.69558 53.8126 4.64224 54.2231C4.62907 54.314 4.63637 54.4065 4.66369 54.4946C4.69101 54.5827 4.73775 54.6646 4.80092 54.7349C4.86409 54.8053 4.94229 54.8627 5.03057 54.9033C5.11886 54.944 5.2153 54.9671 5.31369 54.9711ZM52.3492 54.3093C52.3548 54.2226 52.3412 54.1359 52.3093 54.0543C52.2774 53.9727 52.2279 53.8981 52.1638 53.8351C52.0996 53.7721 52.0223 53.722 51.9365 53.688C51.8508 53.654 51.7584 53.6367 51.6652 53.6372C51.5679 53.6273 51.4695 53.6367 51.3764 53.6649C51.2833 53.6931 51.1977 53.7394 51.1253 53.8007C51.0529 53.8621 50.9953 53.9371 50.9564 54.0207C50.9175 54.1044 50.8982 54.1948 50.8996 54.2859C50.8954 54.3769 50.9116 54.4677 50.9472 54.5525C50.9828 54.6373 51.0371 54.7142 51.1065 54.7783C51.1759 54.8425 51.259 54.8924 51.3504 54.9248C51.4417 54.9573 51.5394 54.9715 51.637 54.9668C52.0574 54.9361 52.3178 54.7242 52.3492 54.3093ZM9.03172 54.2669C9.00505 53.8783 8.75876 53.6606 8.32891 53.6358C8.2313 53.6289 8.13323 53.6413 8.04115 53.6723C7.94908 53.7032 7.86508 53.7519 7.79469 53.8153C7.7243 53.8786 7.66912 53.9552 7.63275 54.0398C7.59639 54.1244 7.57969 54.2153 7.58373 54.3064C7.59942 54.7228 7.86925 54.9317 8.28655 54.9653C8.38613 54.9699 8.48564 54.9551 8.57863 54.9216C8.67162 54.888 8.756 54.8367 8.82628 54.7708C8.89656 54.7049 8.95117 54.626 8.98657 54.5392C9.02196 54.4524 9.03735 54.3597 9.03172 54.2669ZM48.6892 54.9726C49.0595 54.9332 49.3544 54.7666 49.3983 54.3517C49.4095 54.261 49.3998 54.1692 49.3698 54.0823C49.3398 53.9954 49.2903 53.9155 49.2245 53.8479C49.1587 53.7803 49.0782 53.7265 48.9883 53.6902C48.8985 53.6539 48.8013 53.6358 48.7033 53.6372C48.2782 53.6372 47.9974 53.8272 47.9566 54.245C47.9482 54.3387 47.9611 54.433 47.9943 54.5217C48.0275 54.6105 48.0803 54.6918 48.1494 54.7604C48.2184 54.8289 48.3021 54.8833 48.3951 54.9198C48.4881 54.9564 48.5883 54.9744 48.6892 54.9726ZM11.2468 53.6314C10.8358 53.665 10.5613 53.8549 10.5268 54.2669C10.5221 54.3579 10.5373 54.4487 10.5715 54.534C10.6057 54.6193 10.658 54.6972 10.7255 54.7631C10.793 54.8289 10.8742 54.8813 10.9641 54.9171C11.0539 54.9529 11.1507 54.9712 11.2484 54.9711C11.346 54.9724 11.4428 54.9551 11.533 54.9204C11.6232 54.8857 11.7048 54.8342 11.7729 54.7691C11.841 54.7041 11.8942 54.6268 11.9292 54.5419C11.9641 54.4571 11.9802 54.3665 11.9763 54.2757C11.9497 53.8637 11.6845 53.665 11.2468 53.6314ZM45.7415 53.6314C45.3053 53.6621 45.0371 53.8564 45.0073 54.2698C45.0024 54.3607 45.0174 54.4515 45.0515 54.5367C45.0856 54.6219 45.1381 54.6998 45.2057 54.7655C45.2733 54.8311 45.3545 54.8832 45.4445 54.9186C45.5345 54.954 45.6312 54.9719 45.7289 54.9711C45.8266 54.9718 45.9234 54.954 46.0134 54.9189C46.1035 54.8838 46.185 54.832 46.2531 54.7667C46.3211 54.7015 46.3742 54.6241 46.4092 54.5392C46.4442 54.4543 46.4605 54.3636 46.4568 54.2728C46.427 53.8622 46.1541 53.6694 45.7415 53.6314Z" fill="#E1890F"/>
<path d="M2.85547 50.2885V49.6033C2.85547 39.8523 2.85547 30.1009 2.85547 20.349C2.85547 19.243 3.02806 19.0808 4.21093 19.0808H20.1326V20.7318H5.8158C4.75843 20.7318 4.62821 20.8531 4.62821 21.8276V46.8113C4.62821 47.7463 4.78511 47.8851 5.78129 47.8851H51.2245C52.1909 47.8851 52.3509 47.739 52.3525 46.8419C52.3525 38.4761 52.3525 30.1097 52.3525 21.7428C52.3525 20.875 52.1956 20.7201 51.2543 20.7201H36.8512V19.1115C37.0615 19.1027 37.267 19.0837 37.4788 19.0837H52.8623C53.9307 19.0837 54.1315 19.2722 54.1315 20.2686C54.1315 30.0741 54.1315 39.8801 54.1315 49.6866V50.2914H53.3847C48.8446 50.2914 44.3045 50.2988 39.7645 50.2812C39.1824 50.2812 38.8232 50.4463 38.5439 50.9314C38.0984 51.7189 37.5823 52.4728 37.1211 53.2544C37.0632 53.377 36.9654 53.4797 36.8416 53.5478C36.7177 53.616 36.574 53.6462 36.4308 53.6343C31.1267 53.6255 25.8242 53.6343 20.5201 53.6124C20.3951 53.6 20.2744 53.5629 20.1662 53.5034C20.0579 53.4439 19.9646 53.3635 19.8926 53.2676C19.3608 52.483 18.8634 51.6765 18.3849 50.8627C18.1402 50.4449 17.8155 50.2783 17.3009 50.2783C12.7404 50.2929 8.17997 50.287 3.62106 50.287L2.85547 50.2885Z" fill="#E1890F"/>
<path opacity="0.7" d="M17.8247 46.5408H6.10889V22.1006H20.1653V22.6119C20.1653 25.3996 20.1762 28.1873 20.148 30.9764C20.1176 31.2868 19.9825 31.5804 19.7621 31.815C19.3777 32.2533 18.9087 32.6157 18.4914 33.0262C17.9768 33.5317 17.9501 34.0373 18.3831 34.6012C18.4338 34.6793 18.4938 34.7518 18.562 34.8174C19.235 35.3683 19.337 35.9497 18.8757 36.7168C18.6451 37.1054 18.449 37.2705 17.9831 37.3114C16.1586 37.4751 16.0158 37.6387 16.0174 39.3218C16.0174 40.1064 16.008 40.8895 16.0174 41.6726C16.0284 42.4031 16.3767 42.7655 17.1579 42.8838C17.2145 42.8993 17.2731 42.9072 17.332 42.9072C18.5055 42.7611 18.9291 43.4741 19.1816 44.3419C19.2099 44.5235 19.1646 44.7084 19.0546 44.8606C18.689 45.3983 18.2843 45.9213 17.8247 46.5408Z" fill="#E1890F"/>
<path opacity="0.7" d="M39.1366 46.5233C38.7083 45.9389 38.3522 45.4085 37.9428 44.9161C37.742 44.6707 37.7592 44.4881 37.8392 44.1856C38.0824 43.2798 38.6361 42.9218 39.6417 42.8824C40.6473 42.8429 40.9564 42.4441 40.9595 41.5061C40.9627 40.5681 40.9595 39.6476 40.9595 38.7184C40.9595 37.8564 40.594 37.4839 39.6919 37.3874H39.6339C38.2926 37.2413 38.1373 37.1288 37.7686 35.8986C37.7507 35.7481 37.7944 35.5968 37.891 35.4749C38.1106 35.1739 38.371 34.8993 38.6016 34.6056C39.0362 34.0475 38.997 33.542 38.495 33.0277C38.4579 32.9849 38.4158 32.9462 38.3695 32.9123C36.9936 32.0444 36.694 30.8347 36.785 29.3386C36.9183 27.1397 36.8195 24.9292 36.8195 22.7245V22.1079H50.8743V46.5291L39.1366 46.5233Z" fill="#E1890F"/>
<path d="M37.3169 33.9408C37.011 34.3119 36.6894 34.7196 36.3442 35.1097C36.0618 35.4326 36.054 35.7467 36.2407 36.1192C36.5294 36.6949 36.8008 37.2793 37.0251 37.8725C37.1741 38.2669 37.4126 38.4759 37.8581 38.5183C38.3994 38.5679 38.9375 38.6454 39.4991 38.7155V41.5528C38.95 41.62 38.4104 41.6989 37.8691 41.7501C37.422 41.7895 37.1788 41.9926 37.0298 42.3885C36.8005 42.985 36.5387 43.5702 36.2454 44.1418C36.1419 44.3074 36.0982 44.4995 36.1208 44.69C36.1434 44.8804 36.2311 45.0591 36.3709 45.1996C36.7129 45.5853 37.0329 45.9885 37.4502 46.4896H19.5283C19.9331 46.006 20.2343 45.613 20.5716 45.2522C20.9277 44.8679 20.9387 44.5027 20.6908 44.0527C20.4073 43.5353 20.1681 42.9979 19.9755 42.4455C19.8186 42.0072 19.5676 41.7749 19.064 41.7398C18.5604 41.7048 18.0207 41.6157 17.4795 41.5485V38.7199C18.0568 38.6454 18.6295 38.6249 19.1644 38.4817C19.4785 38.3841 19.7435 38.183 19.9096 37.9163C20.2437 37.3246 20.4649 36.6788 20.7614 36.0681C20.8513 35.9163 20.8883 35.7422 20.8672 35.5699C20.8461 35.3977 20.768 35.2358 20.6438 35.1067C20.3002 34.7123 19.9755 34.3061 19.668 33.9379L21.8517 31.9261C22.2267 32.1978 22.6612 32.5017 23.0848 32.8202C23.43 33.0803 23.7688 33.0934 24.172 32.9181C24.7885 32.6493 25.427 32.4038 26.0545 32.1876C26.4687 32.0415 26.7071 31.8355 26.7479 31.4118C26.795 30.9063 26.8891 30.4037 26.9676 29.8777H30.0095C30.0879 30.4153 30.1099 30.9501 30.2621 31.4498C30.3677 31.7415 30.5841 31.9873 30.8707 32.1408C31.5077 32.452 32.1995 32.6595 32.8568 32.9357C33.0205 33.0184 33.2076 33.0522 33.3926 33.0323C33.5776 33.0125 33.7515 32.9399 33.8907 32.8246C34.3158 32.5076 34.7503 32.2022 35.1457 31.9173C35.8767 32.6069 36.578 33.2571 37.3169 33.9408ZM34.8853 40.14C34.8867 39.3604 34.7232 38.5882 34.4041 37.8674C34.085 37.1467 33.6165 36.4916 33.0255 35.9395C32.4344 35.3874 31.7324 34.9492 30.9594 34.6499C30.1865 34.3506 29.3578 34.196 28.5207 34.1951C27.6782 34.1896 26.8429 34.3398 26.0631 34.6367C25.2833 34.9337 24.5744 35.3716 23.9773 35.9252C23.3803 36.4788 22.907 37.137 22.5847 37.862C22.2624 38.5869 22.0975 39.3642 22.0996 40.1488C22.1021 41.7236 22.7727 43.2337 23.9655 44.35C25.1582 45.4663 26.7764 46.0983 28.4673 46.1083C29.3098 46.1099 30.1444 45.9566 30.9232 45.6573C31.7019 45.358 32.4097 44.9186 33.0059 44.3642C33.602 43.8098 34.0749 43.1513 34.3974 42.4265C34.7199 41.7016 34.8857 40.9246 34.8853 40.14Z" fill="#E1890F"/>
<path d="M23.9916 9.26538C21.8769 9.26538 19.8657 9.25513 17.8545 9.28582C17.6976 9.28582 17.4796 9.54004 17.3917 9.72413C17.1396 10.2721 16.7131 10.7349 16.1697 11.0499C15.6263 11.365 14.9922 11.5173 14.353 11.4861C13.7441 11.461 13.1566 11.2694 12.6639 10.9352C12.1713 10.6011 11.7951 10.1392 11.5825 9.60724C11.2976 8.90099 11.3182 8.11931 11.6402 7.42699C11.9621 6.73468 12.5601 6.18585 13.3082 5.89622C14.055 5.60135 14.8967 5.59309 15.65 5.87329C16.4033 6.15348 17.0073 6.69944 17.3305 7.39232C17.5157 7.79118 17.7243 7.92123 18.184 7.91538C20.0414 7.88908 21.8989 7.90076 23.7563 7.90515C24.9533 7.90515 25.4161 8.34345 25.4161 9.46991C25.4161 12.0374 25.4161 14.6045 25.4161 17.171V17.6868H23.9838L23.9916 9.26538Z" fill="#E1890F"/>
<path d="M33.0106 9.35025V17.6884H31.5877C31.5767 17.4882 31.561 17.3114 31.561 17.1332C31.561 14.5822 31.561 12.0313 31.561 9.4803C31.561 8.32754 32.0176 7.90384 33.2663 7.90091C35.1489 7.90091 37.022 7.89215 38.9014 7.90091C39.2575 7.90091 39.4442 7.82493 39.5917 7.48597C39.8546 6.86211 40.3437 6.34365 40.9741 6.02047C41.6045 5.6973 42.3365 5.58982 43.0431 5.71667C43.7606 5.84511 44.4079 6.20187 44.8741 6.72588C45.3403 7.24989 45.5965 7.90854 45.5986 8.58906C45.5896 9.26012 45.3342 9.90812 44.8751 10.4253C44.4159 10.9426 43.7805 11.2979 43.0744 11.4322C41.6233 11.7113 40.1769 10.9676 39.5509 9.64684C39.4756 9.48759 39.2575 9.27866 39.1022 9.2772C37.1271 9.25528 35.1504 9.26697 33.1738 9.2772C33.1471 9.27866 33.111 9.30642 33.0106 9.35025Z" fill="#E1890F"/>
<path opacity="0.5" d="M29.2063 17.7001H27.7771V17.101C27.7771 13.821 27.7771 10.541 27.785 7.26093C27.785 6.88982 27.694 6.69991 27.283 6.54796C25.871 6.02199 25.1352 4.66614 25.4427 3.25478C25.5989 2.60971 25.9855 2.03307 26.5391 1.61907C27.0928 1.20507 27.7809 0.978232 28.4909 0.975586C29.2014 0.977977 29.89 1.20487 30.4441 1.61918C30.9981 2.03349 31.3847 2.61066 31.5406 3.25624C31.8544 4.65737 31.1202 6.01614 29.6942 6.5465C29.2753 6.70137 29.1984 6.89859 29.2 7.26385C29.211 10.5249 29.2 13.7874 29.2 17.0528L29.2063 17.7001Z" fill="#E1890F"/>
<path d="M21.6102 17.6941H20.1826V15.3477C19.941 15.3331 19.77 15.3156 19.6006 15.3156C17.8388 15.3156 16.0786 15.3229 14.3185 15.3053C13.9404 15.3053 13.7412 15.3828 13.5858 15.7436C13.3087 16.4041 12.7788 16.9455 12.0983 17.2636C11.4178 17.5817 10.635 17.6539 9.90075 17.4662C9.19678 17.2856 8.58195 16.883 8.16133 16.3272C7.74072 15.7713 7.54044 15.0966 7.59464 14.4185C7.65874 13.7219 7.98886 13.0699 8.52511 12.5806C9.06136 12.0914 9.76818 11.7974 10.5173 11.7521C11.1759 11.7099 11.8315 11.8667 12.3868 12.1991C12.9422 12.5316 13.3676 13.0219 13.5999 13.5974C13.7349 13.9144 13.9043 13.9919 14.2385 13.9904C16.1759 13.9773 18.1134 13.9802 20.043 13.9904C21.127 13.9904 21.5882 14.4112 21.6024 15.4076C21.618 16.1425 21.6102 16.8891 21.6102 17.6941Z" fill="#E1890F"/>
<path opacity="0.5" d="M36.8102 15.3126V17.6883H35.4077C35.4077 16.7547 35.3638 15.8474 35.4234 14.9459C35.4626 14.3498 36.0352 13.986 36.7741 13.9845C38.6928 13.9845 40.6098 13.9845 42.5269 13.9845H43.1952C43.2736 13.8048 43.3379 13.6383 43.4148 13.4761C43.7063 12.862 44.2168 12.3606 44.8598 12.0568C45.5028 11.753 46.2387 11.6655 46.943 11.8091C47.6354 11.9538 48.2548 12.3129 48.6998 12.8276C49.1449 13.3424 49.3894 13.9825 49.3935 14.6435C49.395 15.3052 49.154 15.9475 48.7105 16.4645C48.2669 16.9814 47.6473 17.342 46.954 17.4866C45.4746 17.7788 44.0047 17.1112 43.4383 15.8269C43.2564 15.412 43.0477 15.2995 42.5927 15.3053C40.6976 15.3272 38.8026 15.3126 36.8102 15.3126Z" fill="#E1890F"/>
<path d="M33.0686 22.1006H35.3732V22.7171C35.3732 25.0855 35.3732 27.4553 35.3732 29.8236C35.3732 30.205 35.3732 30.4811 34.8367 30.5337C34.5951 30.5571 34.3738 30.7879 34.1542 30.9369C33.8405 31.1488 33.5346 31.3752 33.2271 31.5944C32.9745 31.2642 32.8537 23.6551 33.0686 22.1006Z" fill="#E1890F"/>
<path d="M21.6134 22.0991H23.9132V31.6865C23.6073 31.479 23.4222 31.3343 23.2182 31.2175C22.7586 30.9559 22.2848 30.7149 21.8283 30.4504C21.7755 30.421 21.73 30.3817 21.6946 30.3349C21.6592 30.288 21.6347 30.2348 21.6228 30.1787C21.6118 27.502 21.6134 24.8254 21.6134 22.0991Z" fill="#E1890F"/>
<path d="M25.46 22.0862H27.7379V28.4709C27.2547 28.522 26.6977 28.4607 26.2867 28.6594C25.9008 28.8464 25.6702 29.311 25.46 29.552V22.0862Z" fill="#E1890F"/>
<path d="M29.252 22.0977H31.5267V29.7403C31.3604 28.4254 30.3093 28.4882 29.252 28.535V22.0977Z" fill="#E1890F"/>
<path d="M23.9444 19.0836V20.6908H21.6132C21.6132 20.2393 21.5928 19.8141 21.6289 19.3758C21.6489 19.3087 21.6871 19.2475 21.7399 19.1982C21.7926 19.1488 21.8581 19.1128 21.9301 19.0938C22.5874 19.069 23.2463 19.0836 23.9444 19.0836Z" fill="#E1890F"/>
<path d="M33.0356 20.6849V19.1289H35.3323V20.6849H33.0356Z" fill="#E1890F"/>
<path d="M27.741 20.7024H25.46V19.126H27.7426L27.741 20.7024Z" fill="#E1890F"/>
<path d="M29.2251 20.6849V19.1289H31.5218V20.6849H29.2251Z" fill="#E1890F"/>
<path opacity="0.5" d="M28.4769 44.7483C27.1712 44.7502 25.918 44.2691 24.9931 43.4107C24.0681 42.5523 23.5472 41.3869 23.5447 40.1708C23.5384 39.564 23.6613 38.9621 23.9061 38.3998C24.151 37.8374 24.513 37.3258 24.9712 36.8944C25.4295 36.463 25.9749 36.1204 26.5761 35.8863C27.1772 35.6523 27.8222 35.5313 28.4738 35.5306C29.1252 35.5271 29.771 35.6438 30.3737 35.8739C30.9765 36.104 31.5244 36.4429 31.9858 36.8711C32.4473 37.2994 32.8131 37.8085 33.0622 38.3691C33.3114 38.9296 33.4389 39.5306 33.4375 40.1372C33.4406 40.7443 33.3143 41.346 33.066 41.9073C32.8177 42.4686 32.4523 42.9785 31.9909 43.4073C31.5296 43.8362 30.9814 44.1756 30.3782 44.4057C29.775 44.6359 29.1288 44.7523 28.4769 44.7483Z" fill="#E1890F"/>
</svg>
