<svg width="57" height="57" viewBox="0 0 57 57" fill="none" xmlns="http://www.w3.org/2000/svg">
<path opacity="0.7" d="M18.4324 44.1676V13.4978H41.5453V17.3685L39.6766 17.9059V15.3094H20.3768V27.9209H31.107C30.6523 31.2421 31.3875 34.2463 33.3884 36.9395C35.3894 39.6327 38.1416 41.3174 41.5662 42.1039V44.1676H18.4324ZM20.3672 31.5108H28.9851V29.7702H20.3672V31.5108ZM20.3672 33.3858V35.1294H28.9787V33.3858H20.3672ZM28.9964 37.0089H20.3801V38.7495H28.9964V37.0089ZM20.3672 40.6139V42.356H28.9787V40.6109L20.3672 40.6139Z" fill="#E1890F"/>
<path d="M16.5185 45.9927H43.5139V42.4119H45.4052V47.7786H14.5869V9.88672H45.4149V17.0711H43.5542V11.7043H16.5137L16.5185 45.9927Z" fill="#E1890F"/>
<path d="M54.7922 34.5725C54.0005 32.7081 52.4011 31.9125 50.4389 31.5441C49.4183 31.3524 48.4138 31.0792 47.2884 30.815C47.4641 30.6278 47.5721 30.4874 47.706 30.3712C48.2108 29.9506 48.6144 29.4342 48.8899 28.8564C49.1654 28.2786 49.3064 27.6525 49.3038 27.0197C49.3038 26.1547 49.3505 25.2761 49.2038 24.4307C49.024 23.3887 48.4533 22.4407 47.5943 21.757C46.7353 21.0734 45.6442 20.6988 44.5167 20.7004C42.2595 20.6884 40.1795 22.2206 39.8119 24.3537C39.6201 25.4694 39.6733 26.6408 39.7587 27.7776C39.8377 28.8343 40.4536 29.6858 41.2904 30.3862C41.4264 30.4708 41.5739 30.5379 41.729 30.5855L41.6016 30.8105C41.4259 30.8633 41.2517 30.9267 41.0712 30.969C40.0393 31.209 39.0106 31.4672 37.9706 31.6785C36.1971 32.0408 34.9072 32.9541 34.1833 34.5393C32.1324 31.2633 32.2484 25.5871 36.6018 21.7889C38.6622 19.9946 41.3508 18.9653 44.1636 18.8939C46.9765 18.8225 49.7206 19.7138 51.8819 21.4009C56.5109 24.9953 57.0237 30.7788 54.7922 34.5725Z" fill="#E1890F"/>
<path d="M47.5108 26.2029C47.3495 26.8913 47.3108 27.6265 47.0109 28.256C46.7933 28.7089 46.2273 29.0244 45.842 29.4245C45.6808 29.5966 45.4841 29.82 45.4663 30.0284C45.4147 30.6322 45.4663 31.2361 45.4421 31.8399C45.4292 32.1584 45.5308 32.2928 45.8823 32.3713C47.485 32.7231 49.0796 33.108 50.6758 33.4854C52.4026 33.893 53.2168 34.8788 53.1636 36.5364C53.1523 36.7714 53.0575 36.9961 52.8944 37.175C48.4169 41.7235 40.5326 41.7265 36.0777 37.175C35.8931 36.9433 35.7961 36.6608 35.8019 36.3719C35.7794 34.8622 36.6404 33.8628 38.2205 33.5035C39.8328 33.1291 41.4451 32.7396 43.072 32.3803C43.4122 32.3049 43.5363 32.1826 43.5218 31.855C43.496 31.2345 43.5396 30.6111 43.4993 29.9921C43.4881 29.8884 43.4537 29.7881 43.3981 29.6978C43.3425 29.6075 43.2671 29.5292 43.1768 29.4682C42.0336 28.8448 41.5145 27.9269 41.5774 26.7026C41.6128 26.0278 41.558 25.3439 41.7015 24.6827C41.8347 24.0273 42.2264 23.4428 42.7988 23.0454C43.3711 22.6479 44.0822 22.4666 44.7907 22.5375C46.2677 22.6885 47.3463 23.8373 47.3705 25.282C47.3705 25.5839 47.3705 25.8859 47.3705 26.1878L47.5108 26.2029Z" fill="#E1890F"/>
<path opacity="0.5" d="M45.4535 8.01194H14.5676C14.5676 6.97784 14.4853 5.95884 14.5869 4.95795C14.7288 3.55248 16.009 2.6165 17.631 2.61499C24.8876 2.61499 32.1431 2.61499 39.3976 2.61499C40.423 2.61499 41.4485 2.61499 42.4739 2.61499C44.1991 2.63009 45.4245 3.78042 45.4423 5.40178C45.46 6.26378 45.4535 7.12428 45.4535 8.01194ZM31.9099 4.46127H24.2593V6.20189H31.9099V4.46127ZM33.9189 4.44318V6.20038H35.765V4.44318H33.9189Z" fill="#E1890F"/>
<path d="M14.5449 49.6538H45.4147C45.4147 50.7211 45.5195 51.7794 45.3889 52.812C45.2277 54.1344 43.9959 55.0508 42.5609 55.0523C34.1896 55.0613 25.8183 55.0613 17.4471 55.0523C17.0682 55.0555 16.6923 54.9883 16.3413 54.8546C15.9903 54.721 15.6711 54.5235 15.4021 54.2736C15.1331 54.0237 14.9197 53.7264 14.7742 53.3988C14.6288 53.0712 14.5541 52.7199 14.5545 52.3651C14.5303 51.482 14.5449 50.5988 14.5449 49.6538ZM33.8059 53.2256V51.4669H26.1666V53.2256H33.8059ZM18.4241 53.218H20.2993V51.4729H18.4241V53.218ZM41.5709 51.4729H39.6958V53.1984H41.5709V51.4729Z" fill="#E1890F"/>
<path d="M22.3147 17.1089H37.7238C37.7238 17.6191 37.74 18.1037 37.7126 18.5883C37.6828 18.7282 37.5961 18.8516 37.4707 18.9325C33.9397 21.3706 33.1303 22.3398 31.505 26.1033H22.3147V17.1089Z" fill="#E1890F"/>
<path d="M8.53891 36.9397C8.37768 36.3358 8.21644 35.7319 8.02618 35.1386C7.96963 34.9867 7.87799 34.8482 7.75778 34.7332C7.63756 34.6182 7.49173 34.5294 7.33068 34.4732C7.16963 34.417 6.99733 34.3947 6.82604 34.4079C6.65474 34.4212 6.48868 34.4697 6.33968 34.5499C5.80438 34.8518 5.27069 35.1537 4.78538 35.4209C3.75832 34.4563 2.75544 33.5158 1.72193 32.5436C2.02183 32.0771 2.36686 31.5487 2.699 31.0128C3.01179 30.5086 2.61356 29.6451 2.00732 29.4956C1.36238 29.3447 0.731957 29.1846 0.0725098 29.0261V25.0301L1.93637 24.5772C2.10822 24.5284 2.26617 24.4441 2.39852 24.3304C2.53086 24.2168 2.63422 24.0767 2.70095 23.9206C2.76767 23.7645 2.79604 23.5963 2.78399 23.4285C2.77193 23.2607 2.71975 23.0977 2.63129 22.9513C2.30883 22.4501 1.98636 21.9505 1.70258 21.4945L4.76603 18.6262C5.24973 18.9025 5.8205 19.221 6.37837 19.532C6.93624 19.843 7.86816 19.4988 8.03907 18.8874C8.20031 18.3062 8.36154 17.722 8.52277 17.1121H12.5682V20.9194C9.26608 20.2702 6.58797 21.1458 4.84019 23.8752C3.43584 26.0672 3.5213 28.3785 5.04496 30.492C6.83789 32.9798 9.42731 33.7694 12.5665 33.1263V36.9381L8.53891 36.9397Z" fill="#E1890F"/>
<path opacity="0.5" d="M12.6118 27.0605C12.6118 28.2455 12.5925 29.4306 12.6215 30.6142C12.6328 31.0384 12.5102 31.2361 12.0507 31.3584C11.0901 31.6224 10.0657 31.6008 9.11877 31.2966C8.17184 30.9924 7.34903 30.4206 6.76385 29.6601C6.16887 28.8938 5.84839 27.9709 5.84839 27.0235C5.84839 26.0762 6.16887 25.1532 6.76385 24.3869C7.34875 23.626 8.17243 23.0547 9.12027 22.7525C10.0681 22.4502 11.093 22.4321 12.0523 22.7007C12.4651 22.8139 12.6295 22.9694 12.6166 23.3921C12.5908 24.6149 12.6118 25.8377 12.6118 27.0605Z" fill="#E1890F"/>
<path d="M8.74858 53.2256H6.81377V52.6217C6.81377 50.5339 6.81377 48.4445 6.81377 46.3552C6.81377 46.0306 6.76057 45.8268 6.40263 45.6532C5.83321 45.3815 5.38047 44.9353 5.11992 44.3888C4.85938 43.8424 4.80678 43.2289 4.97087 42.6505C5.12366 42.0707 5.47684 41.5544 5.97548 41.182C6.47411 40.8096 7.09023 40.602 7.72797 40.5914C8.37635 40.5816 9.00934 40.7766 9.52479 41.145C10.0402 41.5134 10.4081 42.0337 10.5689 42.6219C10.7391 43.1984 10.6937 43.8121 10.4404 44.3612C10.187 44.9104 9.74086 45.362 9.17585 45.6411C8.80179 45.8283 8.73085 46.0352 8.73407 46.3839C8.75503 48.6408 8.74858 50.8992 8.74858 53.2256Z" fill="#E1890F"/>
<path opacity="0.5" d="M51.2483 4.45068H53.1831V5.04249C53.1831 7.15598 53.1831 9.25738 53.1831 11.3648C53.1657 11.4997 53.1964 11.6363 53.2705 11.7532C53.3445 11.87 53.4578 11.9607 53.5926 12.011C54.1615 12.283 54.6139 12.7289 54.875 13.2748C55.136 13.8207 55.1898 14.4337 55.0276 15.0121C54.8751 15.6023 54.5147 16.1272 54.0045 16.5022C53.4944 16.8771 52.8642 17.0803 52.2157 17.0788C51.5777 17.0761 50.9585 16.876 50.4546 16.5095C49.9507 16.1431 49.5903 15.631 49.4296 15.0529C49.2584 14.4768 49.3027 13.8633 49.5553 13.3141C49.8078 12.7649 50.2533 12.3131 50.8178 12.0336C51.1886 11.8494 51.2676 11.6456 51.266 11.2939C51.2515 9.22417 51.258 7.15447 51.258 5.08476L51.2483 4.45068Z" fill="#E1890F"/>
<path d="M53.154 0.832031V2.57718H51.2788V0.832031H53.154Z" fill="#E1890F"/>
<path d="M6.82666 56.8321V55.1021H8.70502V56.8321H6.82666Z" fill="#E1890F"/>
</svg>
