<svg width="54" height="57" viewBox="0 0 54 57" fill="none" xmlns="http://www.w3.org/2000/svg">
<path d="M33.7661 17.6078L29.0785 20.0464C25.4398 21.9382 21.7996 23.8281 18.158 25.716C17.7168 25.9478 17.386 26.2207 17.4772 26.7695C17.5639 27.2904 17.9418 27.443 18.4153 27.534C21.3658 28.0994 24.313 28.6814 27.2567 29.28C27.5806 29.3614 27.8717 29.5402 28.0904 29.7921C28.6124 30.4025 29.0712 31.0657 29.5608 31.7245C27.7302 33.6746 26.8112 35.9958 26.62 38.6413H15.8936C15.8142 38.119 15.7598 37.5966 15.6554 37.0845C15.2034 34.8257 14.0457 32.7678 12.3485 31.2066C10.3281 29.3079 8.93716 27.0527 8.37841 24.3294C6.88744 17.0414 11.8853 9.26918 19.9107 8.47097C25.9966 7.86498 31.8708 11.6388 33.7411 17.4346C33.7536 17.4917 33.7619 17.5495 33.7661 17.6078Z" fill="#E1890F"/>
<path opacity="0.8" d="M21.1001 26.2707L53.653 8.96991C51.3312 16.481 49.0492 23.8673 46.7422 31.3182L37.8522 29.5736L40.0681 26.4174C42.0913 23.5435 44.1146 20.6701 46.1378 17.7971C46.5672 17.1882 46.5907 16.7832 46.2275 16.4208C45.8643 16.0584 45.41 16.0774 44.8336 16.4633C39.4304 20.0827 34.0287 23.702 28.6285 27.3213C28.4702 27.4389 28.2876 27.5197 28.094 27.5578C27.9004 27.5959 27.7007 27.5903 27.5095 27.5414C25.398 27.0982 23.2748 26.6962 21.1001 26.2707Z" fill="#E1890F"/>
<path opacity="0.5" d="M20.512 53.64C21.2942 53.64 21.9897 53.64 22.6852 53.64C22.7938 53.6357 22.9018 53.6578 22.9999 53.7045C24.9599 54.7815 27.0096 54.5849 29.0476 54.0611C31.8736 53.3275 34.7527 53.1103 37.6508 52.9958C37.7978 52.9958 37.9331 52.9768 38.1889 52.9592C37.9684 52.8007 37.8258 52.7068 37.692 52.6011C37.2467 52.2822 36.8191 51.9394 36.4112 51.574C35.0203 50.2021 34.9791 48.9065 36.2422 47.4216C36.3715 47.2749 36.5024 47.115 36.62 46.9521C36.9332 46.5222 36.9274 46.1055 36.5495 45.7137C36.3466 45.5039 36.151 45.2823 35.9319 45.0886C33.7631 43.1665 33.2852 40.766 33.9189 38.0457C33.9645 37.8505 34.0116 37.6539 34.0763 37.4587C34.2513 36.9305 34.6806 36.6884 35.1805 36.8234C35.6408 36.9481 35.876 37.3766 35.7687 37.9019C35.6731 38.3861 35.5525 38.8659 35.4834 39.353C35.2403 41.0707 35.7589 42.5228 37.0391 43.7094C37.3868 44.014 37.7111 44.3441 38.0096 44.6969C38.8153 45.699 38.8462 46.8861 38.1081 47.9454C37.8993 48.2389 37.6508 48.5177 37.4141 48.7965C37.0626 49.2117 37.0538 49.6548 37.4141 50.0334C37.7815 50.3903 38.1747 50.7198 38.5904 51.0194C39.0535 51.376 39.5564 51.6841 40.0063 52.0582C40.4842 52.4574 40.7415 52.9724 40.5548 53.618C40.3681 54.2636 39.874 54.5218 39.2873 54.6025C38.5227 54.7115 37.7524 54.7757 36.9803 54.7947C34.0704 54.8593 31.2178 55.3127 28.3976 56.0023C26.3142 56.536 24.1061 56.2743 22.2059 55.2687C21.5148 54.9107 20.8928 54.4734 20.512 53.64Z" fill="#E1890F"/>
<path opacity="0.6" d="M34.4015 35.1683L29.583 28.7959L41.896 20.5644L41.9637 20.6201C41.8637 20.7757 41.7681 20.9356 41.6696 21.0867C40.0169 23.4344 38.4127 25.8202 36.6894 28.1151C35.8332 29.231 35.2801 30.5486 35.0837 31.9403C34.9455 32.8969 34.7205 33.8477 34.5309 34.7912C34.4953 34.9194 34.4521 35.0453 34.4015 35.1683Z" fill="#E1890F"/>
<path opacity="0.7" d="M21.2736 40.4506C23.1983 40.4506 25.1231 40.4506 27.0478 40.4506C27.7463 40.4506 28.2241 40.8335 28.3903 41.4498C28.4747 41.7335 28.4578 42.0377 28.3425 42.3104C28.2272 42.5831 28.0206 42.8074 27.758 42.945C27.4964 43.074 27.2088 43.1422 26.917 43.1445C23.141 43.1582 19.367 43.1582 15.595 43.1445C14.6598 43.1445 14.1246 42.6794 14.0658 41.9076C14.0011 41.0272 14.5407 40.4521 15.4509 40.4403C17.3947 40.4315 19.3386 40.4403 21.281 40.4403L21.2736 40.4506Z" fill="#E1890F"/>
<path opacity="0.6" d="M21.2239 47.6109C19.3006 47.6109 17.3774 47.6182 15.4556 47.6109C14.6307 47.6109 14.0705 47.065 14.0543 46.3079C14.0381 45.5156 14.5836 44.9742 15.4409 44.9331C15.6056 44.9257 15.7717 44.9331 15.9364 44.9331H26.4305C26.632 44.9331 26.8334 44.9331 27.0349 44.9331C27.8774 44.9683 28.4641 45.5361 28.4479 46.2962C28.4317 47.0562 27.8436 47.6094 26.9937 47.6167C25.0704 47.6167 23.1472 47.6109 21.2239 47.6109Z" fill="#E1890F"/>
<path opacity="0.5" d="M17.9212 49.42H24.6291C24.5953 50.007 24.6158 50.5675 24.5173 51.1104C24.4602 51.3928 24.305 51.646 24.079 51.8254C23.853 52.0047 23.5708 52.0986 23.2822 52.0905C21.925 52.111 20.5693 52.1155 19.2136 52.0905C18.8786 52.0858 18.5582 51.9526 18.3189 51.7184C18.0796 51.4843 17.9398 51.1673 17.9285 50.833C17.8976 50.3782 17.9212 49.9204 17.9212 49.42Z" fill="#E1890F"/>
<path opacity="0.7" d="M33.5765 10.0161C33.3603 9.83269 33.0339 9.6845 32.9413 9.44533C32.8383 9.18122 32.8324 8.73076 32.9942 8.54442C33.6573 7.78876 34.3852 7.0874 35.1204 6.40071C35.4835 6.0603 35.91 6.12926 36.257 6.46527C36.604 6.80128 36.6819 7.24147 36.354 7.59802C35.6732 8.33166 34.9454 9.03889 34.2175 9.73439C34.0852 9.86204 33.8632 9.89432 33.5765 10.0161Z" fill="#E1890F"/>
<path opacity="0.7" d="M9.79579 33.7758C9.64875 34.0693 9.59729 34.304 9.45761 34.4493C8.80034 35.1345 8.13426 35.8109 7.43877 36.4639C7.35956 36.5479 7.26356 36.6144 7.15699 36.6591C7.05041 36.7038 6.93563 36.7256 6.82006 36.7233C6.70448 36.7209 6.5907 36.6944 6.48604 36.6454C6.38138 36.5965 6.28818 36.5261 6.21246 36.4389C6.13024 36.3583 6.06519 36.2618 6.02118 36.1555C5.97717 36.0491 5.95511 35.9349 5.95635 35.8199C5.95758 35.7048 5.98208 35.5912 6.02836 35.4858C6.07464 35.3803 6.14175 35.2853 6.22569 35.2064C6.85943 34.5476 7.49023 33.8859 8.17984 33.2843C8.31143 33.1867 8.46263 33.1188 8.62305 33.0851C8.78347 33.0514 8.9493 33.0528 9.10913 33.0891C9.37968 33.1713 9.56494 33.5293 9.79579 33.7758Z" fill="#E1890F"/>
<path opacity="0.7" d="M8.87694 10.0322C8.58287 9.88546 8.35936 9.82237 8.21233 9.68151C7.53742 9.03884 6.87133 8.3859 6.22583 7.71388C6.14236 7.63465 6.07569 7.53949 6.02977 7.43406C5.98386 7.32862 5.95963 7.21506 5.95854 7.1001C5.95744 6.98515 5.97949 6.87114 6.02339 6.76486C6.06728 6.65857 6.13213 6.56216 6.21408 6.48136C6.57138 6.11747 7.07866 6.10426 7.48743 6.49456C8.14763 7.12549 8.78578 7.77991 9.43128 8.42698C9.72536 8.72044 9.79006 9.09606 9.57832 9.4262C9.41658 9.67271 9.11956 9.82971 8.87694 10.0322Z" fill="#E1890F"/>
<path opacity="0.5" d="M22.1178 2.52263C22.1178 2.97895 22.1325 3.43528 22.1178 3.8916C22.0972 4.43157 21.7649 4.77198 21.2752 4.78078C21.156 4.78863 21.0364 4.77147 20.9242 4.73041C20.812 4.68934 20.7097 4.62527 20.6238 4.54233C20.5379 4.4594 20.4704 4.35943 20.4256 4.24887C20.3808 4.13831 20.3596 4.0196 20.3636 3.90041C20.3381 2.98873 20.3381 2.07608 20.3636 1.16245C20.3783 0.606348 20.7635 0.258601 21.2708 0.273274C21.7781 0.287947 22.0942 0.631293 22.1222 1.21381C22.1222 1.25049 22.1222 1.28717 22.1222 1.32385V2.52849L22.1178 2.52263Z" fill="#E1890F"/>
<path opacity="0.5" d="M2.33372 20.5806C2.75572 20.5806 3.17624 20.5689 3.59678 20.5806C4.18493 20.5997 4.5143 20.9239 4.52165 21.4463C4.52901 21.9686 4.19965 22.3267 3.62767 22.3369C2.71309 22.3531 1.79703 22.3545 0.882448 22.3369C0.76717 22.3418 0.652119 22.323 0.54436 22.2819C0.436601 22.2407 0.338405 22.178 0.255793 22.0977C0.173182 22.0173 0.107903 21.9209 0.0639537 21.8144C0.0200048 21.708 -0.00168705 21.5937 0.000216602 21.4786C-0.0100761 20.9709 0.347233 20.6173 0.905979 20.5821C0.942739 20.5821 0.979499 20.5821 1.01626 20.5821L2.33372 20.5806Z" fill="#E1890F"/>
<path opacity="0.7" d="M37.0435 31.2066L39.6064 31.7128L36.4892 34.6474L36.3848 34.5858L37.0435 31.2066Z" fill="#E1890F"/>
</svg>
