<svg width="57" height="57" viewBox="0 0 57 57" fill="none" xmlns="http://www.w3.org/2000/svg">
<path d="M42.9479 18.7256C43.0446 19.0649 43.0884 19.3076 43.179 19.5307C43.7653 20.9706 44.353 22.4089 44.9649 23.8367C45.0616 24.0623 45.2335 24.2477 45.4514 24.3614C46.2975 24.7247 47.1617 25.0444 48.0274 25.3625C48.3024 25.4635 48.449 25.5796 48.4444 25.9158C48.4233 27.4959 48.4444 29.082 48.4188 30.6545C48.4008 30.7609 48.3585 30.8617 48.2951 30.9491C48.2317 31.0364 48.1488 31.108 48.0531 31.1581C47.2055 31.5184 46.3292 31.8094 45.4846 32.1743C45.2503 32.2956 45.0656 32.4944 44.9619 32.7366C44.3454 34.1629 43.7506 35.5982 43.1775 37.0426C43.081 37.2879 43.0719 37.5588 43.1518 37.81C43.4903 38.6649 43.9073 39.4896 44.2457 40.3429C44.2765 40.4465 44.283 40.5557 44.2647 40.6621C44.2463 40.7685 44.2036 40.8693 44.1399 40.9566C43.041 42.0924 41.922 43.2091 40.7828 44.3067C40.6955 44.3701 40.5947 44.4124 40.4883 44.4305C40.3819 44.4485 40.2727 44.4418 40.1694 44.4107C39.3142 44.0685 38.4862 43.6568 37.6296 43.3176C37.3779 43.2394 37.1068 43.2501 36.8621 43.3478C35.4146 43.9187 33.9763 44.5117 32.547 45.1269C32.3044 45.2313 32.1054 45.4161 31.9834 45.65C31.6254 46.4762 31.3126 47.3236 31.0074 48.1709C30.8971 48.4724 30.7521 48.6096 30.4031 48.6051C28.8569 48.584 27.3118 48.584 25.7677 48.6051C25.4277 48.6051 25.2676 48.4996 25.1543 48.1845C24.8445 47.3175 24.5197 46.4551 24.1571 45.6108C24.0414 45.3935 23.8533 45.2234 23.6253 45.1299C22.195 44.5167 20.7566 43.9237 19.3102 43.3508C19.0652 43.2521 18.7937 43.2404 18.5412 43.3176C17.7011 43.6478 16.8792 44.0187 16.0633 44.4092C15.7339 44.569 15.5345 44.5072 15.2867 44.2584C14.2211 43.1618 13.1418 42.0828 12.0489 41.0214C11.8102 40.7892 11.7558 40.6023 11.9054 40.2917C12.3043 39.4624 12.682 38.6227 13.0234 37.7678C13.1054 37.5348 13.0912 37.2788 12.9841 37.0562C12.2037 35.6823 11.5982 34.2165 11.1817 32.6929C11.1425 32.5851 11.0823 32.4861 11.0045 32.4018C10.9267 32.3174 10.8328 32.2493 10.7284 32.2014C9.86268 31.835 8.98335 31.5033 8.09948 31.1837C7.79731 31.0767 7.70363 30.9259 7.70816 30.6093C7.72529 29.0493 7.72529 27.4914 7.70816 25.9354C7.70816 25.6052 7.83206 25.4756 8.11459 25.3731C8.9637 25.0715 9.80073 24.7263 10.6498 24.4232C10.9656 24.3116 11.1031 24.1217 11.2194 23.8096C11.78 22.3803 12.3949 20.9736 12.9585 19.5458C13.0621 19.2855 13.0733 18.9977 12.9902 18.7302C12.6563 17.8738 12.2348 17.0476 11.8978 16.1957C11.8687 16.1001 11.8621 15.999 11.8787 15.9004C11.8952 15.8018 11.9343 15.7083 11.993 15.6273C13.108 14.4805 14.2412 13.3512 15.3925 12.2395C15.4836 12.1804 15.5871 12.1428 15.695 12.1297C15.8029 12.1167 15.9123 12.1284 16.015 12.1642C16.852 12.5004 17.6769 12.8758 18.4928 13.2557C18.795 13.3929 19.0186 13.3628 19.3283 13.2271C20.7349 12.6074 22.1703 12.0541 23.5814 11.4465C23.8412 11.3346 24.0545 11.1372 24.1858 10.8871C24.5469 10.0624 24.8551 9.2136 25.1618 8.36778C25.2661 8.08132 25.4051 7.96221 25.7299 7.96674C27.2942 7.98584 28.8584 7.98584 30.4227 7.96674C30.7415 7.96674 30.8911 8.06775 30.9953 8.36024C31.2975 9.19098 31.6374 10.0051 31.929 10.8374C32.0529 11.1932 32.2645 11.344 32.612 11.4782C34.0125 12.0164 35.3905 12.6119 36.779 13.1773C37.0373 13.2829 37.3108 13.3447 37.6598 13.4502C37.8713 13.8362 37.7399 14.1845 37.3425 14.5704C35.7334 16.1294 34.1546 17.7185 32.5817 19.3136C32.3279 19.5715 32.1285 19.5941 31.8051 19.4644C25.2797 16.7506 18.2647 21.6099 18.4747 28.6809C18.6258 33.5644 22.6658 37.6366 27.6094 37.8779C32.5953 38.1176 36.995 34.4373 37.6009 29.5599C37.8335 27.8488 37.5942 26.1068 36.9089 24.5212C36.7714 24.2031 36.8243 24.0252 37.06 23.7945C38.6555 22.2205 40.2494 20.6479 41.8117 19.0423C42.1894 18.6578 42.5384 18.5115 42.9479 18.7256Z" fill="#E1890F"/>
<path opacity="0.8" d="M47.0698 1.59064C47.4128 3.16618 47.7482 4.70553 48.1274 6.41526C48.8103 5.70664 49.395 5.07793 50.0054 4.47486C50.1936 4.27245 50.4414 4.13502 50.713 4.08244C50.9846 4.02985 51.2659 4.06485 51.5163 4.18236C52.027 4.39947 52.3715 4.82012 52.3156 5.36439C52.2662 5.78393 52.0944 6.17976 51.8215 6.5027C51.2927 7.10578 50.6687 7.62292 49.9843 8.26972L54.878 9.34018C54.7118 9.5196 54.603 9.64172 54.4867 9.76233C51.9817 12.2636 49.4706 14.7573 46.9791 17.2706C46.8675 17.4044 46.7185 17.5019 46.5512 17.5507C46.3838 17.5996 46.2056 17.5976 46.0394 17.545C44.7763 17.2435 43.5026 16.9962 42.238 16.7022C42.0785 16.6558 41.9087 16.6572 41.75 16.7063C41.5912 16.7553 41.4504 16.8499 41.3451 16.9782C38.2105 20.1262 35.0679 23.2672 31.9172 26.4012C31.7955 26.5375 31.6834 26.6821 31.5818 26.8339L29.6025 24.8363C29.6464 24.7895 29.7793 24.6448 29.9183 24.5046C33.076 21.3515 36.2363 18.2014 39.3991 15.0543C39.5331 14.9427 39.6305 14.7935 39.6787 14.6261C39.7269 14.4587 39.7237 14.2807 39.6695 14.115C39.3598 12.8184 39.0893 11.5128 38.8325 10.2041C38.8123 10.1022 38.8134 9.99724 38.8358 9.89579C38.8581 9.79435 38.9012 9.69861 38.9624 9.61458C41.6024 6.95501 44.252 4.30599 46.9111 1.66753C46.9609 1.63595 47.0141 1.61015 47.0698 1.59064Z" fill="#E1890F"/>
<path opacity="0.6" d="M5.40131 11.7691C4.69271 11.9651 4.10044 12.134 3.50364 12.2908C2.90685 12.4476 2.42337 12.2154 2.29494 11.7073C2.15443 11.1751 2.41884 10.7424 3.02168 10.5675C4.53256 10.1272 6.05703 9.68999 7.58 9.26632C8.35961 9.05072 8.83252 9.40654 8.86576 10.2116C8.93123 11.7525 8.99165 13.2934 9.04705 14.8342C9.07274 15.5308 8.72826 15.968 8.16622 15.9801C7.60417 15.9921 7.28386 15.6092 7.24911 14.9247C7.21134 14.1709 7.17811 13.4291 7.13882 12.5848C7.00435 12.7355 6.9137 12.8079 6.84571 12.9014C3.13651 18.0863 1.36878 23.8683 1.95047 30.2112C2.95671 41.2309 8.79625 48.8101 19.0642 52.7904C26.4146 55.64 33.694 54.9645 40.6697 51.2571C40.8525 51.1591 41.0293 51.049 41.2136 50.9556C41.7424 50.6947 42.2471 50.8123 42.4964 51.248C42.5648 51.3569 42.6082 51.4794 42.6237 51.607C42.6392 51.7345 42.6263 51.8639 42.5858 51.9858C42.5454 52.1078 42.4785 52.2194 42.39 52.3126C42.3014 52.4058 42.1932 52.4784 42.0733 52.5251C40.2089 53.3784 38.3868 54.3735 36.4453 54.9766C21.1945 59.8012 4.80603 50.7038 0.915519 35.2258C-1.14683 27.0194 0.29454 19.3468 5.04323 12.3164C5.14295 12.1686 5.23965 12.0179 5.40131 11.7691Z" fill="#E1890F"/>
<path opacity="0.5" d="M49.0233 44.0382C51.1114 41.2475 52.5603 38.3166 53.4049 35.1021C55.1172 28.5779 54.4439 22.3033 51.3848 16.2786C51.1355 15.7886 51.1854 15.5248 51.5767 15.1961C51.8904 14.9032 52.1875 14.5932 52.4666 14.2673C57.8438 24.8453 57.3014 34.9318 50.8424 44.7634C51.4468 44.5976 52.0285 44.4302 52.6207 44.2719C53.213 44.1136 53.7101 44.3232 53.8597 44.8162C54.0243 45.359 53.7554 45.8128 53.1178 45.9982C51.6069 46.4395 50.088 46.8712 48.561 47.2934C47.8177 47.4999 47.3312 47.1426 47.2979 46.3887C47.2314 44.8298 47.17 43.2718 47.1136 41.7149C47.0894 41.0394 47.4082 40.6263 47.9551 40.5932C48.5293 40.557 48.8768 40.9384 48.913 41.6486C48.9508 42.3888 48.9841 43.1351 49.0233 44.0382Z" fill="#E1890F"/>
<path opacity="0.5" d="M42.0629 4.01653C41.6323 4.41607 41.2802 4.78696 40.8783 5.09151C40.7888 5.13475 40.6907 5.15721 40.5913 5.15721C40.4918 5.15721 40.3937 5.13475 40.3042 5.09151C37.7486 3.75437 34.9886 2.84905 32.1364 2.41234C26.2591 1.52431 20.7051 2.50129 15.4714 5.3056C15.2886 5.4036 15.1133 5.51517 14.9275 5.60714C14.4047 5.86345 13.8925 5.73379 13.6493 5.29204C13.5856 5.18591 13.5454 5.0674 13.5314 4.94449C13.5174 4.82158 13.53 4.6971 13.5682 4.57942C13.6064 4.46174 13.6694 4.35358 13.753 4.26221C13.8365 4.17085 13.9387 4.09839 14.0527 4.0497C15.754 3.25364 17.422 2.34299 19.1897 1.76252C26.8801 -0.753815 34.3302 -0.0647972 41.4933 3.6969C41.6504 3.7753 41.7939 3.86576 42.0629 4.01653Z" fill="#E1890F"/>
<path opacity="0.7" d="M31.3085 26.9334C31.6384 27.6928 31.6865 28.5445 31.4443 29.336C31.202 30.1276 30.6852 30.8071 29.9865 31.253C29.2808 31.7014 28.4392 31.8868 27.6099 31.7765C26.7807 31.6662 26.0171 31.2672 25.4539 30.6499C24.887 30.0249 24.5616 29.219 24.5358 28.3765C24.5101 27.5339 24.7857 26.7097 25.3133 26.0514C26.2848 24.8453 28.0918 24.3719 29.4395 25.1016C29.0014 25.4906 28.5783 25.8313 28.1961 26.2112C27.5071 26.8972 27.4709 27.7189 28.0737 28.2994C28.6766 28.8799 29.4562 28.815 30.1285 28.1486C30.5213 27.7853 30.8824 27.3857 31.3085 26.9334Z" fill="#E1890F"/>
</svg>
