<svg width="308" height="223" viewBox="0 0 308 223" fill="none" xmlns="http://www.w3.org/2000/svg">
<g opacity="0.3">
<g clip-path="url(#clip0_804_5399)">
<path d="M236.452 0.272827V288.069H308.152V298.273H0V288.284H71.6571V0.272827H236.452ZM110.822 177.041C112.54 179.909 114.516 183.053 116.431 186.274C116.826 186.892 117.065 187.598 117.127 188.329C117.189 189.061 117.072 189.797 116.786 190.473C116.501 191.149 116.055 191.746 115.487 192.211C114.919 192.677 114.247 192.997 113.528 193.145C109.938 194.072 106.339 194.94 102.809 195.825V216.06C106.038 216.833 109.156 217.554 112.257 218.31C117.178 219.513 118.372 222.347 115.77 226.599L110.788 234.792L125.26 249.222C128.232 247.409 131.41 245.443 134.614 243.536C135.213 243.172 135.89 242.953 136.589 242.898C137.288 242.842 137.99 242.951 138.64 243.216C139.289 243.48 139.868 243.893 140.329 244.422C140.79 244.95 141.121 245.579 141.296 246.259C142.223 249.874 143.082 253.508 143.975 257.166H164.254C165.156 253.482 165.972 249.943 166.891 246.422C167.047 245.708 167.373 245.043 167.843 244.483C168.312 243.924 168.91 243.486 169.586 243.209C170.261 242.931 170.994 242.821 171.721 242.888C172.449 242.956 173.149 243.199 173.762 243.596C176.948 245.511 180.118 247.452 182.866 249.127L197.364 234.621C195.595 231.726 193.611 228.557 191.695 225.345C191.35 224.735 191.15 224.054 191.112 223.355C191.073 222.656 191.197 221.957 191.473 221.314C191.749 220.67 192.17 220.099 192.703 219.645C193.237 219.191 193.867 218.867 194.547 218.697C198.154 217.795 201.77 216.919 205.438 216.026V195.722L196.419 193.591C190.793 192.252 189.711 189.709 192.683 184.822C194.332 182.108 195.964 179.385 197.708 176.508L191.524 170.496C188.844 167.919 186.37 163.573 183.398 163.17C180.427 162.766 177 166.339 173.779 168.194C173.166 168.583 172.47 168.821 171.747 168.886C171.024 168.951 170.296 168.843 169.624 168.57C168.951 168.297 168.354 167.867 167.882 167.316C167.409 166.765 167.075 166.109 166.908 165.403C165.989 161.804 165.121 158.197 164.228 154.572H143.975C143.117 158.274 142.206 161.898 141.287 165.514C141.116 166.194 140.788 166.824 140.33 167.355C139.872 167.885 139.296 168.301 138.648 168.569C138 168.837 137.299 168.95 136.6 168.898C135.901 168.846 135.224 168.632 134.622 168.271C131.41 166.365 128.232 164.398 125.286 162.594L110.822 177.041ZM148.811 10.5108H82.3159V40.9928H148.828L148.811 10.5108ZM159.478 10.5108V40.9928H225.939V10.4764L159.478 10.5108ZM148.811 51.7375H82.3159V82.2194H148.777L148.811 51.7375ZM225.888 82.2538V51.7632H159.418V82.2452L225.888 82.2538ZM82.3159 92.8095V123.291H148.777V92.8095H82.3159ZM225.879 123.403V92.9297H159.418V123.403H225.879ZM181.775 272.231C180.435 269.036 179.199 266.03 177.936 263.067C149.73 271.304 138.204 269.139 111.166 250.639L104.458 257.708C123.053 276.809 155.261 283.843 181.775 272.231ZM130.293 148.689C154.915 139.762 177.146 143.931 196.986 161.194L203.703 154.117C184.953 134.328 151.371 128.144 126.549 139.593L130.293 148.689ZM111.235 161.186L120.76 153.627L115.134 144.996L104.166 153.748L111.235 161.186ZM204.081 258.008L196.986 250.579C193.705 253.155 190.63 255.603 187.452 258.103L193.027 266.769L204.081 258.008Z" fill="#E1890F"/>
<path opacity="0.6" d="M23.209 259.004C23.209 253.438 23.0286 247.838 23.2777 242.29C23.4065 239.413 22.4188 237.996 19.7133 237.283C17.7802 236.658 15.8821 235.93 14.0275 235.101C12.7869 234.728 11.7133 233.938 10.9886 232.864C10.2639 231.79 9.93257 230.499 10.0508 229.209C10.1624 223.643 10.1539 218.044 10.0508 212.495C9.95863 211.368 10.2138 210.239 10.7819 209.261C11.35 208.283 12.2038 207.502 13.2287 207.024C18.2446 204.396 23.2434 201.707 28.3366 199.217C28.8477 199.022 29.3923 198.929 29.9392 198.946C30.4861 198.962 31.0243 199.086 31.523 199.311C36.4187 201.716 41.2113 204.327 46.0726 206.818C47.1594 207.284 48.0741 208.077 48.6897 209.087C49.3054 210.096 49.5914 211.273 49.5081 212.452C49.4051 218.129 49.4222 223.807 49.5081 229.493C49.6106 230.675 49.3111 231.858 48.6581 232.849C48.005 233.84 47.0365 234.582 45.9094 234.955L44.7241 235.462C42.0014 236.647 38.2996 237.18 36.8395 239.224C35.3794 241.268 36.4273 244.806 36.4273 247.692C36.4273 257.226 36.4273 266.768 36.4273 276.302C36.4273 280.665 33.9451 283.121 29.7108 283.053C25.4764 282.984 23.2777 280.657 23.2433 276.371C23.1746 270.582 23.209 264.793 23.209 259.004Z" fill="#E1890F"/>
<path opacity="0.7" d="M276.167 259.116C276.167 253.104 276.098 247.092 276.167 241.131C276.167 239.353 275.695 238.4 273.968 237.85C271.727 237.137 269.588 236.133 267.381 235.342C264.297 234.234 262.751 232.233 262.837 228.815C262.974 223.464 262.932 218.113 262.837 212.762C262.728 211.582 262.983 210.397 263.569 209.367C264.154 208.337 265.04 207.51 266.109 206.999C271.134 204.379 276.115 201.683 281.2 199.192C281.718 199.002 282.269 198.916 282.82 198.939C283.371 198.963 283.912 199.095 284.412 199.329C289.299 201.734 294.101 204.336 298.936 206.844C300.063 207.357 301.004 208.204 301.631 209.271C302.258 210.337 302.541 211.572 302.44 212.805C302.346 218.268 302.363 223.722 302.44 229.184C302.549 230.476 302.213 231.766 301.489 232.841C300.764 233.915 299.694 234.71 298.455 235.093C297.055 235.626 295.681 236.218 294.29 236.76C289.136 238.761 289.136 238.761 289.136 244.412C289.136 255.011 289.136 265.604 289.136 276.191C289.136 280.683 286.834 283.062 282.583 283.062C278.331 283.062 276.107 280.7 276.098 276.191C276.158 270.471 276.176 264.794 276.167 259.116Z" fill="#E1890F"/>
<path d="M303.12 41.0532V51.4114H269.554L275.893 58.1194L268.781 64.6898L250.659 46.5759L269.254 28.0325L275.747 35.2386L269.554 40.0569L270.155 41.0532H303.12Z" fill="#E1890F"/>
<path opacity="0.5" d="M303.111 113.122V123.48H269.554L275.884 130.128C273.454 132.55 271.152 134.86 269.013 136.999L250.659 118.627L269.219 100.024L275.996 107.153L269.554 112.143L270.138 113.122H303.111Z" fill="#E1890F"/>
<path opacity="0.5" d="M39.1063 64.9389L32.4156 58.0678L38.5566 51.6433H5.18018V41.2594H38.9774L32.0119 35.3073L39.6216 28.4362L57.6583 46.4728L39.1063 64.9389Z" fill="#E1890F"/>
<path d="M38.6659 112.126L31.9924 106.896L39.0009 100.093L57.4842 118.473L39.104 136.905L32.6795 129.837L38.4855 123.713H5.20361V113.355H37.9273L38.6659 112.126Z" fill="#E1890F"/>
<path opacity="0.7" d="M282.625 193.858C278.03 188.704 273.779 183.594 275.033 175.89C275.634 172.179 278.116 169.878 282.677 169.878C287.237 169.878 290.08 172.111 290.286 175.89C290.724 183.723 289.075 187.579 282.625 193.858Z" fill="#E1890F"/>
<path opacity="0.6" d="M29.7173 194.236C27.4155 191.084 24.3321 188.361 23.2842 185.003C22.1505 181.361 22.3566 177.032 23.0351 173.184C23.5161 170.419 28.6008 169.208 32.3112 170.187C36.0216 171.166 36.8117 172.841 37.3958 176.534C38.5982 184.144 34.0031 188.902 29.7173 194.236Z" fill="#E1890F"/>
<path opacity="0.7" d="M152.109 165.025C155.252 163.968 156.807 165.025 156.927 168.134C157.142 173.425 160.242 175.744 164.915 177.788C170.394 180.184 175.015 181.06 179.67 176.663C180.744 175.649 181.826 175.271 183.235 176.663C184.781 178.166 184.265 179.325 183.235 180.494C179.232 184.951 179.67 189.314 182.015 194.682C184.145 199.561 186.542 202.816 192.047 203.134C193.037 203.279 194.009 203.524 194.95 203.864C196.024 207.05 194.899 208.622 191.85 208.742C186.387 208.957 184.119 212.255 182.067 217.005C179.705 222.347 179.104 226.71 183.158 231.211C184.154 232.31 184.875 233.435 183.346 235.05C181.629 236.828 180.383 235.849 179.258 234.835C174.964 230.936 170.79 231.554 165.636 233.667C160.311 235.84 157.047 238.597 156.73 244.455C156.611 245.243 156.403 246.015 156.111 246.757C152.968 247.805 151.422 246.757 151.293 243.648C151.069 238.202 147.771 235.978 143.03 233.839C137.662 231.426 133.333 230.953 128.841 234.956C127.733 235.943 126.6 236.673 124.994 235.136C123.276 233.418 124.135 232.19 125.183 231.039C129.065 226.745 128.489 222.596 126.376 217.409C124.195 212.058 121.412 208.82 115.58 208.502C114.943 208.417 114.318 208.262 113.716 208.038C113.537 207.955 113.369 207.848 113.218 207.72C112.248 204.757 113.296 203.228 116.396 203.091C121.644 202.859 124.032 199.801 126.05 195.086C128.386 189.606 129.34 184.977 124.899 180.33C123.877 179.257 123.516 178.132 124.899 176.757C126.282 175.383 127.295 175.495 128.463 176.577C133.196 180.983 137.911 180.348 143.494 177.762C147.892 175.735 150.949 173.674 151.172 168.572C151.347 167.358 151.661 166.167 152.109 165.025ZM154.05 226.453C158.127 226.473 162.119 225.284 165.52 223.035C168.921 220.787 171.579 217.58 173.158 213.821C174.737 210.062 175.165 205.919 174.389 201.916C173.613 197.913 171.667 194.231 168.798 191.334C165.929 188.437 162.265 186.456 158.27 185.642C154.275 184.827 150.128 185.216 146.354 186.759C142.58 188.301 139.348 190.928 137.067 194.308C134.786 197.687 133.558 201.668 133.54 205.745C133.514 211.21 135.661 216.462 139.507 220.345C143.353 224.229 148.584 226.425 154.05 226.453Z" fill="#E1890F"/>
<path d="M138.608 20.8264V30.6693H92.623V20.8264H138.608Z" fill="#E1890F"/>
<path opacity="0.7" d="M169.604 30.7208V20.8951H215.589V30.7208H169.604Z" fill="#E1890F"/>
<path opacity="0.7" d="M138.531 62.0182V71.9212H92.623V62.0182H138.531Z" fill="#E1890F"/>
<path d="M169.683 71.8697V61.9667H215.564V71.8697H169.683Z" fill="#E1890F"/>
<path d="M138.479 113.105H92.623V103.176H138.471L138.479 113.105Z" fill="#E1890F"/>
<path opacity="0.6" d="M169.683 113.036V103.125H215.573V113.036H169.683Z" fill="#E1890F"/>
<path opacity="0.6" d="M154.205 216.163C152.161 216.19 150.155 215.609 148.442 214.493C146.729 213.377 145.386 211.777 144.585 209.896C143.784 208.016 143.56 205.939 143.942 203.931C144.324 201.922 145.295 200.073 146.731 198.618C148.167 197.163 150.003 196.167 152.006 195.759C154.009 195.35 156.088 195.545 157.979 196.321C159.871 197.097 161.488 198.418 162.627 200.116C163.766 201.814 164.374 203.812 164.374 205.856C164.357 208.56 163.284 211.151 161.384 213.076C159.485 215.002 156.909 216.109 154.205 216.163Z" fill="#E1890F"/>
</g>
</g>
<defs>
<clipPath id="clip0_804_5399">
<path d="M0 0.272827H308V172.273C308 199.887 285.614 222.273 258 222.273H16C7.16345 222.273 0 215.109 0 206.273V0.272827Z" fill="white"/>
</clipPath>
</defs>
</svg>
