<svg width="80" height="80" viewBox="0 0 80 80" fill="none" xmlns="http://www.w3.org/2000/svg">
<path d="M62.517 40.895C64.4677 28.8513 56.2856 17.5066 44.2419 15.556C32.1982 13.6053 20.8535 21.7873 18.9028 33.8311C16.9522 45.8748 25.1342 57.2195 37.178 59.1702C49.2217 61.1208 60.5664 52.9388 62.517 40.895Z" fill="#D3D3D3"/>
<path d="M40.7192 17.6956C52.5135 17.6956 62.1471 26.9389 62.776 38.5764C62.7978 38.1757 62.8105 37.7721 62.8105 37.3659C62.8105 25.1655 52.9196 15.2747 40.7192 15.2747C28.5188 15.2747 18.6279 25.1649 18.6279 37.3659C18.6279 37.7721 18.6406 38.1757 18.6624 38.5764C19.2913 26.9389 28.9249 17.6956 40.7192 17.6956Z" fill="white"/>
<path d="M58.1843 76.0611H23.2547C22.9336 76.0611 22.6257 75.9336 22.3987 75.7066C22.1717 75.4796 22.0442 75.1717 22.0442 74.8506V59.4533C22.0442 55.4424 25.2961 52.1904 29.3071 52.1904H52.1319C56.1428 52.1904 59.3948 55.4424 59.3948 59.4533V74.8506C59.3948 75.1717 59.2673 75.4796 59.0402 75.7066C58.8132 75.9336 58.5054 76.0611 58.1843 76.0611Z" fill="#E08812"/>
<path d="M40.7196 71.0745L48.4092 52.1904H33.03L40.7196 71.0745Z" fill="#D3D3D3"/>
<path d="M52.2047 58.2434L50.0343 52.1904H48.4092L40.7197 71.0745L49.2548 64.3207L47.4875 61.3677L52.2047 58.2434ZM29.2346 58.2434L31.4056 52.1904H33.0301L40.7197 71.0745L32.1852 64.3207L33.9525 61.3677L29.2346 58.2434Z" fill="#E08812"/>
<path d="M40.7193 53.7863L38.187 56.9147L39.5409 61.0134H41.8983L43.2517 56.9147L40.7193 53.7863ZM40.7193 71.0743L42.2748 67.2553L41.8983 61.0134H39.5409L39.1645 67.2553L40.7193 71.0743Z" fill="#E08812"/>
<path d="M52.4527 42.232C52.4527 48.6845 47.1998 53.915 40.7195 53.915C34.2392 53.915 28.9863 48.6845 28.9863 42.232C28.9863 35.7796 34.2398 30.5491 40.7195 30.5491C47.1998 30.5491 52.4527 35.7802 52.4527 42.232Z" fill="white"/>
<path d="M40.719 3.93115L36.0012 8.64961H38.4705V12.1195H42.9675V8.64961H45.4375L40.719 3.93115ZM74.1676 36.9083L69.4492 32.1904V34.6598H65.9793V39.1574H69.4492V41.6267L74.1676 36.9083ZM7.271 36.9083L11.9888 32.1904V34.6598H15.4587V39.1574H11.9888V41.6267L7.271 36.9083ZM64.3706 13.2573H57.6978L59.4445 15.0034L56.9909 17.4565L60.1708 20.637L62.6245 18.1834L64.3706 19.9295V13.2573Z" fill="#E08812"/>
<path d="M17.0674 13.2572H23.7402L21.994 15.0033L24.4471 17.4564L21.2671 20.6369L18.8135 18.1833L17.0674 19.9294V13.2572Z" fill="#E08812"/>
<path d="M40.7192 14.6694C28.2041 14.6694 18.0227 24.8508 18.0227 37.366C18.0227 43.5364 20.5066 49.1312 24.5163 53.2263C22.6492 54.6661 21.4387 56.9182 21.4387 59.4536V62.7158C21.4387 62.8764 21.5024 63.0303 21.616 63.1438C21.7295 63.2573 21.8834 63.3211 22.0439 63.3211C22.2044 63.3211 22.3584 63.2573 22.4719 63.1438C22.5854 63.0303 22.6492 62.8764 22.6492 62.7158V59.4536C22.6492 55.7828 25.636 52.796 29.3068 52.796H30.5451L28.6646 58.0398C28.619 58.1672 28.6173 58.3063 28.66 58.4348C28.7027 58.5632 28.7872 58.6737 28.9001 58.7485L33.1356 61.5538L31.6648 64.0105C31.5087 64.2713 31.5704 64.6072 31.8083 64.7961L40.114 71.3671V75.4562H23.2544C22.9209 75.4562 22.6492 75.1844 22.6492 74.8509V71.6801C22.6492 71.5195 22.5854 71.3656 22.4719 71.2521C22.3584 71.1386 22.2044 71.0748 22.0439 71.0748C21.8834 71.0748 21.7295 71.1386 21.616 71.2521C21.5024 71.3656 21.4387 71.5195 21.4387 71.6801V74.8509C21.4387 75.852 22.2533 76.6666 23.2544 76.6666H58.184C59.1851 76.6666 59.9998 75.852 59.9998 74.8509V59.4536C59.9998 56.9182 58.7893 54.6661 56.9221 53.2263C60.9324 49.1312 63.4157 43.5364 63.4157 37.366C63.4157 24.8508 53.2344 14.6694 40.7192 14.6694ZM62.1901 36.7607H52.3622C52.3181 33.3018 51.8956 30.0583 51.1693 27.1779C53.6998 26.5098 55.9816 25.5964 57.8911 24.4677C60.5685 28.0181 62.0713 32.3155 62.1901 36.7607ZM57.1249 23.5126C55.337 24.5482 53.2108 25.3907 50.8528 26.0122C49.586 21.6581 47.599 18.2519 45.1877 16.3502C49.9316 17.3579 54.0999 19.9362 57.1249 23.5126ZM41.3245 15.9187C44.8627 16.3369 47.9343 20.3968 49.6653 26.3022C47.0773 26.8856 44.2532 27.213 41.3245 27.253V15.9187ZM41.3245 28.4629C44.3585 28.4223 47.2903 28.0797 49.9812 27.4685C50.6107 29.9524 51.0083 32.7201 51.1215 35.6513C50.0603 33.9916 48.6171 32.6102 46.9127 31.6225C45.2083 30.6348 43.2921 30.0696 41.3245 29.9742V28.4629ZM40.7192 31.1544C46.8552 31.1544 51.8472 36.124 51.8472 42.2321C51.8472 48.3402 46.8552 53.3104 40.7192 53.3104C34.5833 53.3104 29.5913 48.3408 29.5913 42.2327C29.5913 36.1246 34.5833 31.1544 40.7192 31.1544ZM46.9677 61.6791L48.4627 64.1757L42.1476 69.1732L48.8161 52.796H49.6084L51.4743 58.0016L47.1523 60.8638C47.0226 60.9499 46.9311 61.0826 46.8967 61.2345C46.8623 61.3863 46.8877 61.5455 46.9677 61.6791ZM37.9599 58.1572L38.9295 61.0938L38.7201 64.5606L36.7307 59.6757L37.9599 58.1572ZM36.2102 58.3956L33.9302 52.796H34.4483C35.9628 53.6965 37.6534 54.2602 39.4052 54.4489L39.381 54.4785L36.2102 58.3956ZM38.8654 57.0387L40.7192 54.7485L42.5731 57.0393L41.46 60.4087H39.9778L38.8654 57.0387ZM42.0338 54.4489C43.7857 54.2605 45.4764 53.6967 46.9907 52.796H47.5088L45.2289 58.3956L42.0338 54.4489ZM44.7071 59.6757L42.7177 64.5606L42.5083 61.0938L43.4779 58.1578L44.7071 59.6757ZM30.317 35.6519C30.4301 32.7207 30.8278 29.953 31.4572 27.4691C34.1487 28.0804 37.0799 28.4229 40.114 28.4635V29.9748C38.1463 30.0698 36.2299 30.6348 34.5254 31.6225C32.8209 32.6103 31.3778 33.9919 30.317 35.6519ZM40.114 15.9187V27.253C37.1852 27.213 34.3612 26.8856 31.7732 26.3022C33.5042 20.3968 36.5757 16.3369 40.114 15.9187ZM36.2513 16.3502C33.8395 18.2519 31.8531 21.6581 30.5857 26.0122C28.2277 25.3907 26.1009 24.5482 24.3136 23.5126C27.3386 19.9362 31.5069 17.3579 36.2513 16.3502ZM23.5479 24.4671C25.4569 25.5958 27.7386 26.5098 30.2691 27.1773C29.5422 30.0583 29.1204 33.3012 29.0762 36.7601H19.2483C19.3675 32.3149 20.8705 28.0175 23.5479 24.4671ZM19.2489 37.9712H29.0756C29.0768 38.0426 29.0823 38.1104 29.0835 38.1818C28.6209 39.4824 28.3831 40.8523 28.3802 42.2327C28.3802 44.2046 28.8601 46.0633 29.693 47.7162C27.3961 48.3662 25.3165 49.2202 23.5558 50.26C20.8759 46.712 19.3703 42.4159 19.2489 37.9712ZM29.3068 51.5855C27.945 51.5855 26.6631 51.9341 25.5446 52.5454C25.1179 52.1195 24.7092 51.6758 24.3196 51.2157C26.0349 50.2231 28.0642 49.4102 30.3079 48.7971C30.4858 49.0761 30.6759 49.3455 30.875 49.6081C31.0905 50.2757 31.3306 50.935 31.5946 51.5849L29.3068 51.5855ZM32.977 64.1757L34.4713 61.6791C34.5514 61.5455 34.5768 61.3862 34.5423 61.2343C34.5078 61.0824 34.416 60.9497 34.2861 60.8638L29.9641 58.0016L31.8307 52.7966H32.6229L39.2915 69.1738L32.977 64.1757ZM39.7763 67.1541L40.1103 61.6191H41.3281L41.6622 67.1541L40.7192 69.4691L39.7763 67.1541ZM58.7893 59.4536V74.8509C58.7893 75.1844 58.5175 75.4562 58.184 75.4562H41.3245V71.3678L49.6302 64.7954C49.7454 64.7042 49.8235 64.5742 49.8499 64.4297C49.8762 64.2851 49.8491 64.1359 49.7736 64.0098L48.3029 61.5532L52.5384 58.7485C52.6512 58.6737 52.7357 58.5632 52.7784 58.4348C52.8211 58.3063 52.8195 58.1672 52.7738 58.0398L50.8939 52.796H52.1316C55.803 52.796 58.7893 55.7828 58.7893 59.4536ZM55.8938 52.5454C54.7404 51.9143 53.4464 51.5842 52.1316 51.5855H49.8432C50.1074 50.9361 50.3475 50.2771 50.5629 49.61C50.7626 49.3467 50.9526 49.0774 51.1306 48.7977C53.3742 49.4108 55.4036 50.2231 57.1182 51.2163C56.729 51.6764 56.3205 52.1198 55.8938 52.5454ZM57.882 50.2594C56.1214 49.2196 54.0418 48.3662 51.7449 47.7162C52.6061 46.0165 53.0558 44.1381 53.0577 42.2327C53.0547 40.8521 52.8169 39.482 52.3544 38.1812C52.3556 38.1104 52.3616 38.0426 52.3622 37.9718H62.1889C62.0682 42.4163 60.5625 46.7121 57.882 50.2594Z" fill="#474747"/>
<path d="M22.044 69.9028C22.2045 69.9028 22.3584 69.839 22.4719 69.7255C22.5854 69.612 22.6492 69.4581 22.6492 69.2975V65.2878C22.6492 65.1273 22.5854 64.9734 22.4719 64.8599C22.3584 64.7464 22.2045 64.6826 22.044 64.6826C21.8834 64.6826 21.7295 64.7464 21.616 64.8599C21.5025 64.9734 21.4387 65.1273 21.4387 65.2878V69.2975C21.4387 69.4581 21.5025 69.612 21.616 69.7255C21.7295 69.839 21.8834 69.9028 22.044 69.9028ZM36.0014 9.25466H37.8656V12.1187C37.8656 12.2792 37.9293 12.4331 38.0428 12.5466C38.1563 12.6601 38.3103 12.7239 38.4708 12.7239H42.9683C43.1289 12.7239 43.2828 12.6601 43.3963 12.5466C43.5098 12.4331 43.5736 12.2792 43.5736 12.1187V9.25466H45.4377C45.5572 9.25406 45.6737 9.21822 45.7729 9.15161C45.872 9.08501 45.9493 8.99062 45.995 8.88028C46.0407 8.76994 46.0528 8.64856 46.0298 8.53136C46.0068 8.41417 45.9497 8.30638 45.8656 8.22152L41.1478 3.50306C41.0321 3.39385 40.879 3.33301 40.7199 3.33301C40.5608 3.33301 40.4077 3.39385 40.292 3.50306L35.5741 8.22152C35.4895 8.30612 35.4319 8.4139 35.4086 8.53123C35.3852 8.64856 35.3971 8.77019 35.4429 8.88074C35.4886 8.99129 35.566 9.08581 35.6655 9.15237C35.7649 9.21892 35.8818 9.25452 36.0014 9.25466ZM40.7193 4.78678L43.9761 8.04418H42.9677C42.8072 8.04418 42.6533 8.10795 42.5398 8.22145C42.4263 8.33496 42.3625 8.4889 42.3625 8.64942V11.5134H39.0754V8.64942C39.0754 8.4889 39.0117 8.33496 38.8982 8.22145C38.7847 8.10795 38.6307 8.04418 38.4702 8.04418H37.4619L40.7193 4.78678ZM74.5958 36.4802L69.8779 31.7623C69.7935 31.6771 69.6856 31.619 69.5681 31.5953C69.4505 31.5716 69.3285 31.5835 69.2177 31.6294C69.1069 31.6753 69.0122 31.7531 68.9458 31.853C68.8794 31.9529 68.8442 32.0703 68.8448 32.1903V34.0544H65.9802C65.8197 34.0544 65.6657 34.1182 65.5522 34.2317C65.4387 34.3452 65.375 34.4991 65.375 34.6596V39.1572C65.375 39.3177 65.4387 39.4716 65.5522 39.5851C65.6657 39.6986 65.8197 39.7624 65.9802 39.7624H68.8448V41.6266C68.8454 41.746 68.8812 41.8626 68.9478 41.9617C69.0144 42.0609 69.1088 42.1381 69.2192 42.1838C69.3295 42.2295 69.4509 42.2416 69.5681 42.2186C69.6853 42.1956 69.7931 42.1385 69.8779 42.0545L74.5958 37.3366C74.8318 37.1 74.8318 36.7168 74.5958 36.4802ZM70.0547 40.1655V39.1572C70.0547 38.9967 69.9909 38.8427 69.8774 38.7292C69.7639 38.6157 69.6099 38.5519 69.4494 38.5519H66.5848V35.2649H69.4494C69.6099 35.2649 69.7639 35.2011 69.8774 35.0876C69.9909 34.9741 70.0547 34.8202 70.0547 34.6596V33.6513L73.3115 36.9081L70.0547 40.1655ZM15.459 34.0544H12.595V32.1903C12.5944 32.0708 12.5585 31.9542 12.4919 31.8551C12.4253 31.756 12.3309 31.6787 12.2206 31.633C12.1102 31.5873 11.9889 31.5752 11.8717 31.5982C11.7545 31.6212 11.6467 31.6783 11.5618 31.7623L6.84396 36.4802C6.78771 36.5364 6.74308 36.6031 6.71263 36.6765C6.68218 36.7499 6.6665 36.8286 6.6665 36.9081C6.6665 36.9876 6.68218 37.0663 6.71263 37.1397C6.74308 37.2131 6.78771 37.2798 6.84396 37.336L11.5618 42.0539C11.6465 42.1385 11.7543 42.1961 11.8717 42.2194C11.9891 42.2428 12.1107 42.2308 12.2213 42.185C12.3319 42.1392 12.4264 42.0616 12.4929 41.9621C12.5594 41.8626 12.5949 41.7456 12.595 41.6259V39.7618H15.459C15.6195 39.7618 15.7734 39.698 15.8869 39.5845C16.0004 39.471 16.0642 39.3171 16.0642 39.1566V34.659C16.064 34.4986 16.0002 34.3448 15.8867 34.2314C15.7732 34.1181 15.6194 34.0544 15.459 34.0544ZM14.8537 38.5519H11.9897C11.8292 38.5519 11.6753 38.6157 11.5617 38.7292C11.4482 38.8427 11.3845 38.9967 11.3845 39.1572V40.1655L8.12707 36.9081L11.3839 33.6513V34.6596C11.3839 34.8202 11.4476 34.9741 11.5611 35.0876C11.6746 35.2011 11.8286 35.2649 11.9891 35.2649H14.8531L14.8537 38.5519ZM64.3709 12.6519H57.6981C57.5787 12.6525 57.4621 12.6883 57.3629 12.7549C57.2638 12.8215 57.1865 12.9159 57.1408 13.0263C57.0951 13.1366 57.083 13.258 57.106 13.3752C57.129 13.4924 57.1861 13.6002 57.2702 13.685L58.5884 15.0032L56.5626 17.029C56.5064 17.0851 56.4618 17.1518 56.4313 17.2253C56.4009 17.2987 56.3852 17.3774 56.3852 17.4569C56.3852 17.5364 56.4009 17.6151 56.4313 17.6885C56.4618 17.7619 56.5064 17.8286 56.5626 17.8848L59.7426 21.0647C59.7987 21.1211 59.8653 21.1659 59.9388 21.1964C60.0122 21.227 60.091 21.2427 60.1705 21.2427C60.25 21.2427 60.3288 21.227 60.4022 21.1964C60.4756 21.1659 60.5423 21.1211 60.5984 21.0647L62.6241 19.039L63.9423 20.3572C64.027 20.4418 64.1348 20.4994 64.2522 20.5228C64.3696 20.5461 64.4913 20.5341 64.6018 20.4883C64.7124 20.4425 64.8069 20.365 64.8734 20.2655C64.94 20.166 64.9755 20.049 64.9755 19.9293V13.2571C64.9756 13.1777 64.96 13.099 64.9296 13.0255C64.8993 12.9521 64.8548 12.8854 64.7986 12.8292C64.7425 12.773 64.6758 12.7284 64.6024 12.698C64.529 12.6675 64.4503 12.6519 64.3709 12.6519ZM63.7656 18.4682L63.0526 17.7553C62.9965 17.699 62.9298 17.6544 62.8564 17.6239C62.7829 17.5935 62.7042 17.5778 62.6247 17.5778C62.5452 17.5778 62.4665 17.5935 62.3931 17.6239C62.3197 17.6544 62.253 17.699 62.1968 17.7553L60.1711 19.781L57.847 17.4569L59.8727 15.4311C59.9862 15.3176 60.0499 15.1637 60.0499 15.0032C60.0499 14.8427 59.9862 14.6888 59.8727 14.5753L59.1597 13.8624H63.7656V18.4682ZM20.8395 21.0647C20.8956 21.1211 20.9623 21.1659 21.0357 21.1964C21.1092 21.227 21.1879 21.2427 21.2674 21.2427C21.347 21.2427 21.4257 21.227 21.4992 21.1964C21.5726 21.1659 21.6393 21.1211 21.6954 21.0647L24.8753 17.8848C24.9315 17.8286 24.9762 17.7619 25.0066 17.6885C25.0371 17.6151 25.0527 17.5364 25.0527 17.4569C25.0527 17.3774 25.0371 17.2987 25.0066 17.2253C24.9762 17.1518 24.9315 17.0851 24.8753 17.029L22.8495 15.0032L24.1678 13.685C24.2524 13.6004 24.31 13.4925 24.3333 13.3752C24.3567 13.2578 24.3447 13.1361 24.2989 13.0255C24.2531 12.9149 24.1755 12.8204 24.076 12.7539C23.9765 12.6874 23.8595 12.6519 23.7399 12.6519H17.0677C16.9072 12.6519 16.7532 12.7156 16.6397 12.8291C16.5262 12.9427 16.4624 13.0966 16.4624 13.2571V19.9293C16.463 20.0487 16.4989 20.1653 16.5655 20.2644C16.6321 20.3636 16.7265 20.4408 16.8368 20.4865C16.9472 20.5322 17.0685 20.5444 17.1857 20.5213C17.3029 20.4983 17.4107 20.4412 17.4956 20.3572L18.8138 19.039L20.8395 21.0647ZM17.6729 18.4682V13.8624H22.2788L21.5658 14.5753C21.4524 14.6888 21.3886 14.8427 21.3886 15.0032C21.3886 15.1637 21.4524 15.3176 21.5658 15.4311L23.5916 17.4569L21.2674 19.781L19.2417 17.7553C19.1282 17.6418 18.9743 17.5781 18.8138 17.5781C18.6533 17.5781 18.4994 17.6418 18.3859 17.7553L17.6729 18.4682Z" fill="#474747"/>
</svg>
