<svg width="81" height="81" viewBox="0 0 81 81" fill="none" xmlns="http://www.w3.org/2000/svg">
<path opacity="0.5" d="M12.4041 80.2729C12.3598 79.8427 12.2823 79.4145 12.2757 78.9842C12.2558 77.8709 12.2757 76.7576 12.2757 75.5984H14.2331V80.2729H12.4041Z" fill="#E1890F"/>
<path opacity="0.7" d="M2.17868 37.9785C3.15002 40.8429 4.1243 43.7121 5.10155 46.5861C5.73263 48.4493 7.2583 49.1803 9.23567 48.5642C11.0758 47.9898 12.3645 46.3835 12.3755 44.205C12.3755 42.6071 12.0611 41.003 11.8419 39.401C11.6936 38.3169 11.4832 37.2412 11.264 36.1676C11.1666 35.6872 11.3481 35.4428 11.7556 35.1546C12.4903 34.6532 13.1593 34.0712 13.7484 33.4209C14.2312 32.8614 14.8525 32.4224 15.5575 32.1427C20.6239 30.0205 25.6835 27.8872 30.7366 25.7428C31.8216 25.2833 32.1028 25.3815 32.5811 26.4112C34.1887 29.8646 35.7918 33.3193 37.3906 36.7754C37.8622 37.7885 38.7524 38.1791 39.5185 37.6402C39.8261 37.3869 40.0594 37.0632 40.1961 36.7003C41.1372 34.5238 43.2408 33.2977 45.7075 33.5233C47.9705 33.7322 49.835 35.4345 50.2468 37.6715C50.7229 40.274 48.6747 42.6844 45.7651 42.8933C44.8553 42.934 43.9439 42.9277 43.0348 42.8745C41.5291 42.8223 40.8205 43.7476 41.4339 45.0468C42.9308 48.2321 44.4475 51.4111 45.9533 54.5943C46.5024 55.7514 46.3164 56.2089 45.0831 56.731C41.9432 58.0616 38.8011 59.3879 35.535 60.7706C35.9557 58.5148 35.5571 56.5305 34.0647 54.8157C33.0781 53.6767 31.7207 52.8764 30.2029 52.539C28.716 52.1982 27.1524 52.316 25.7417 52.8749C24.3309 53.4339 23.1472 54.4048 22.3643 55.6449C21.86 56.4263 21.532 57.2974 21.4009 58.2039C21.2698 59.1103 21.3385 60.0324 21.6026 60.9127C22.1251 62.7486 23.5667 63.933 25.0746 65.1904L14.0496 69.8461C13.94 69.6877 13.8394 69.5239 13.7484 69.3553C9.28439 59.956 4.8447 50.5443 0.345228 41.1576C-0.449708 39.4929 0.626451 38.0579 2.17868 37.9785Z" fill="#E1890F"/>
<path d="M33.8542 24.5354L41.7128 21.4775C43.2629 20.8718 44.8129 20.2556 46.3762 19.6624C47.0404 19.4118 47.5475 19.0629 47.5497 18.3214C47.552 17.5799 47.0227 17.2458 46.3607 16.9993C44.0246 16.1304 42.6495 14.0417 42.9329 11.8423C43.2363 9.50498 45.0808 7.78596 47.6228 7.47474C50.3464 7.14263 52.9814 9.11855 53.1741 11.6898C53.232 12.5736 53.2202 13.4603 53.1387 14.3424C53.0058 15.9967 53.938 16.663 55.5744 16.0134C59.2147 14.5889 62.8535 13.1588 66.4909 11.7232C66.6902 11.6438 66.8917 11.5728 67.1552 11.4725C67.9346 13.2354 68.7052 14.9586 69.4603 16.6797C72.8954 24.4303 76.3306 32.1801 79.7657 39.9293C80.503 41.6002 79.934 42.6718 78.0097 43.1751C77.3026 41.1059 76.5955 39.0332 75.8884 36.957C75.6936 36.3868 75.5098 35.8145 75.3127 35.2463C74.7614 33.6464 73.3774 32.9153 71.6281 33.2976C69.6042 33.7383 68.1716 35.3153 68.1251 37.6066C68.0896 39.3068 68.4373 41.0154 68.6587 42.7156C68.7982 43.7725 69.0086 44.8231 69.2189 45.8717C69.3053 46.2894 69.1946 46.563 68.7761 46.7447C67.7509 47.1876 66.75 47.6805 65.7115 48.0941C60.0709 50.3345 54.4259 52.5625 48.7765 54.778C48.6259 54.8385 48.4709 54.8886 48.2893 54.9555L43.6127 45.078C46.2145 45.2346 48.5329 44.9234 50.3287 43.0958C51.4589 41.9352 52.1583 40.4595 52.3216 38.8912C52.5141 37.4047 52.1769 35.9001 51.3631 34.6144C50.5492 33.3286 49.3051 32.3348 47.8265 31.7895C44.5051 30.5509 41.3807 31.6078 38.7833 34.8996L33.8542 24.5354Z" fill="#E1890F"/>
<path d="M65.4679 50.1934L64.6508 51.7954L66.3868 52.587C66.7123 52.0105 67.0378 51.4508 67.3478 50.8847C68.0761 49.4911 69.3151 48.3936 70.8353 47.7955C71.4332 47.5595 71.4399 47.265 71.3535 46.7825C70.8974 44.2175 70.377 41.6568 70.067 39.0751C69.9541 38.1477 70.2552 37.1284 70.5807 36.2177C70.7357 35.7854 71.3336 35.399 71.8274 35.1859C72.6954 34.8121 73.2091 35.0982 73.5058 35.9817C74.8152 39.8709 76.1165 43.7629 77.4096 47.6577C77.5102 47.9748 77.5194 48.3115 77.4362 48.6331C76.6058 51.6262 75.8043 54.6298 74.861 57.5916C74.551 58.5629 73.8712 59.4339 73.311 60.3258C73.2314 60.4055 73.1348 60.4684 73.0275 60.5101C72.9202 60.5519 72.8047 60.5716 72.6887 60.568C66.4769 60.5875 60.265 60.5924 54.0531 60.5827C53.7879 60.5817 53.532 60.4896 53.3335 60.3237C52.201 59.2013 51.5075 57.7485 51.3672 56.2047C51.3728 56.0893 51.4077 55.977 51.469 55.877C51.5302 55.777 51.6161 55.6924 51.7193 55.6303C56.2364 53.8256 60.7713 52.0482 65.4679 50.1934Z" fill="#E1890F"/>
<path opacity="0.5" d="M30.2406 2.14233V12.7154H4.04321V2.14233H30.2406Z" fill="#E1890F"/>
<path d="M76.4683 69.2717V79.4751H50.2864V69.2717H76.4683Z" fill="#E1890F"/>
<path d="M28.8564 24.5647C26.4406 25.5861 24.0824 26.5866 21.722 27.5829C19.005 28.7296 16.2814 29.8638 13.5733 31.0314C13.2375 31.1906 12.9502 31.4278 12.7385 31.7206C11.9281 32.813 10.9272 33.6966 9.61411 34.1958C9.07825 34.4046 9.00962 34.672 9.09597 35.1441C9.52555 37.5022 9.92192 39.8667 10.3471 42.2269C10.5685 43.4049 10.6305 44.5913 9.9817 45.6482C9.65587 46.1464 9.18456 46.5453 8.62433 46.797C7.77403 47.1709 7.29573 46.891 7.00566 46.0388C5.67707 42.1538 4.34849 38.2688 3.04869 34.3775C2.94243 34.0061 2.94243 33.6147 3.04869 33.2433C3.84806 30.3504 4.63194 27.4513 5.53316 24.5856C5.82545 23.6603 6.41887 22.8102 6.95916 21.9705C7.07874 21.7825 7.5216 21.7052 7.81832 21.7011C13.4279 21.6495 19.0323 21.6071 24.6315 21.5737H25.1276C27.2954 21.5298 27.5633 21.6927 28.4645 23.5788C28.5974 23.8796 28.7081 24.1971 28.8564 24.5647Z" fill="#E1890F"/>
<path opacity="0.5" d="M28.2941 19.7022H6.19536C6.19536 18.1941 6.17765 16.6673 6.22858 15.1404C6.22858 15.0067 6.68915 14.7791 6.93937 14.7749C9.69839 14.7268 12.4574 14.7164 15.2164 14.6955C19.2731 14.6663 23.3297 14.6537 27.3951 14.5911C28.1413 14.5785 28.345 14.7999 28.3207 15.4746C28.2609 16.826 28.2941 18.1795 28.2941 19.7022Z" fill="#E1890F"/>
<path opacity="0.7" d="M74.2985 62.5C74.2985 63.9162 74.2764 65.2905 74.2985 66.6649C74.3118 67.2915 73.8689 67.231 73.4659 67.2351C70.4877 67.2602 67.5072 67.2748 64.5268 67.2957C60.7462 67.325 56.9664 67.3528 53.1873 67.3792C52.8906 67.3792 52.5917 67.3458 52.2263 67.3229V62.5H74.2985Z" fill="#E1890F"/>
<path d="M70.027 4.86813H68.1426V0.272949H70.027V4.86813Z" fill="#E1890F"/>
<path opacity="0.5" d="M22.34 76.9644L20.5973 77.8229L18.3276 73.6726L20.0681 72.8267L22.34 76.9644Z" fill="#E1890F"/>
<path d="M78.1957 3.51678C77.4229 4.93293 76.6944 6.26137 75.9304 7.65664L74.1812 6.82115L76.4353 2.67505L78.1957 3.51678Z" fill="#E1890F"/>
<path opacity="0.5" d="M6.46105 72.7913L8.19928 73.6476L5.93848 77.7937L4.1936 76.9395C4.97082 75.5379 5.69047 74.2032 6.46105 72.7913Z" fill="#E1890F"/>
<path d="M64.0399 6.83782L62.295 7.67331L60.0298 3.53975L61.768 2.6792L64.0399 6.83782Z" fill="#E1890F"/>
</svg>
