<svg width="298" height="230" viewBox="0 0 298 230" fill="none" xmlns="http://www.w3.org/2000/svg">
<g opacity="0.3">
<g clip-path="url(#clip0_804_5275)">
<path opacity="0.5" d="M121.164 207.425C116.018 204.852 111.24 202.433 106.497 200.04C92.2869 192.852 78.0713 185.687 63.8501 178.545C62.3662 177.799 61.2769 177.138 61.2769 175.062C61.3626 152.487 61.3283 129.903 61.3369 107.301C61.3369 106.787 61.4398 106.281 61.5256 105.432C62.3529 105.672 63.1662 105.958 63.9616 106.289C82.2599 115.513 100.578 124.745 118.917 133.986C120.392 134.723 121.49 135.375 121.447 137.477C121.344 160.164 121.378 182.851 121.37 205.538C121.344 206.01 121.267 206.413 121.164 207.425Z" fill="#E1890F"/>
<path opacity="0.7" d="M181.06 92.7107C178.392 94.0831 176.068 95.2839 173.718 96.4933C157.215 104.83 140.703 113.133 124.235 121.496C123.399 122.018 122.438 122.302 121.453 122.32C120.468 122.339 119.497 122.089 118.642 121.599C100.63 112.396 82.6176 103.329 64.6051 94.2117C63.6874 93.7485 62.7953 93.2167 61.5259 92.4962L98.2799 73.9777C105.245 70.4696 112.184 66.9014 119.209 63.5134C119.786 63.2229 120.416 63.0498 121.06 63.0041C121.705 62.9585 122.353 63.0412 122.965 63.2475C141.913 72.6826 160.792 82.212 179.679 91.7328C180.158 92.0317 180.619 92.3582 181.06 92.7107Z" fill="#E1890F"/>
<path d="M148.372 214.767V210.341C148.372 188.949 148.415 167.557 148.32 146.165C148.32 143.927 149.015 142.829 151.014 141.825C169.069 132.819 187.038 123.684 205.051 114.592C205.969 114.129 206.929 113.734 208.122 113.194V172.558C203.293 171.117 198.687 169.847 194.183 168.372C189.037 166.7 184.019 165.962 178.839 168.055C169.815 171.7 165.278 180.998 167.954 190.622C168.957 194.216 170.21 197.75 171.127 201.361C171.342 202.218 170.956 203.874 170.338 204.191C163.348 207.854 156.254 211.327 149.178 214.836C149.058 214.913 148.801 214.81 148.372 214.767Z" fill="#E1890F"/>
<path opacity="0.7" d="M297.969 25.9534C297.969 30.1306 298.02 34.2992 297.969 38.4678C297.857 45.8443 292.951 51.1366 285.6 51.3338C276.834 51.5654 268.06 51.5483 259.294 51.3338C251.917 51.1623 246.925 45.973 246.814 38.5793C246.688 30.1335 246.688 21.6848 246.814 13.2332C246.925 5.55649 252.149 0.367187 259.825 0.367187C268.271 0.281413 276.72 0.281413 285.172 0.367187C292.642 0.45296 297.84 5.71085 297.969 13.1474C298.029 17.4018 297.969 21.6819 297.969 25.9534Z" fill="#E1890F"/>
<path opacity="0.6" d="M0.0343037 25.602C0.0343037 21.5363 0.0343037 17.4706 0.0343037 13.4135C0.120077 5.60815 5.32654 0.39311 13.1748 0.324491C21.512 0.264449 29.8492 0.247295 38.1864 0.324491C45.6058 0.401687 50.8637 5.2565 51.0524 12.633C51.3012 21.3905 51.284 30.1651 51.0524 38.9312C50.8723 46.2048 45.906 51.1711 38.5981 51.3341C29.8406 51.5313 21.066 51.5571 12.3085 51.3341C4.97486 51.1282 0.0943509 45.8102 0 38.468C0.0343094 34.1536 0.0343037 29.8735 0.0343037 25.602Z" fill="#E1890F"/>
<path d="M200.04 216.414C197.801 221.981 195.854 226.81 193.736 232.093C193.281 231.021 192.929 230.378 192.715 229.64C188.572 215.917 184.463 202.261 180.278 188.589C179.42 185.759 179.154 183.1 181.479 180.869C183.803 178.639 186.256 178.974 188.975 179.797C202.75 183.983 216.537 188.143 230.335 192.277C230.936 192.458 231.51 192.706 232.72 193.135L217.22 199.397C222.427 204.543 227.29 209.329 232.111 214.141C235.756 217.778 235.739 219.579 232.111 223.224C229.091 226.252 226.107 229.297 223.036 232.282C220.36 234.898 218.19 234.95 215.574 232.282C210.479 227.204 205.461 221.981 200.04 216.414Z" fill="#E1890F"/>
<path d="M31.5986 94.384H19.5903V82.2814H31.5986V94.384Z" fill="#E1890F"/>
<path opacity="0.5" d="M266.395 82.2214H278.455V94.3155H266.395V82.2214Z" fill="#E1890F"/>
<path opacity="0.5" d="M109.602 31.7691V19.8466H121.661V31.7691H109.602Z" fill="#E1890F"/>
<path d="M278.404 188.837C274.699 188.837 271.199 188.906 267.708 188.769C267.354 188.661 267.033 188.464 266.776 188.196C266.519 187.929 266.335 187.601 266.242 187.242C266.104 183.751 266.173 180.252 266.173 176.555H278.404V188.837Z" fill="#E1890F"/>
<path opacity="0.5" d="M203.961 19.7692H215.884V31.846H203.961V19.7692Z" fill="#E1890F"/>
<path opacity="0.7" d="M19.5737 188.58V176.571H31.6507V188.58H19.5737Z" fill="#E1890F"/>
<path d="M19.582 58.7535H31.659V70.6761H19.582V58.7535Z" fill="#E1890F"/>
<path opacity="0.5" d="M278.49 58.7703V70.6499H266.345V58.7703H278.49Z" fill="#E1890F"/>
<path d="M19.4883 141.431V129.568H31.6939V141.431H19.4883Z" fill="#E1890F"/>
<path d="M266.403 129.388H278.411V141.396H266.403V129.388Z" fill="#E1890F"/>
<path opacity="0.7" d="M19.5737 212.125V200.169H31.685V212.125H19.5737Z" fill="#E1890F"/>
<path d="M266.354 212.031V200.16H278.465V212.031H266.354Z" fill="#E1890F"/>
<path opacity="0.7" d="M31.6074 235.824H19.5991V223.816H31.6074V235.824Z" fill="#E1890F"/>
<path opacity="0.5" d="M62.4609 31.863V19.8547H74.4692V31.863H62.4609Z" fill="#E1890F"/>
<path opacity="0.5" d="M98.1162 31.8721H86.1079V19.8638H98.1162V31.8721Z" fill="#E1890F"/>
<path opacity="0.5" d="M168.854 19.8893V31.7861H156.915V19.8893H168.854Z" fill="#E1890F"/>
<path d="M266.335 235.738V223.782H278.412V235.738H266.335Z" fill="#E1890F"/>
<path opacity="0.5" d="M239.454 31.863H227.488V19.8547H239.454V31.863Z" fill="#E1890F"/>
<path d="M278.362 165.155H266.354V153.147H278.362V165.155Z" fill="#E1890F"/>
<path opacity="0.5" d="M133.112 31.8036V19.8726H145.12V31.8036H133.112Z" fill="#E1890F"/>
<path opacity="0.5" d="M266.507 105.714H278.378V117.869H266.507V105.714Z" fill="#E1890F"/>
<path opacity="0.5" d="M180.442 31.7775V19.7692H192.365V31.7775H180.442Z" fill="#E1890F"/>
<path d="M19.5991 117.869V105.86H31.6074V117.869H19.5991Z" fill="#E1890F"/>
<path d="M31.686 153.079V165.087H19.6177V153.079H31.686Z" fill="#E1890F"/>
</g>
</g>
<defs>
<clipPath id="clip0_804_5275">
<path d="M0 0.272827H298V179.273C298 206.887 275.614 229.273 248 229.273H0V0.272827Z" fill="white"/>
</clipPath>
</defs>
</svg>
