<svg width="80" height="80" viewBox="0 0 80 80" fill="none" xmlns="http://www.w3.org/2000/svg">
<g clip-path="url(#clip0_81_9542)">
<path d="M76.5668 79.0001H49.5785C48.2346 79.0001 47.1453 77.9108 47.1453 76.5669V57.9437C47.1453 56.5998 48.2346 55.5105 49.5785 55.5105H76.5668C77.9107 55.5105 79 56.5998 79 57.9437V76.5669C79 77.9108 77.9107 79.0001 76.5668 79.0001Z" fill="#E08812"/>
<path d="M76.5666 55.5105H71.8584C73.2023 55.5105 74.2916 56.5998 74.2916 57.9437V76.5669C74.2916 77.9108 73.2023 79.0001 71.8584 79.0001H76.5666C77.9105 79.0001 78.9999 77.9108 78.9999 76.5669V57.9437C78.9999 56.5998 77.9105 55.5105 76.5666 55.5105Z" fill="#E08812"/>
<path d="M34.2716 78.7646H6.6499C3.52959 78.7646 1 76.235 1 73.1147V16.6157C1 13.4954 3.52959 10.9658 6.6499 10.9658H34.2716C37.3919 10.9658 39.9215 13.4954 39.9215 16.6157V73.1147C39.9215 76.235 37.3919 78.7646 34.2716 78.7646Z" fill="#E08812"/>
<path d="M35.2134 11.0453V78.6849C37.8853 78.2364 39.9216 75.914 39.9216 73.1146V16.6156C39.9216 13.8162 37.8853 11.4938 35.2134 11.0453Z" fill="#E08812"/>
<path d="M34.2716 78.7646H6.6499C3.52959 78.7646 1 76.235 1 73.1147V72.0161H39.9215V73.1147C39.9215 76.235 37.3919 78.7646 34.2716 78.7646Z" fill="#D3D3D3"/>
<path d="M35.2134 72.0161V73.1147C35.2134 76.235 32.6838 78.7646 29.5635 78.7646H34.2717C37.392 78.7646 39.9216 76.235 39.9216 73.1147V72.0161H35.2134Z" fill="#D3D3D3"/>
<path d="M25.7967 20.3823H15.1246C13.8245 20.3823 12.7705 19.3283 12.7705 18.0282C12.7705 16.7281 13.8245 15.6741 15.1246 15.6741H25.7967C27.0968 15.6741 28.1508 16.7281 28.1508 18.0282C28.1508 19.3283 27.0968 20.3823 25.7967 20.3823Z" fill="#D3D3D3"/>
<path d="M30.5051 64.7031H10.4166C10.2501 64.7031 10.0904 64.637 9.97269 64.5192C9.85496 64.4015 9.78882 64.2418 9.78882 64.0754V55.9144C9.78882 55.7479 9.85496 55.5882 9.97269 55.4705C10.0904 55.3528 10.2501 55.2866 10.4166 55.2866H30.5051C30.6716 55.2866 30.8313 55.3528 30.949 55.4705C31.0667 55.5882 31.1329 55.7479 31.1329 55.9144V64.0754C31.1329 64.2418 31.0667 64.4015 30.949 64.5192C30.8313 64.637 30.6716 64.7031 30.5051 64.7031Z" fill="#D3D3D3"/>
<path d="M30.5051 55.2866H25.7969C25.9634 55.2866 26.123 55.3528 26.2408 55.4705C26.3585 55.5882 26.4246 55.7479 26.4246 55.9144V64.0754C26.4246 64.2418 26.3585 64.4015 26.2408 64.5192C26.123 64.637 25.9634 64.7031 25.7969 64.7031H30.5051C30.6716 64.7031 30.8313 64.637 30.949 64.5192C31.0668 64.4015 31.1329 64.2418 31.1329 64.0754V55.9144C31.1329 55.7479 31.0668 55.5882 30.949 55.4705C30.8313 55.3528 30.6716 55.2866 30.5051 55.2866Z" fill="#221F1F"/>
<path d="M79.0001 4.35243V41.1204C79.0001 42.9718 77.4874 44.4728 75.6213 44.4728H54.406C52.5399 44.4728 51.0272 42.9718 51.0272 41.1204V30.2249C51.027 30.1109 50.9987 29.9987 50.9448 29.8983C50.8909 29.7979 50.8129 29.7124 50.718 29.6494L45.1299 25.9263C45.0826 25.8949 45.0438 25.8524 45.017 25.8024C44.9901 25.7525 44.9761 25.6966 44.9761 25.6399C44.9761 25.5832 44.9901 25.5274 45.017 25.4774C45.0438 25.4274 45.0826 25.3849 45.1299 25.3536L50.718 21.6304C50.8129 21.5674 50.8908 21.4819 50.9448 21.3815C50.9987 21.2811 51.027 21.1689 51.0272 21.0549V4.35243C51.0272 2.50099 52.5399 1 54.406 1H75.6213C77.4874 1 79.0001 2.50099 79.0001 4.35243Z" fill="#D3D3D3"/>
<path d="M75.6211 1H70.9128C72.7789 1 74.2916 2.50099 74.2916 4.35243V41.1204C74.2916 42.9718 72.7789 44.4728 70.9128 44.4728H75.6211C77.4871 44.4728 78.9999 42.9718 78.9999 41.1204V4.35243C78.9999 2.50099 77.4871 1 75.6211 1Z" fill="#D3D3D3"/>
<path d="M20.4605 42.0623C21.934 42.0623 23.1285 40.8678 23.1285 39.3943C23.1285 37.9208 21.934 36.7263 20.4605 36.7263C18.987 36.7263 17.7925 37.9208 17.7925 39.3943C17.7925 40.8678 18.987 42.0623 20.4605 42.0623Z" fill="#D3D3D3"/>
<path d="M29.6487 36.7092L28.1575 33.707C27.9883 33.3664 27.6908 33.1069 27.3303 32.9856C26.9699 32.8642 26.576 32.891 26.2353 33.06L24.0262 34.1554C23.9783 34.1791 23.9252 34.1902 23.8718 34.1877C23.8185 34.1851 23.7667 34.169 23.7213 34.1409C23.6759 34.1127 23.6385 34.0734 23.6125 34.0268C23.5865 33.9801 23.5729 33.9276 23.5729 33.8742V31.4105C23.5729 31.0305 23.422 30.6661 23.1533 30.3974C22.8846 30.1287 22.5202 29.9778 22.1402 29.9778H18.7829C18.4026 29.9778 18.0378 30.1289 17.7689 30.3978C17.5 30.6667 17.3489 31.0314 17.3489 31.4118V33.8742C17.3489 33.9276 17.3353 33.9801 17.3093 34.0268C17.2834 34.0734 17.2459 34.1127 17.2005 34.1409C17.1551 34.169 17.1033 34.1851 17.05 34.1877C16.9966 34.1902 16.9435 34.1791 16.8957 34.1554L14.6866 33.06C14.3458 32.891 13.9519 32.8642 13.5915 32.9856C13.231 33.1069 12.9335 33.3664 12.7643 33.707L11.2731 36.7092C11.1894 36.8777 11.1397 37.0612 11.1269 37.249C11.114 37.4367 11.1384 37.6252 11.1984 37.8036C11.2584 37.982 11.3531 38.1468 11.4768 38.2886C11.6006 38.4304 11.7511 38.5465 11.9197 38.6301L12.8935 39.113C13.1261 39.2284 13.1261 39.5602 12.8935 39.6755L11.9197 40.1584C11.7511 40.2421 11.6006 40.3581 11.4768 40.4999C11.3531 40.6418 11.2584 40.8066 11.1984 40.985C11.1384 41.1633 11.114 41.3518 11.1269 41.5396C11.1397 41.7274 11.1894 41.9108 11.2731 42.0794L12.7647 45.0823C12.9338 45.4228 13.2311 45.6821 13.5914 45.8034C13.9517 45.9247 14.3454 45.8979 14.6859 45.7291L16.8958 44.6333C16.9437 44.6096 16.9968 44.5985 17.0501 44.601C17.1035 44.6036 17.1553 44.6197 17.2007 44.6478C17.2461 44.676 17.2835 44.7153 17.3095 44.7619C17.3354 44.8086 17.3491 44.8611 17.3491 44.9145V47.377C17.3491 47.7573 17.5002 48.122 17.7691 48.3909C18.038 48.6599 18.4027 48.8109 18.7831 48.8109H22.1403C22.3285 48.8109 22.5148 48.7739 22.6886 48.7019C22.8625 48.6299 23.0204 48.5243 23.1534 48.3913C23.2865 48.2583 23.392 48.1003 23.464 47.9265C23.536 47.7527 23.5731 47.5664 23.5731 47.3782V44.9145C23.5731 44.8611 23.5867 44.8086 23.6127 44.7619C23.6386 44.7153 23.6761 44.676 23.7215 44.6478C23.7668 44.6197 23.8187 44.6036 23.872 44.601C23.9253 44.5985 23.9785 44.6096 24.0263 44.6333L26.2362 45.7291C26.5768 45.8979 26.9705 45.9247 27.3307 45.8034C27.691 45.6821 27.9884 45.4228 28.1575 45.0823L29.6494 42.0788C30.0014 41.3702 29.7118 40.5104 29.0031 40.1589L28.0286 39.6757C27.7961 39.5603 27.7961 39.2286 28.0286 39.1132L29.0025 38.6303C29.7112 38.2783 30.0008 37.4181 29.6487 36.7092Z" fill="#D3D3D3"/>
<path d="M20.4605 42.0623C21.934 42.0623 23.1285 40.8678 23.1285 39.3943C23.1285 37.9208 21.934 36.7263 20.4605 36.7263C18.987 36.7263 17.7925 37.9208 17.7925 39.3943C17.7925 40.8678 18.987 42.0623 20.4605 42.0623Z" fill="#D3D3D3"/>
<path d="M29.6487 36.7092L28.1575 33.707C27.9883 33.3664 27.6908 33.1069 27.3303 32.9856C26.9699 32.8642 26.576 32.891 26.2353 33.06L24.0262 34.1554C23.9783 34.1791 23.9252 34.1902 23.8718 34.1877C23.8185 34.1851 23.7667 34.169 23.7213 34.1409C23.6759 34.1127 23.6385 34.0734 23.6125 34.0268C23.5865 33.9801 23.5729 33.9276 23.5729 33.8742V31.4105C23.5729 31.0305 23.422 30.6661 23.1533 30.3974C22.8846 30.1287 22.5202 29.9778 22.1402 29.9778H18.7829C18.4026 29.9778 18.0378 30.1289 17.7689 30.3978C17.5 30.6667 17.3489 31.0314 17.3489 31.4118V33.8742C17.3489 33.9276 17.3353 33.9801 17.3093 34.0268C17.2834 34.0734 17.2459 34.1127 17.2005 34.1409C17.1551 34.169 17.1033 34.1851 17.05 34.1877C16.9966 34.1902 16.9435 34.1791 16.8957 34.1554L14.6866 33.06C14.3458 32.891 13.9519 32.8642 13.5915 32.9856C13.231 33.1069 12.9335 33.3664 12.7643 33.707L11.2731 36.7092C11.1894 36.8777 11.1397 37.0612 11.1269 37.249C11.114 37.4367 11.1384 37.6252 11.1984 37.8036C11.2584 37.982 11.3531 38.1468 11.4768 38.2886C11.6006 38.4304 11.7511 38.5465 11.9197 38.6301L12.8935 39.113C13.1261 39.2284 13.1261 39.5602 12.8935 39.6755L11.9197 40.1584C11.7511 40.2421 11.6006 40.3581 11.4768 40.4999C11.3531 40.6418 11.2584 40.8066 11.1984 40.985C11.1384 41.1633 11.114 41.3518 11.1269 41.5396C11.1397 41.7274 11.1894 41.9108 11.2731 42.0794L12.7647 45.0823C12.9338 45.4228 13.2311 45.6821 13.5914 45.8034C13.9517 45.9247 14.3454 45.8979 14.6859 45.7291L16.8958 44.6333C16.9437 44.6096 16.9968 44.5985 17.0501 44.601C17.1035 44.6036 17.1553 44.6197 17.2007 44.6478C17.2461 44.676 17.2835 44.7153 17.3095 44.7619C17.3354 44.8086 17.3491 44.8611 17.3491 44.9145V47.377C17.3491 47.7573 17.5002 48.122 17.7691 48.3909C18.038 48.6599 18.4027 48.8109 18.7831 48.8109H22.1403C22.3285 48.8109 22.5148 48.7739 22.6886 48.7019C22.8625 48.6299 23.0204 48.5243 23.1534 48.3913C23.2865 48.2583 23.392 48.1003 23.464 47.9265C23.536 47.7527 23.5731 47.5664 23.5731 47.3782V44.9145C23.5731 44.8611 23.5867 44.8086 23.6127 44.7619C23.6386 44.7153 23.6761 44.676 23.7215 44.6478C23.7668 44.6197 23.8187 44.6036 23.872 44.601C23.9253 44.5985 23.9785 44.6096 24.0263 44.6333L26.2362 45.7291C26.5768 45.8979 26.9705 45.9247 27.3307 45.8034C27.691 45.6821 27.9884 45.4228 28.1575 45.0823L29.6494 42.0788C30.0014 41.3702 29.7118 40.5104 29.0031 40.1589L28.0286 39.6757C27.7961 39.5603 27.7961 39.2286 28.0286 39.1132L29.0025 38.6303C29.7112 38.2783 30.0008 37.4181 29.6487 36.7092Z" fill="#E08812"/>
<path d="M20.4605 42.0623C21.934 42.0623 23.1285 40.8678 23.1285 39.3943C23.1285 37.9208 21.934 36.7263 20.4605 36.7263C18.987 36.7263 17.7925 37.9208 17.7925 39.3943C17.7925 40.8678 18.987 42.0623 20.4605 42.0623Z" fill="#E08812"/>
<path d="M71.8087 38.6987H58.1436C58.0054 38.6987 57.8729 38.6438 57.7752 38.5461C57.6775 38.4484 57.6226 38.3158 57.6226 38.1776V29.8034C57.6226 29.6652 57.6775 29.5327 57.7752 29.435C57.8729 29.3372 58.0054 29.2823 58.1436 29.2823H71.8087C71.9469 29.2823 72.0794 29.3372 72.1771 29.435C72.2748 29.5327 72.3297 29.6652 72.3297 29.8034V38.1776C72.3297 38.3158 72.2748 38.4484 72.1771 38.5461C72.0794 38.6438 71.9469 38.6987 71.8087 38.6987Z" fill="#221F1F"/>
<path d="M71.8088 29.2821H67.1006C67.2388 29.2821 67.3713 29.337 67.469 29.4347C67.5667 29.5324 67.6216 29.665 67.6216 29.8032V38.1774C67.6216 38.3156 67.5667 38.4481 67.469 38.5458C67.3713 38.6436 67.2388 38.6984 67.1006 38.6984H71.8088C71.947 38.6984 72.0796 38.6436 72.1773 38.5458C72.275 38.4481 72.3299 38.3156 72.3299 38.1774V29.8032C72.3299 29.665 72.275 29.5324 72.1773 29.4347C72.0796 29.337 71.947 29.2821 71.8088 29.2821Z" fill="#D3D3D3"/>
<path d="M1 61.948V16.6157C1 13.4954 3.52959 10.9658 6.6499 10.9658H34.2716C37.3919 10.9658 39.9215 13.4954 39.9215 16.6157V73.1147C39.9215 76.235 37.3919 78.7646 34.2716 78.7646H6.6499C3.52959 78.7646 1 76.235 1 73.1147V67.4584M1.5493 72.0161H39.4943" stroke="#474747" stroke-width="2.5" stroke-miterlimit="10" stroke-linecap="round" stroke-linejoin="round"/>
<path d="M79 15.0289V41.1204C79 42.9718 77.4873 44.4728 75.6212 44.4728H54.4058C52.5398 44.4728 51.027 42.9718 51.027 41.1204V30.2249C51.0269 30.1109 50.9986 29.9987 50.9447 29.8983C50.8907 29.7979 50.8128 29.7124 50.7179 29.6494L45.1298 25.9263C45.0825 25.8949 45.0437 25.8524 45.0169 25.8024C44.99 25.7525 44.976 25.6966 44.976 25.6399C44.976 25.5832 44.99 25.5274 45.0169 25.4774C45.0437 25.4274 45.0825 25.3849 45.1298 25.3536L50.7179 21.6305C50.8128 21.5674 50.8907 21.4819 50.9447 21.3815C50.9986 21.2811 51.0269 21.1689 51.027 21.0549V4.35243C51.027 2.50099 52.5398 1 54.4058 1H75.6212C77.4873 1 79 2.50099 79 4.35243V9.23944M58.7194 8.03617H65.9401M58.7194 23.3119H65.9401M58.7194 11.8552H70.913M58.7194 15.674H70.913M25.7968 20.3823H15.1248C13.8247 20.3823 12.7706 19.3283 12.7706 18.0282C12.7706 16.7281 13.8247 15.674 15.1248 15.674H25.7968C27.0969 15.674 28.1509 16.7281 28.1509 18.0282C28.1509 19.3283 27.0969 20.3823 25.7968 20.3823ZM30.4263 64.7031H10.3377C10.1712 64.7031 10.0116 64.6369 9.89383 64.5192C9.7761 64.4015 9.70996 64.2418 9.70996 64.0753V55.9144C9.70996 55.7479 9.7761 55.5882 9.89383 55.4705C10.0116 55.3527 10.1712 55.2866 10.3377 55.2866H30.4263C30.5928 55.2866 30.7524 55.3527 30.8702 55.4705C30.9879 55.5882 31.054 55.7479 31.054 55.9144V64.0753C31.054 64.2418 30.9879 64.4015 30.8702 64.5192C30.7524 64.6369 30.5928 64.7031 30.4263 64.7031Z" stroke="#474747" stroke-width="2.5" stroke-miterlimit="10" stroke-linecap="round" stroke-linejoin="round"/>
<path d="M20.4605 42.0623C21.934 42.0623 23.1285 40.8678 23.1285 39.3943C23.1285 37.9208 21.934 36.7263 20.4605 36.7263C18.987 36.7263 17.7925 37.9208 17.7925 39.3943C17.7925 40.8678 18.987 42.0623 20.4605 42.0623Z" stroke="#474747" stroke-width="2.5" stroke-miterlimit="10" stroke-linecap="round" stroke-linejoin="round"/>
<path d="M29.6487 36.7092L28.1575 33.707C27.9883 33.3664 27.6908 33.1069 27.3303 32.9856C26.9699 32.8642 26.576 32.891 26.2353 33.06L24.0262 34.1554C23.9783 34.1791 23.9252 34.1902 23.8718 34.1877C23.8185 34.1851 23.7667 34.169 23.7213 34.1409C23.6759 34.1127 23.6385 34.0734 23.6125 34.0268C23.5865 33.9801 23.5729 33.9276 23.5729 33.8742V31.4105C23.5729 31.0305 23.422 30.6661 23.1533 30.3974C22.8846 30.1287 22.5202 29.9778 22.1402 29.9778H18.7829C18.4026 29.9778 18.0378 30.1289 17.7689 30.3978C17.5 30.6667 17.3489 31.0314 17.3489 31.4118V33.8742C17.3489 33.9276 17.3353 33.9801 17.3093 34.0268C17.2834 34.0734 17.2459 34.1127 17.2005 34.1409C17.1551 34.169 17.1033 34.1851 17.05 34.1877C16.9966 34.1902 16.9435 34.1791 16.8957 34.1554L14.6866 33.06C14.3458 32.891 13.9519 32.8642 13.5915 32.9856C13.231 33.1069 12.9335 33.3664 12.7643 33.707L11.2731 36.7092C11.1894 36.8777 11.1397 37.0612 11.1269 37.249C11.114 37.4367 11.1384 37.6252 11.1984 37.8036C11.2584 37.982 11.3531 38.1468 11.4768 38.2886C11.6006 38.4304 11.7511 38.5465 11.9197 38.6301L12.8935 39.113C13.1261 39.2284 13.1261 39.5602 12.8935 39.6755L11.9197 40.1584C11.7511 40.2421 11.6006 40.3581 11.4768 40.4999C11.3531 40.6418 11.2584 40.8066 11.1984 40.985C11.1384 41.1633 11.114 41.3518 11.1269 41.5396C11.1397 41.7274 11.1894 41.9108 11.2731 42.0794L12.7647 45.0823C12.9338 45.4228 13.2311 45.6821 13.5914 45.8034C13.9517 45.9247 14.3454 45.8979 14.6859 45.7291L16.8958 44.6333C16.9437 44.6096 16.9968 44.5985 17.0501 44.601C17.1035 44.6036 17.1553 44.6197 17.2007 44.6478C17.2461 44.676 17.2835 44.7153 17.3095 44.7619C17.3354 44.8086 17.3491 44.8611 17.3491 44.9145V47.377C17.3491 47.7573 17.5002 48.122 17.7691 48.3909C18.038 48.6599 18.4027 48.8109 18.7831 48.8109H22.1403C22.3285 48.8109 22.5148 48.7739 22.6886 48.7019C22.8625 48.6299 23.0204 48.5243 23.1534 48.3913C23.2865 48.2583 23.392 48.1003 23.464 47.9265C23.536 47.7527 23.5731 47.5664 23.5731 47.3782V44.9145C23.5731 44.8611 23.5867 44.8086 23.6127 44.7619C23.6386 44.7153 23.6761 44.676 23.7215 44.6478C23.7668 44.6197 23.8187 44.6036 23.872 44.601C23.9253 44.5985 23.9785 44.6096 24.0263 44.6333L26.2362 45.7291C26.5768 45.8979 26.9705 45.9247 27.3307 45.8034C27.691 45.6821 27.9884 45.4228 28.1575 45.0823L29.6494 42.0788C30.0014 41.3702 29.7118 40.5104 29.0031 40.1589L28.0286 39.6757C27.7961 39.5603 27.7961 39.2286 28.0286 39.1132L29.0025 38.6303C29.7112 38.2783 30.0008 37.4181 29.6487 36.7092Z" stroke="#474747" stroke-width="2.5" stroke-miterlimit="10" stroke-linecap="round" stroke-linejoin="round"/>
<path d="M20.4605 42.0623C21.934 42.0623 23.1285 40.8678 23.1285 39.3943C23.1285 37.9208 21.934 36.7263 20.4605 36.7263C18.987 36.7263 17.7925 37.9208 17.7925 39.3943C17.7925 40.8678 18.987 42.0623 20.4605 42.0623Z" stroke="#474747" stroke-width="2.5" stroke-miterlimit="10" stroke-linecap="round" stroke-linejoin="round"/>
<path d="M29.6488 36.7093L28.1575 33.7072C27.9883 33.3665 27.6908 33.107 27.3303 32.9857C26.9699 32.8644 26.576 32.8911 26.2353 33.0601L24.0262 34.1555C23.9783 34.1793 23.9252 34.1904 23.8718 34.1878C23.8185 34.1853 23.7667 34.1692 23.7213 34.141C23.6759 34.1128 23.6385 34.0736 23.6125 34.0269C23.5865 33.9802 23.5729 33.9277 23.5729 33.8743V31.4106C23.5729 31.0307 23.422 30.6662 23.1533 30.3975C22.8846 30.1289 22.5202 29.9779 22.1402 29.9779H18.7829C18.4026 29.9779 18.0378 30.129 17.7689 30.3979C17.5 30.6668 17.3489 31.0316 17.3489 31.4119V33.8743C17.3489 33.9277 17.3353 33.9802 17.3093 34.0269C17.2834 34.0736 17.2459 34.1128 17.2005 34.141C17.1551 34.1692 17.1033 34.1853 17.05 34.1878C16.9966 34.1904 16.9435 34.1793 16.8957 34.1555L14.6866 33.0601C14.3458 32.8911 13.9519 32.8644 13.5915 32.9857C13.231 33.107 12.9335 33.3665 12.7643 33.7072L11.2731 36.7093C11.1894 36.8779 11.1397 37.0613 11.1269 37.2491C11.114 37.4369 11.1384 37.6254 11.1984 37.8037C11.2584 37.9821 11.3531 38.1469 11.4768 38.2888C11.6006 38.4306 11.7511 38.5466 11.9197 38.6303L12.8935 39.1132C13.1261 39.2285 13.1261 39.5603 12.8935 39.6757L11.9197 40.1586C11.7511 40.2422 11.6006 40.3583 11.4768 40.5001C11.3531 40.6419 11.2584 40.8067 11.1984 40.9851C11.1384 41.1635 11.114 41.3519 11.1269 41.5397C11.1397 41.7275 11.1894 41.9109 11.2731 42.0795L12.7647 45.0824C12.9338 45.4229 13.2311 45.6823 13.5914 45.8035C13.9517 45.9248 14.3454 45.8981 14.6859 45.7292L16.8958 44.6334C16.9437 44.6097 16.9968 44.5986 17.0501 44.6012C17.1035 44.6037 17.1553 44.6198 17.2007 44.648C17.2461 44.6761 17.2835 44.7154 17.3095 44.7621C17.3354 44.8087 17.3491 44.8613 17.3491 44.9147V47.3771C17.3491 47.7574 17.5002 48.1221 17.7691 48.3911C18.038 48.66 18.4027 48.8111 18.7831 48.8111H22.1403C22.3285 48.8111 22.5148 48.774 22.6886 48.702C22.8625 48.63 23.0204 48.5245 23.1534 48.3914C23.2865 48.2584 23.392 48.1005 23.464 47.9266C23.536 47.7528 23.5731 47.5665 23.5731 47.3783V44.9147C23.5731 44.8613 23.5867 44.8087 23.6127 44.7621C23.6386 44.7154 23.6761 44.6761 23.7215 44.648C23.7668 44.6198 23.8187 44.6037 23.872 44.6012C23.9253 44.5986 23.9785 44.6097 24.0263 44.6334L26.2362 45.7292C26.5768 45.8981 26.9705 45.9248 27.3307 45.8035C27.691 45.6823 27.9884 45.4229 28.1575 45.0824L29.6494 42.0789C30.0014 41.3703 29.7118 40.5106 29.0031 40.159L28.0286 39.6758C27.7961 39.5605 27.7961 39.2287 28.0286 39.1133L29.0025 38.6304C29.7112 38.2784 30.0008 37.4182 29.6488 36.7093ZM76.5669 79.0001H49.5786C48.2347 79.0001 47.1454 77.9107 47.1454 76.5668V57.9437C47.1454 56.5998 48.2347 55.5104 49.5786 55.5104H76.5669C77.9108 55.5104 79.0002 56.5998 79.0002 57.9437V76.5668C79.0002 77.9107 77.9108 79.0001 76.5669 79.0001ZM71.8089 38.6987H58.1439C58.0057 38.6987 57.8731 38.6438 57.7754 38.5461C57.6777 38.4484 57.6228 38.3158 57.6228 38.1776V29.8034C57.6228 29.6652 57.6777 29.5327 57.7754 29.435C57.8731 29.3372 58.0057 29.2823 58.1439 29.2823H71.8089C71.9471 29.2823 72.0796 29.3372 72.1774 29.435C72.2751 29.5327 72.33 29.6652 72.33 29.8034V38.1776C72.33 38.3158 72.2751 38.4484 72.1774 38.5461C72.0796 38.6438 71.9471 38.6987 71.8089 38.6987Z" stroke="#474747" stroke-width="2.5" stroke-miterlimit="10" stroke-linecap="round" stroke-linejoin="round"/>
<path d="M56.5778 63.5046L51.6382 67.6208L56.5778 71.7373M69.567 63.5046L74.5066 67.6208L69.567 71.7373M60.3282 74.2071L65.8166 61.0348" stroke="#474747" stroke-width="2.5" stroke-miterlimit="10" stroke-linecap="round" stroke-linejoin="round"/>
</g>
<defs>
<clipPath id="clip0_81_9542">
<rect width="80" height="80" fill="white"/>
</clipPath>
</defs>
</svg>
