<svg width="78" height="81" viewBox="0 0 78 81" fill="none" xmlns="http://www.w3.org/2000/svg">
<path d="M53.8965 80.2711C53.5378 78.942 53.1595 77.62 52.8368 76.282C52.6575 75.5665 52.2289 75.2087 51.5619 74.9565C50.201 74.4449 48.8527 73.8957 47.5294 73.2929C46.8481 72.9816 46.2743 72.9351 45.6199 73.3519C44.4974 74.0674 43.3427 74.715 42.2328 75.3751L39.3281 72.4414C39.9718 71.3681 40.6388 70.2232 41.3435 69.1016C41.7649 68.4308 41.7182 67.8316 41.3829 67.1339C40.7841 65.8692 40.2444 64.5723 39.7692 63.2575C39.4949 62.4937 39.0843 62.0197 38.2792 61.8444C37.1855 61.6082 36.1061 61.3077 35.0141 61.0537C34.5551 60.9517 34.3812 60.7389 34.4009 60.2559C34.4386 59.3203 34.4314 58.383 34.4009 57.4456C34.3866 56.9752 34.53 56.7587 35.0195 56.6532C36.1635 56.4063 37.2895 56.0718 38.4262 55.8017C39.1076 55.6389 39.4608 55.2257 39.7047 54.5799C40.2247 53.1972 40.7805 51.8287 41.4063 50.4889C41.7093 49.8324 41.7505 49.2689 41.365 48.6517C40.7321 47.6357 40.1099 46.6125 39.5236 45.5696C39.4709 45.4564 39.4466 45.3323 39.4525 45.2077C39.4584 45.083 39.4945 44.9617 39.5576 44.8541C40.3645 43.9704 41.218 43.1296 42.0948 42.237C43.2907 42.9525 44.4365 43.6108 45.5535 44.3156C46.251 44.7557 46.8696 44.7145 47.6065 44.3639C48.8616 43.7647 50.1759 43.2405 51.4938 42.754C52.2236 42.4892 52.6897 42.1028 52.8601 41.3229C53.1111 40.1816 53.4087 39.0493 53.7333 37.9241C53.7785 37.8082 53.8509 37.7048 53.9445 37.6226C54.0381 37.5404 54.1502 37.4818 54.2712 37.4519C55.4671 37.4089 56.6649 37.4304 57.9164 37.4304C58.2481 38.722 58.6031 39.967 58.8793 41.2281C59.0586 42.0653 59.5337 42.4803 60.3316 42.7701C61.6513 43.2352 62.9476 43.7843 64.2171 44.38C64.8966 44.6984 65.4722 44.7521 66.1285 44.3532C67.276 43.6377 68.4432 42.9651 69.5513 42.3032L72.4596 45.2136C71.8213 46.2762 71.1776 47.4014 70.4783 48.489C70.0211 49.2045 70.0265 49.8324 70.4048 50.6016C71.0171 51.833 71.5472 53.1035 71.9916 54.4046C72.2678 55.2185 72.7088 55.6783 73.5283 55.8625C74.6471 56.113 75.7624 56.3849 76.8633 56.6979C77.0659 56.7552 77.3402 57.0396 77.3474 57.2346C77.3904 58.4295 77.3689 59.6244 77.3689 60.8784C76.0833 61.2022 74.8336 61.551 73.5659 61.8265C72.7017 62.0161 72.2624 62.4919 71.9809 63.3309C71.5481 64.6082 71.0294 65.8549 70.4281 67.0624C70.0516 67.8208 69.9996 68.4523 70.464 69.175C71.1686 70.268 71.8141 71.3985 72.4363 72.445L69.5298 75.3769C68.4325 74.7221 67.2832 74.0567 66.1571 73.3537C65.4848 72.9351 64.8841 72.9852 64.1741 73.3179C62.8831 73.9243 61.5527 74.4538 60.2151 74.9529C59.6126 75.1783 59.1249 75.4556 58.9599 76.1067C58.6157 77.493 58.2876 78.883 57.9523 80.2729L53.8965 80.2711ZM55.8688 47.4336C54.3651 47.4307 52.8757 47.7246 51.4864 48.2984C50.0971 48.8721 48.8352 49.7143 47.7735 50.7766C46.7117 51.8389 45.871 53.1001 45.2999 54.4878C44.7287 55.8755 44.4383 57.3623 44.4454 58.8624C44.4457 60.3627 44.7424 61.8482 45.3188 63.234C45.8952 64.6197 46.7398 65.8785 47.8043 66.9382C48.8689 67.9979 50.1324 68.8378 51.5227 69.4098C52.9129 69.9818 54.4026 70.2746 55.9064 70.2715C58.9432 70.2583 61.8513 69.047 63.9959 66.902C66.1405 64.757 67.3474 61.8527 67.3531 58.823C67.3498 57.3224 67.0499 55.8371 66.4707 54.4522C65.8914 53.0673 65.0441 51.81 63.9773 50.7521C62.9105 49.6942 61.645 48.8566 60.2533 48.2872C58.8617 47.7177 57.3711 47.4277 55.867 47.4336H55.8688Z" fill="#E1890F"/>
<path opacity="0.7" d="M5.80713 61.6906V13.1203H59.8327C62.8109 13.1203 65.1329 11.5228 65.6851 8.82706C65.9774 7.396 65.8949 5.87907 65.877 4.4015C65.868 3.63946 65.2602 3.14932 64.4426 3.12964C63.0619 3.09387 61.6813 3.12964 60.2361 3.12964V5.95958H62.8647C63.3399 7.46757 62.9418 8.92188 61.8929 9.71613C61.4333 10.0657 60.8768 10.2654 60.2993 10.2881C59.7218 10.3109 59.1513 10.1555 58.6655 9.84313C57.8389 9.31721 57.3601 8.56232 57.3422 7.58204C57.3135 6.04723 57.3028 4.51062 57.3422 2.97581C57.3615 2.27606 57.6482 1.61014 58.1435 1.11433C58.6388 0.618514 59.3053 0.330293 60.0066 0.308655C62.0148 0.260357 64.0266 0.265723 66.0348 0.308655C66.7481 0.329444 67.427 0.619775 67.9339 1.1209C68.4409 1.62202 68.7381 2.29655 68.7656 3.00801C68.7799 3.24056 68.7656 3.47668 68.7656 3.71101C68.7656 15.3479 68.7709 26.9849 68.7817 38.6218C68.7817 39.2461 68.6024 39.611 68.0501 39.9026C67.1967 40.3463 66.4023 40.9044 65.5525 41.3569C65.2856 41.4731 64.9847 41.4846 64.7097 41.3891C63.8132 41.06 62.9167 40.6951 62.0417 40.2836C61.7599 40.1448 61.5413 39.9044 61.4303 39.611C61.0717 38.3875 60.7956 37.1442 60.4764 35.9099C60.2254 34.9368 59.8202 34.5934 58.825 34.5844C56.842 34.5666 54.8583 34.5666 52.874 34.5844C51.9416 34.5844 51.5023 34.9655 51.2603 35.8742C50.9393 37.1085 50.665 38.3535 50.3082 39.5753C50.188 39.8868 49.9551 40.1421 49.6555 40.2908C48.8122 40.6956 47.9473 41.0539 47.0646 41.3641C46.765 41.4637 46.4387 41.4458 46.152 41.314C45.0349 40.6969 43.9573 40.0082 42.8546 39.3642C41.9581 38.8401 41.4435 38.9116 40.703 39.6522C39.351 40.9902 38.0033 42.333 36.6597 43.6806C35.8833 44.4588 35.8188 44.9722 36.3692 45.9041C36.9932 46.956 37.61 48.0132 38.268 49.0435C38.5208 49.4407 38.5603 49.7591 38.3308 50.1812C37.9991 50.7984 37.6476 51.4334 37.4988 52.1096C37.298 53.0219 36.7601 53.3618 35.9156 53.5102C34.8667 53.7052 33.8357 53.995 32.8029 54.2669C31.9064 54.5066 31.537 54.9574 31.5298 55.8858C31.5131 57.8643 31.5131 59.8427 31.5298 61.8211C31.5298 62.7495 31.9028 63.1824 32.819 63.4186C34.0293 63.7334 35.2378 64.0554 36.4589 64.3255C36.9537 64.4364 37.1761 64.6743 37.3374 65.1537C37.5845 65.9211 37.8952 66.6666 38.2662 67.3826C38.528 67.8781 38.5477 68.2538 38.2268 68.7296C37.6889 69.5256 37.2209 70.37 36.7242 71.1964C35.7076 72.885 35.713 72.9387 37.0541 74.4539H5.8161V70.2698H6.68751C11.907 70.2698 17.1283 70.2823 22.3478 70.2519C22.9406 70.241 23.5245 70.1063 24.0619 69.8566C25.7384 69.0784 27.379 68.2216 29.0358 67.4023C29.6328 67.1089 30.0865 66.719 30.0918 65.9927C30.0972 65.2664 29.6669 64.8675 29.0609 64.5706C27.3306 63.7191 25.6182 62.8318 23.8772 62.0072C23.4291 61.806 22.9432 61.7024 22.4518 61.7031C17.2323 61.6816 12.0128 61.6888 6.7915 61.6888L5.80713 61.6906ZM30.8126 20.4527C30.454 20.2219 30.1797 20.0341 29.8946 19.8516C23.8736 16.0003 15.667 16.8285 10.6196 21.7997C9.78945 22.6172 9.73744 23.3846 10.5138 24.1645C13.7915 27.4488 17.0691 30.7331 20.3755 33.9834C20.7352 34.3098 21.1985 34.4997 21.6844 34.52C26.3552 34.5594 31.0278 34.5504 35.7004 34.5379C36.7422 34.5379 37.3303 33.9637 37.2496 32.9154C37.1686 31.6453 36.9888 30.3833 36.7117 29.141C36.0985 26.5615 34.7806 24.3326 32.8692 22.2683C33.3695 21.8122 33.8913 21.4133 34.3144 20.9303C34.7663 20.4133 35.2719 20.2595 35.9479 20.2631C41.3269 20.2863 46.706 20.2756 52.0851 20.2756H52.9601V17.4886C52.8463 17.466 52.7314 17.4499 52.6158 17.4403C46.5608 17.4403 40.5057 17.426 34.4507 17.4617C34.0383 17.4617 33.5542 17.7354 33.2314 18.0252C32.4066 18.7765 31.6482 19.6066 30.8126 20.4527ZM65.8806 14.5495C65.1634 14.5495 64.543 14.5996 63.9262 14.537C63.1839 14.4601 63.0297 14.7535 63.0297 15.4529C63.0548 22.4758 63.044 29.5006 63.0458 36.5235C63.0458 36.8026 63.0691 37.0816 63.0835 37.3857H65.886L65.8806 14.5495ZM10.0799 47.3871H32.9087C32.9302 47.1456 32.9625 46.9435 32.9643 46.7413C32.9643 46.0437 32.9643 45.346 32.9643 44.6054H10.0781L10.0799 47.3871ZM28.6485 50.3369H10.0925V53.063H28.6485V50.3369ZM58.7192 28.9067H41.6084V31.6472H58.7192V28.9067ZM32.923 38.9116H18.7097V41.6485H32.923V38.9116ZM47.33 25.9408H58.6995V23.1789H47.33V25.9408ZM44.436 23.1878H41.6174V26.0016C42.4583 26.0016 43.2311 26.0231 44.0075 25.9837C44.1039 25.9571 44.1919 25.9066 44.2634 25.8368C44.3349 25.7671 44.3875 25.6804 44.4163 25.5848C44.4557 24.7924 44.436 23.9946 44.436 23.1896V23.1878ZM12.9541 41.6378H15.7441V38.9116H12.9541V41.6378ZM58.7246 17.4886H55.9526V20.2201H58.7192L58.7246 17.4886Z" fill="#E1890F"/>
<path opacity="0.5" d="M55.0422 0.305153C54.1654 3.61985 54.1941 6.90234 55.0422 10.2796H3.40312C1.13494 10.2796 0.034016 9.18668 0.0304299 6.93992C0.0304299 5.68773 0.0124997 4.43555 0.0304299 3.18337C0.0644974 1.48756 1.26941 0.278316 2.96561 0.278316C20.2145 0.27116 37.4646 0.27116 54.7158 0.278316C54.8449 0.281893 54.9704 0.299786 55.0422 0.305153Z" fill="#E1890F"/>
<path d="M18.6329 64.5437V67.4309H2.0528C1.8735 67.4309 1.69419 67.4309 1.50592 67.4309C0.639889 67.3557 0.0374416 66.7654 0.0356486 65.9998C0.0338556 65.2342 0.621975 64.6475 1.50056 64.5687C1.75875 64.5455 2.02232 64.5562 2.28231 64.5562H18.6329V64.5437Z" fill="#E1890F"/>
<path d="M21.5522 67.3935V64.6709C22.5528 64.424 23.3614 64.7067 25.4539 66.0501C24.1073 66.474 23.1158 67.6189 21.5522 67.3935Z" fill="#E1890F"/>
<path opacity="0.5" d="M64.4754 58.9465C64.3624 63.7406 60.4321 67.5597 55.7505 67.4273C50.8861 67.2896 47.1996 63.3971 47.3233 58.519C47.4327 53.8823 51.4473 50.1616 56.188 50.2904C60.7943 50.4066 64.583 54.3564 64.4754 58.9465Z" fill="#E1890F"/>
<path d="M13.5029 23.145C17.7667 19.519 24.4726 19.401 28.6827 22.5565L24.8492 26.3577L26.9667 28.3702L30.9114 24.3721C32.8037 26.3714 33.9986 28.9268 34.3181 31.658C34.0546 31.6706 33.8251 31.6938 33.6009 31.6938C29.9754 31.6938 26.3481 31.6938 22.7209 31.6849C22.434 31.6849 22.061 31.6205 21.8746 31.438C19.0756 28.7011 16.3126 25.9409 13.5029 23.145Z" fill="#E1890F"/>
</svg>
