<svg width="57" height="57" viewBox="0 0 57 57" fill="none" xmlns="http://www.w3.org/2000/svg">
<path opacity="0.5" d="M41.9655 56.8291C41.4235 56.5823 41.1766 56.1425 41.0335 55.5771C40.5587 53.7086 40.0459 51.8503 39.5491 49.9876C39.5258 49.8999 39.5068 49.8123 39.4878 49.7305C39.8513 49.402 40.2322 49.0933 40.6288 48.8057C40.7315 48.7379 40.8466 48.6911 40.9674 48.6681C41.0883 48.645 41.2125 48.6461 41.333 48.6713C43.2804 49.3185 45.6106 47.9773 45.9378 45.821C45.9646 45.7432 46.0079 45.6722 46.065 45.6129C46.122 45.5536 46.1913 45.5074 46.268 45.4777C46.7384 45.2965 47.2249 45.1563 47.7596 44.9824C48.0284 45.9759 48.3148 47.019 48.5953 48.0635C49.0627 49.8021 49.5171 51.5435 49.9934 53.2805C50.1482 53.8474 50.1614 54.3675 49.6661 54.7751C49.1709 55.1827 48.6931 55.0599 48.1818 54.8291C47.2366 54.401 46.2826 53.9935 45.2877 53.5566C44.6916 54.3631 44.1189 55.1768 43.4981 55.9613C43.2254 56.2697 42.9326 56.5596 42.6215 56.8291H41.9655Z" fill="#E1890F"/>
<path d="M33.1034 56.8291C32.408 55.9774 31.698 55.1359 31.0187 54.2696C30.4694 53.5698 30.4854 53.5551 29.6556 53.916C28.9251 54.2345 28.1844 54.5442 27.4642 54.8773C26.9719 55.1023 26.5073 55.1169 26.0851 54.7575C25.6629 54.3981 25.603 53.9438 25.7461 53.4178C26.4766 50.7166 27.1968 48.0124 27.9215 45.3053C27.9536 45.1884 27.9945 45.073 28.0296 44.9663C28.4856 45.1079 28.9325 45.2772 29.3678 45.4732C29.6023 45.5947 29.7815 45.8011 29.8689 46.0503C30.4051 48.2198 32.7017 49.2644 34.4504 48.68C34.6681 48.6055 34.9851 48.7794 35.2393 48.8787C35.3649 48.9284 35.438 49.1154 35.5636 49.1636C36.4095 49.4894 36.2283 50.0883 36.0428 50.7414C35.5943 52.3148 35.1662 53.8926 34.7674 55.4806C34.6213 56.0563 34.3861 56.5208 33.8777 56.832L33.1034 56.8291Z" fill="#E1890F"/>
<path opacity="0.7" d="M26.6021 43.3579H11.4814V42.7399C11.4814 31.9709 11.477 21.2014 11.4683 10.4314C11.4683 9.8777 11.6027 9.70969 12.1622 9.73453C13.1849 9.78128 14.1958 9.74769 15.2813 9.74769C15.2813 10.1363 15.2813 10.4781 15.2813 10.8185C15.3091 11.8149 15.9796 12.5147 16.9716 12.5162C21.3086 12.5278 25.6461 12.5278 29.9841 12.5162C30.9878 12.5162 31.6569 11.8222 31.6788 10.8273C31.6861 10.4854 31.6788 10.1436 31.6788 9.78129H35.4919V25.2146C35.4919 26.0122 35.0857 26.3293 34.3041 26.1467C32.3012 25.6806 30.5057 26.7033 29.9213 28.6712C29.8757 28.8643 29.7769 29.0408 29.6362 29.1807C29.4955 29.3206 29.3185 29.4184 29.1251 29.463C27.1806 30.0474 26.1375 31.8443 26.6065 33.8005C26.6671 33.9989 26.6701 34.2104 26.615 34.4104C26.5599 34.6103 26.449 34.7905 26.2953 34.9298C25.6397 35.5901 25.2719 36.4829 25.2719 37.4134C25.2719 38.3439 25.6397 39.2366 26.2953 39.897C26.624 40.2388 26.6649 40.5705 26.6211 41.0277C26.5553 41.7976 26.6021 42.5719 26.6021 43.3579ZM23.4698 20.6039H31.2815C31.4629 20.613 31.6449 20.6052 31.8249 20.5805C32.2544 20.4958 32.5086 20.224 32.4984 19.7828C32.4882 19.3679 32.2369 19.1137 31.8308 19.0348C31.6858 19.0129 31.539 19.0051 31.3925 19.0115H15.5545C15.3913 19.0051 15.2279 19.0188 15.068 19.0524C14.8964 19.0853 14.7425 19.1795 14.635 19.3173C14.5276 19.4552 14.4738 19.6273 14.4836 19.8018C14.4718 19.9771 14.5247 20.1506 14.6325 20.2893C14.7402 20.4281 14.8953 20.5223 15.068 20.5542C15.2641 20.594 15.4642 20.6097 15.6641 20.6009C18.2635 20.6048 20.8655 20.6058 23.4698 20.6039ZM23.4947 14.5074H15.6173C15.4535 14.4956 15.289 14.5015 15.1264 14.5249C14.7276 14.6155 14.4807 14.8609 14.4778 15.2875C14.4626 15.4726 14.5202 15.6562 14.6383 15.7995C14.7565 15.9427 14.9258 16.0342 15.1104 16.0545C15.29 16.0838 15.472 16.0955 15.6538 16.0896H31.299C31.4812 16.094 31.6634 16.0838 31.8439 16.0589C32.0289 16.0415 32.2 15.9534 32.3216 15.813C32.4432 15.6725 32.5061 15.4906 32.497 15.3051C32.5075 15.1293 32.4542 14.9556 32.3468 14.816C32.2394 14.6764 32.0852 14.5803 31.9126 14.5454C31.7343 14.5091 31.5521 14.4964 31.3706 14.5074H23.4947ZM23.4874 25.1109H31.353C31.5168 25.1217 31.6812 25.1163 31.8439 25.0948C32.2749 25.0071 32.5218 24.7266 32.5013 24.2869C32.5061 24.1007 32.4379 23.92 32.3112 23.7835C32.1845 23.647 32.0095 23.5655 31.8235 23.5564C31.6245 23.5362 31.4244 23.5284 31.2245 23.533H15.7663C15.5482 23.5257 15.3298 23.5359 15.1133 23.5637C14.9382 23.5813 14.7762 23.6644 14.6597 23.7963C14.5433 23.9283 14.4809 24.0993 14.4851 24.2752C14.4617 24.6974 14.6838 24.9662 15.0797 25.0787C15.2405 25.1088 15.4046 25.1177 15.5677 25.105L23.4874 25.1109ZM20.2733 29.6135C21.8584 29.6135 23.445 29.6135 25.0301 29.6135C25.2595 29.6135 25.578 29.6135 25.6948 29.4674C25.8818 29.2482 26.0484 28.902 26.0192 28.6317C25.971 28.1934 25.5955 28.0473 25.1601 28.0546C21.8979 28.0546 18.6341 28.0546 15.3719 28.0546C14.7875 28.0546 14.4646 28.3468 14.4749 28.845C14.4851 29.3432 14.8065 29.6062 15.4055 29.6091C17.03 29.6105 18.6517 29.6062 20.2733 29.6076V29.6135ZM18.716 38.6406C19.8102 38.6406 20.9074 38.6406 21.9972 38.6406C22.6196 38.6406 22.9556 38.3323 22.9439 37.8298C22.9322 37.3272 22.5904 37.0569 21.9563 37.0555C19.8039 37.0555 17.6529 37.0555 15.5034 37.0555C14.8328 37.0555 14.4807 37.3359 14.4807 37.8429C14.4807 38.3498 14.8299 38.6391 15.5034 38.642C16.5669 38.6391 17.6436 38.6347 18.7174 38.6347L18.716 38.6406ZM18.716 34.1204C19.7912 34.1204 20.8665 34.1204 21.9417 34.1204C22.6269 34.1204 22.9644 33.8472 22.9483 33.3242C22.9381 32.826 22.6035 32.5558 21.9636 32.5558C19.7956 32.5558 17.6271 32.5558 15.4581 32.5558C14.8226 32.5558 14.4865 32.8304 14.4792 33.3286C14.4719 33.8268 14.8007 34.1146 15.4362 34.119C16.526 34.119 17.6203 34.1131 18.713 34.1146L18.716 34.1204Z" fill="#E1890F"/>
<path d="M45.5183 43.9305C44.5716 43.8999 44.3495 44.119 44.3919 45.0554C44.4532 46.5164 43.2684 47.5244 41.8528 47.1665C40.8535 46.9123 40.0441 47.1212 39.3108 47.8458C38.4649 48.6844 37.2742 48.6727 36.4269 47.8254C35.711 47.1095 34.9075 46.9094 33.9331 47.1621C32.7643 47.4645 31.7577 46.8845 31.4319 45.726C31.1544 44.7355 30.5656 44.1409 29.5663 43.8706C28.4122 43.5565 27.8351 42.5207 28.1448 41.3651C28.4049 40.3878 28.1843 39.5886 27.4728 38.8728C26.6123 38.0064 26.6211 36.8275 27.4874 35.9509C28.1828 35.2496 28.4005 34.4607 28.1536 33.5053C27.8424 32.3029 28.399 31.2978 29.5912 30.9647C30.5627 30.693 31.15 30.1145 31.4217 29.143C31.7548 27.9508 32.7599 27.3767 33.9564 27.682C34.909 27.9275 35.7008 27.7273 36.405 27.0319C37.3034 26.1436 38.459 26.1553 39.3706 27.0421C40.0587 27.7171 40.8316 27.9304 41.771 27.6937C43.0318 27.3752 44.0179 27.9494 44.3685 29.2043C44.4671 29.6229 44.6804 30.0058 44.9843 30.31C45.2883 30.6142 45.671 30.8278 46.0895 30.9268C47.3736 31.2891 47.9288 32.2693 47.6059 33.5754C47.3853 34.4622 47.5709 35.2204 48.2151 35.8822C49.1574 36.8494 49.1677 37.9685 48.2356 38.9283C47.5767 39.6062 47.3824 40.3731 47.6103 41.2833C47.9872 42.7881 47.0376 43.9787 45.5183 43.9305ZM31.4305 37.4279C31.4312 39.1355 32.1077 40.7734 33.3121 41.9838C34.5165 43.1943 36.151 43.8789 37.8586 43.8882C39.5742 43.8878 41.2203 43.2096 42.4382 42.0013C43.6561 40.7929 44.3473 39.1523 44.3612 37.4367C44.3589 35.7213 43.6776 34.0765 42.4663 32.8618C41.2549 31.6472 39.612 30.9615 37.8966 30.9545C37.0463 30.9526 36.204 31.1187 35.4181 31.4435C34.6323 31.7682 33.9184 32.2451 33.3175 32.8467C32.7165 33.4482 32.2405 34.1627 31.9166 34.9489C31.5928 35.7351 31.4276 36.5776 31.4305 37.4279Z" fill="#E1890F"/>
<path d="M15.318 4.96302V8.16391H13.0871C12.6489 8.16391 12.2106 8.16391 11.7723 8.16391C10.5627 8.17121 9.91106 8.81694 9.91106 10.0208C9.91106 15.1428 9.91106 20.2653 9.91106 25.3883V42.8333C9.91106 44.4301 10.4531 44.9795 12.0353 44.9795H26.3641L25.508 48.1935H10.4502C8.19301 48.1935 6.70139 46.7326 6.69847 44.474C6.6897 32.5527 6.6897 20.631 6.69847 8.70884C6.69847 6.40202 8.16963 4.97321 10.4764 4.96883C12.0922 4.96153 13.7168 4.96302 15.318 4.96302Z" fill="#E1890F"/>
<path opacity="0.5" d="M16.9014 10.9091C16.8883 10.7294 16.8693 10.5891 16.8693 10.4488C16.8693 9.02736 16.8591 7.60734 16.8693 6.18585C16.8795 4.87101 17.6392 4.12448 18.9468 4.11718C19.3105 4.11718 19.6772 4.11718 20.0395 4.11718C20.675 4.10549 20.9073 3.88197 20.9745 3.24062C21.1528 1.52548 22.6488 0.464853 24.2251 0.949883C24.7051 1.1017 25.1286 1.39381 25.4411 1.78856C25.7536 2.18332 25.9407 2.6626 25.9782 3.16465C26.0484 3.91264 26.2704 4.11719 27.0009 4.12449C27.3836 4.12449 27.7664 4.12449 28.1492 4.12449C29.2361 4.1464 30.0484 4.85495 30.0805 5.94773C30.1317 7.49486 30.1068 9.04492 30.0805 10.592C30.0805 10.7104 29.8702 10.8418 29.7357 10.9339C29.6729 10.9777 29.5575 10.9427 29.4669 10.9427H17.4975C17.3207 10.9397 17.125 10.9193 16.9014 10.9091ZM23.5224 9.74762H25.0534C26.0761 9.74762 27.0988 9.7593 28.1214 9.73885C28.6313 9.72716 28.941 9.4116 28.9512 8.97478C28.9615 8.53796 28.621 8.19902 28.101 8.16688C27.9549 8.15666 27.8088 8.16688 27.6627 8.16688H20.1725C19.7167 8.16688 19.2594 8.1479 18.8065 8.17712C18.3536 8.20634 18.0468 8.47807 18.0366 8.94265C18.0263 9.40722 18.3054 9.68041 18.767 9.73739C18.9308 9.75129 19.0952 9.7557 19.2594 9.75055L23.5224 9.74762ZM23.4742 2.34797C23.3698 2.3454 23.266 2.36445 23.1694 2.40393C23.0727 2.44342 22.9852 2.5025 22.9125 2.57742C22.8398 2.65234 22.7834 2.7415 22.7468 2.83929C22.7102 2.93708 22.6942 3.04138 22.6999 3.14564C22.701 3.2454 22.7218 3.34399 22.7611 3.43572C22.8003 3.52745 22.8572 3.61056 22.9286 3.68029C22.9999 3.75002 23.0843 3.805 23.1769 3.84211C23.2695 3.87922 23.3686 3.89773 23.4683 3.89658C23.5725 3.90266 23.6768 3.88709 23.7747 3.85085C23.8725 3.81461 23.9618 3.75847 24.0369 3.686C24.112 3.61352 24.1713 3.52625 24.2109 3.42973C24.2506 3.33321 24.2699 3.22953 24.2675 3.1252C24.2711 3.02079 24.2529 2.91678 24.2141 2.81978C24.1753 2.72278 24.1167 2.63491 24.0421 2.5618C23.9675 2.48868 23.8784 2.4319 23.7806 2.39509C23.6829 2.35828 23.5785 2.34223 23.4742 2.34797Z" fill="#E1890F"/>
<path d="M40.2885 25.6484C38.7253 24.8011 38.7194 24.7996 37.051 24.861V24.2181C37.051 19.5539 37.051 14.8896 37.051 10.2253C37.051 8.72496 36.4827 8.16395 34.9634 8.16395H31.6689V4.96306H32.1744C33.6134 4.96306 35.0569 5.02294 36.493 4.94843C38.5587 4.84178 40.3264 6.4269 40.3001 8.74686C40.2797 10.6782 40.3001 12.611 40.3001 14.5424V25.6455L40.2885 25.6484Z" fill="#E1890F"/>
<path d="M36.4897 38.8786C36.8389 38.49 37.0741 38.1978 37.3473 37.929C38.4917 36.7778 39.6395 35.6309 40.7907 34.4885C41.1939 34.0911 41.6673 34.0765 41.9946 34.4184C42.3218 34.7602 42.2867 35.2116 41.9127 35.5871C40.3203 37.1912 38.7216 38.789 37.1165 40.3804C36.7191 40.7734 36.3086 40.7749 35.9083 40.3907C35.2002 39.7089 34.5038 39.014 33.8192 38.3059C33.4612 37.9363 33.4598 37.5082 33.7651 37.1824C34.0704 36.8566 34.5452 36.8245 34.9251 37.2029C35.4379 37.7128 35.9156 38.2592 36.4897 38.8786Z" fill="#E1890F"/>
</svg>
