<svg width="289" height="228" viewBox="0 0 289 228" fill="none" xmlns="http://www.w3.org/2000/svg">
<g opacity="0.3">
<g clip-path="url(#clip0_804_5230)">
<path opacity="0.7" d="M0 75.8458C0.49029 74.1561 0.920245 72.4439 1.47088 70.7769C3.84668 63.3917 8.99861 57.2182 15.8395 53.5592C22.6805 49.9002 30.6753 49.0419 38.137 51.1653C40.2113 51.7386 42.263 52.425 44.3976 53.0812C48.0635 24.7727 62.7948 5.56084 91.4503 1.09543C120.506 -3.43032 140.208 10.9993 152.254 37.4599C165.363 20.6769 182.071 12.1684 203.334 16.0757C224.455 19.9678 237.195 33.5225 243.312 54.009C258.089 47.3486 271.553 48.4348 282.256 61.1371C290.071 70.4073 291.262 81.239 286.261 92.3421C282.045 101.703 274.57 107.187 264.387 109.366C264.198 106.523 264.221 103.973 263.836 101.484C261.875 88.6612 251.858 79.9868 238.884 79.9039C224.553 79.8058 210.281 79.9039 195.98 79.7983C194.374 79.6972 192.845 79.0718 191.628 78.0181C189.086 75.8081 186.861 73.2359 184.462 70.7618C180.841 72.5646 177.53 74.3221 174.106 75.8382C173.155 76.2606 171.843 75.9891 170.757 75.9514C170.41 75.9514 170.085 75.5893 169.731 75.5214C163.327 74.3523 160.528 69.9925 159.405 64.0562C159.039 62.6755 158.578 61.322 158.024 60.0056H149.727V40.3488H139.695V60.0207C137.281 60.0207 135.169 60.1263 133.042 59.983C131.42 59.8699 130.575 60.4431 130.311 62.0196C130.221 62.5702 129.866 63.0832 129.806 63.6338C128.984 70.7619 124.609 74.5559 117.979 76.1626C117.03 76.3841 116.037 76.3051 115.135 75.9363C112.224 74.6314 109.357 73.2057 106.551 71.6821C105.254 70.9881 104.288 70.973 103.421 72.2025C103.315 72.3534 103.127 72.4515 103.021 72.6023C98.6538 78.9912 92.6271 80.5148 85.0766 80.0698C74.1017 79.4211 63.0664 79.8963 52.0612 79.9039C35.316 79.9039 25.05 90.117 24.9067 106.945C24.9067 107.594 24.9067 108.25 24.9067 109.208C24.0467 109.134 23.1925 109.003 22.3497 108.816C10.7034 105.361 3.45717 97.7202 0.610975 85.8929C0.437487 85.1764 0.218759 84.4673 0.0151006 83.7507L0 75.8458ZM179.439 39.9867H199.103V30.2488H169.633V59.8171H179.439V39.9867ZM79.872 40.1451H99.8306V59.8925H109.44V30.3393H79.872V40.1451ZM89.5269 74.8426V50.1395H69.9908V60.0735H79.7966V74.7898L89.5269 74.8426ZM209.324 59.9981H219.054V50.2677H199.51V74.7596H209.316L209.324 59.9981ZM129.391 49.8604V20.3223H119.849V49.8604H129.391ZM59.9964 40.0546C62.908 40.0546 65.6913 40.115 68.4671 39.9867C68.7782 39.8961 69.0609 39.7272 69.2881 39.4961C69.5153 39.2649 69.6792 38.9794 69.7645 38.6667C69.8851 35.8985 69.8248 33.1151 69.8248 30.2186H60.019L59.9964 40.0546ZM219.152 30.2488H209.61V39.8736H219.114L219.152 30.2488Z" fill="#E1890F"/>
<path opacity="0.5" d="M184.372 188.741C190.406 182.654 196.501 176.627 202.475 170.502C202.692 170.148 202.826 169.749 202.863 169.336C202.901 168.922 202.843 168.506 202.693 168.118C201.479 165.365 200.061 162.71 198.726 160.017C198.446 159.529 198.194 159.025 197.972 158.509C197.346 156.781 201.743 147.602 203.448 147.013C206.382 146.018 209.316 145.014 212.273 144.102C213.699 143.664 214.423 143.053 214.4 141.364C214.31 133.655 214.4 125.938 214.279 118.23C214.196 117.695 213.989 117.188 213.675 116.748C213.36 116.308 212.947 115.947 212.469 115.695C209.527 114.481 206.435 113.681 203.418 112.55C202.467 112.188 201.728 111.29 200.891 110.634L201.268 109.993H234.049V219.222H54.9805V110.03H88.6973C87.4377 111.154 86.7663 112.135 85.8461 112.489C82.7837 113.666 79.6005 114.518 76.5532 115.733C76.1115 115.951 75.7268 116.269 75.4296 116.662C75.1324 117.055 74.9308 117.511 74.841 117.996C74.7128 125.803 74.6977 133.61 74.841 141.416C74.9467 141.942 75.1726 142.436 75.5011 142.86C75.8295 143.284 76.2516 143.627 76.7343 143.86C79.5855 145.037 82.6177 145.791 85.4916 146.938C86.5447 147.394 87.4135 148.191 87.9581 149.201C89.0866 151.468 90.0594 153.809 90.8697 156.208C91.1809 157.129 91.1622 158.129 90.8169 159.037C89.5195 161.948 88.0713 164.8 86.5401 167.605C85.7858 168.971 85.8687 169.868 87.0454 171C92.5769 176.375 98.033 181.826 103.414 187.353C104.454 188.409 105.262 188.582 106.559 187.866C109.101 186.455 111.748 185.226 114.351 183.921C114.835 183.633 115.339 183.381 115.859 183.167C117.821 182.48 126.812 186.938 127.483 188.929C128.449 191.781 129.482 194.602 130.297 197.491C130.726 198.999 131.428 199.565 133.042 199.55C140.751 199.464 148.465 199.464 156.184 199.55C157.692 199.55 158.349 199.105 158.764 197.664C159.563 194.866 160.574 192.135 161.502 189.367C161.652 188.922 161.788 188.469 161.977 188.039C162.799 186.146 172.235 182.661 174.106 183.581C177.455 185.263 180.811 186.946 184.372 188.741Z" fill="#E1890F"/>
<path d="M198.575 99.8775C200.19 96.619 201.427 93.8432 202.92 91.2786C203.197 90.9015 203.554 90.5894 203.964 90.364C204.374 90.1387 204.829 90.0054 205.296 89.9737C216.776 89.8983 228.257 89.8228 239.737 89.9737C248.08 90.0944 254.114 96.7171 254.114 105.588C254.144 133.914 254.144 162.237 254.114 190.559C254.114 204.385 253.729 218.233 254.242 232.045C254.627 242.341 247.619 251.128 234.359 249.114V239.723H224.342V249.19H214.4V239.625H204.429V249.371H201.064C151.281 249.371 101.498 249.25 51.7147 249.469C41.3884 249.522 34.728 242.212 34.7959 232.414C35.0926 190.546 35.0926 148.675 34.7959 106.802C34.728 96.6492 41.8938 89.4532 51.7901 89.8228C62.1239 90.2452 72.4879 89.9888 82.8368 89.8605C84.9714 89.8605 86.0652 90.5017 86.8496 92.4025C87.8377 94.8012 89.1125 97.0791 90.4778 99.8775H87.0306C76.8628 99.8775 66.6648 99.8775 56.5422 99.8775C48.5467 99.8775 44.828 103.649 44.828 111.66C44.828 146.955 44.828 182.244 44.828 217.524C44.828 225.724 48.5391 229.435 56.6855 229.435H232.571C240.386 229.435 244.24 225.663 244.24 217.894C244.24 182.417 244.24 146.943 244.24 111.471C244.24 103.664 240.469 99.8926 232.617 99.8775C222.456 99.8775 212.296 99.8775 202.128 99.8775H198.575Z" fill="#E1890F"/>
<path d="M191.409 91.8517C189.809 95.0424 188.301 97.7654 187.094 100.609C186.747 101.682 186.787 102.843 187.207 103.89C189.043 108.597 190.989 113.261 193.045 117.882C193.49 118.929 194.292 119.785 195.308 120.296C198.242 121.488 201.343 122.378 204.36 123.389V136.136C201.418 137.132 198.446 137.984 195.602 139.153C194.511 139.673 193.633 140.555 193.121 141.65C191.046 146.259 189.115 150.935 187.275 155.65C186.857 156.695 186.82 157.853 187.169 158.923C188.369 161.775 189.877 164.49 191.469 167.673C188.708 170.366 185.955 173.149 183.066 175.789C182.725 175.96 182.346 176.043 181.965 176.033C181.583 176.022 181.21 175.918 180.879 175.729C175.304 171.694 169.836 171.203 164.126 175.548C162.643 176.567 160.924 177.19 159.132 177.358C155.361 177.818 153.935 180.059 152.962 183.43C151.182 189.616 151.001 189.563 144.469 189.563C138.216 189.563 137.99 189.623 136.345 183.702C135.35 180.089 133.69 178.143 129.851 177.215C126.011 176.287 122.67 174.039 119.012 172.599C117.804 172.137 116.478 172.089 115.24 172.463C113.054 173.322 110.943 174.359 108.927 175.563C107.516 176.355 106.528 176.43 105.283 175.088C102.93 172.546 100.328 170.223 97.7405 167.734C99.2491 164.648 100.818 161.858 102.063 158.938C102.412 157.866 102.374 156.705 101.957 155.657C100.117 150.951 98.1856 146.274 96.1113 141.665C95.6035 140.565 94.7325 139.673 93.6447 139.138C90.8011 137.954 87.8216 137.102 84.8723 136.121V123.419C87.799 122.431 90.786 121.593 93.607 120.402C94.7547 119.802 95.6624 118.828 96.1791 117.641C98.1856 113.206 99.8676 108.627 101.912 104.207C102.56 102.797 102.824 101.778 102.032 100.353C100.524 97.6523 99.2491 94.8388 97.7254 91.7688C100.418 89.1891 103.005 86.5868 105.751 84.1655C106.131 83.9166 106.563 83.7568 107.013 83.6981C107.464 83.6393 107.922 83.683 108.353 83.8261C111.288 85.0631 114.109 87.5976 116.998 87.5976C119.751 87.5976 122.511 85.131 125.295 83.8261C126.789 83.0287 128.397 82.4641 130.062 82.1516C133.833 81.7292 135.267 79.4814 136.24 76.1172C138.012 69.9547 138.193 70.0075 144.454 70.0075C150.994 70.0075 151.175 69.9547 153.03 76.3737C153.958 79.5794 155.466 81.2539 158.823 82.1666C162.76 83.2453 166.366 85.4403 170.205 86.9413C171.415 87.3959 172.74 87.4409 173.977 87.0695C176.17 86.2256 178.285 85.1908 180.298 83.9769C181.716 83.1698 182.689 83.0944 183.926 84.4371C186.227 86.9941 188.821 89.3324 191.409 91.8517ZM144.386 169.612C152.264 169.63 159.971 167.311 166.532 162.949C173.092 158.587 178.212 152.377 181.244 145.105C184.275 137.833 185.082 129.826 183.563 122.095C182.043 114.365 178.266 107.258 172.707 101.675C167.149 96.0912 160.06 92.2812 152.336 90.7267C144.613 89.1721 136.602 89.9427 129.316 92.9411C122.031 95.9395 115.798 101.031 111.406 107.572C107.014 114.112 104.66 121.809 104.642 129.687C104.638 140.246 108.818 150.376 116.268 157.859C123.717 165.342 133.827 169.568 144.386 169.612Z" fill="#E1890F"/>
<path d="M144.462 99.9301C150.359 99.9243 156.125 101.665 161.034 104.933C165.943 108.2 169.774 112.848 172.045 118.291C174.315 123.733 174.923 129.726 173.791 135.514C172.66 141.301 169.84 146.624 165.687 150.81C161.534 154.997 156.234 157.86 150.456 159.038C144.678 160.216 138.68 159.657 133.219 157.43C127.759 155.204 123.08 151.41 119.773 146.528C116.466 141.645 114.679 135.893 114.637 129.996C114.613 126.061 115.367 122.161 116.854 118.518C118.341 114.875 120.534 111.562 123.305 108.768C126.076 105.975 129.371 103.756 133.002 102.239C136.632 100.723 140.527 99.9379 144.462 99.9301ZM124.669 129.906C124.706 133.833 125.906 137.661 128.118 140.907C130.329 144.153 133.452 146.671 137.093 148.143C140.734 149.615 144.73 149.976 148.575 149.179C152.421 148.383 155.945 146.464 158.701 143.667C161.458 140.869 163.324 137.318 164.064 133.461C164.803 129.603 164.384 125.614 162.858 121.995C161.332 118.376 158.768 115.29 155.49 113.127C152.212 110.964 148.366 109.821 144.439 109.841C139.158 109.883 134.109 112.02 130.402 115.782C126.695 119.544 124.633 124.624 124.669 129.906Z" fill="#E1890F"/>
<path opacity="0.6" d="M144.621 139.712C142.657 139.71 140.739 139.126 139.107 138.033C137.476 136.94 136.206 135.388 135.458 133.573C134.71 131.758 134.517 129.761 134.904 127.836C135.292 125.912 136.241 124.145 137.633 122.76C139.025 121.376 140.797 120.435 142.724 120.058C144.651 119.681 146.646 119.885 148.457 120.643C150.269 121.401 151.814 122.679 152.898 124.316C153.982 125.953 154.556 127.875 154.547 129.838C154.523 132.459 153.468 134.964 151.61 136.812C149.752 138.66 147.241 139.702 144.621 139.712Z" fill="#E1890F"/>
</g>
</g>
<defs>
<clipPath id="clip0_804_5230">
<path d="M0 0.272827H289V177.273C289 204.887 266.614 227.273 239 227.273H0V0.272827Z" fill="white"/>
</clipPath>
</defs>
</svg>
