<svg width="80" height="80" viewBox="0 0 80 80" fill="none" xmlns="http://www.w3.org/2000/svg">
<path d="M30.4938 67.1781H50.6031V77.7812H30.4938V67.1781Z" fill="#D3D3D3"/>
<path d="M50.725 67.1781V77.7812H30.4938V74.7344H37.8063C40.7313 74.7344 43.4125 73.5156 45.3625 71.6875C46.5813 70.4687 47.5563 68.8844 48.0438 67.1781H50.725Z" fill="#D3D3D3"/>
<path d="M50.725 79H30.4938C29.7625 79 29.275 78.3907 29.275 77.7813V72.175C29.275 71.4438 29.8844 70.9563 30.4938 70.9563C31.1031 70.9563 31.7125 71.5657 31.7125 72.175V76.5625H49.3844V72.175C49.3844 71.4438 49.9938 70.9563 50.6031 70.9563C51.2125 70.9563 51.8219 71.5657 51.8219 72.175V77.7813C51.9438 78.5125 51.3344 79 50.725 79Z" fill="#474747"/>
<path d="M56.3312 79H24.8875C24.1562 79 23.6687 78.3906 23.6687 77.7812C23.6687 77.1719 24.2781 76.5625 24.8875 76.5625H56.3312C57.0625 76.5625 57.5499 77.1719 57.5499 77.7812C57.5499 78.3906 56.9406 79 56.3312 79Z" fill="#474747"/>
<path d="M77.7812 16.9656V53.8937H3.4375V16.9656C3.4375 14.2844 5.63125 11.9688 8.43437 11.9688H72.7844C75.5875 12.0906 77.7812 14.2844 77.7812 16.9656Z" fill="#D3D3D3"/>
<path d="M63.4 12.0906L32.2 53.8937H3.4375V44.0218L27.2031 12.0906H63.4ZM77.7812 16.9656V21.9625L53.8938 53.8937H39.2687L70.4688 12.0906H72.9062C75.5875 12.0906 77.7812 14.2843 77.7812 16.9656Z" fill="#D3D3D3"/>
<path d="M77.7812 55.1125H3.4375C2.70625 55.1125 2.21875 54.5031 2.21875 53.8937V29.275C2.21875 28.5437 2.82812 28.0562 3.4375 28.0562C4.04688 28.0562 4.65625 28.6656 4.65625 29.275V52.5531H76.5625V16.9656C76.5625 14.8938 74.8563 13.1875 72.7844 13.1875H32.9313C32.2 13.1875 31.7125 12.5781 31.7125 11.9687C31.7125 11.3594 32.3219 10.75 32.9313 10.75H72.7844C76.1969 10.75 79 13.5531 79 16.9656V53.8937C79 54.5031 78.3906 55.1125 77.7812 55.1125Z" fill="#474747"/>
<path d="M77.7812 53.8938V62.3032C77.7812 65.1063 75.5875 67.3 72.7844 67.3H8.43437C5.63125 67.3 3.4375 65.1063 3.4375 62.3032V53.8938H77.7812Z" fill="#E08812"/>
<path d="M77.7812 53.8938V62.3032C77.7812 65.1063 75.5875 67.3 72.7844 67.3H8.43437C5.63125 67.3 3.4375 65.1063 3.4375 62.3032V61.6938C4.29062 62.3032 5.26563 62.6688 6.3625 62.6688H62.425C68.1531 62.6688 73.0281 59.0125 74.8562 54.0157C74.8562 53.8938 77.7812 53.8938 77.7812 53.8938Z" fill="#E08812"/>
<path d="M72.7844 68.3969H8.3125C4.9 68.3969 2.21875 65.5937 2.21875 62.1812V53.7719C2.21875 53.0406 2.82812 52.5531 3.4375 52.5531H77.7812C78.5125 52.5531 79 53.1625 79 53.7719V62.1812C79 65.5937 76.1969 68.3969 72.7844 68.3969ZM4.65625 55.1125V62.1812C4.65625 64.2531 6.3625 65.9594 8.43437 65.9594H72.9062C74.9781 65.9594 76.6844 64.2531 76.6844 62.1812V55.1125H4.65625Z" fill="#474747"/>
<path d="M40.6094 62.9125C41.9556 62.9125 43.0469 61.8212 43.0469 60.475C43.0469 59.1288 41.9556 58.0375 40.6094 58.0375C39.2632 58.0375 38.1719 59.1288 38.1719 60.475C38.1719 61.8212 39.2632 62.9125 40.6094 62.9125Z" fill="#D3D3D3"/>
<path d="M40.6094 64.2532C38.5375 64.2532 36.9531 62.5469 36.9531 60.5969C36.9531 58.525 38.6594 56.9407 40.6094 56.9407C42.6813 56.9407 44.2656 58.6469 44.2656 60.5969C44.2656 62.5469 42.6813 64.2532 40.6094 64.2532ZM40.6094 59.2563C39.8781 59.2563 39.3906 59.8657 39.3906 60.475C39.3906 61.2063 40 61.6938 40.6094 61.6938C41.3406 61.6938 41.8281 61.0844 41.8281 60.475C41.8281 59.8657 41.2188 59.2563 40.6094 59.2563Z" fill="#474747"/>
<path d="M50.8469 36.7093C50.725 37.0749 50.6031 37.4406 50.4812 37.6843C50.2375 38.1718 50.2375 38.7812 50.6031 39.2687L52.0656 41.2187C52.5531 41.8281 52.4312 42.6812 51.9437 43.1687L50.8469 44.3874C50.3594 44.9968 49.3844 44.9968 48.775 44.5093L46.825 43.0468C46.3375 42.6812 45.7281 42.6812 45.2406 42.925C44.875 43.0468 44.6313 43.1687 44.2656 43.2906C43.7781 43.5343 43.2906 43.9 43.2906 44.5093L42.925 46.9468C42.8031 47.6781 42.1937 48.2874 41.3406 48.2874H39.7562C39.025 48.2874 38.4156 47.6781 38.1719 46.9468L37.8063 44.5093C37.6844 43.9 37.3187 43.5343 36.8312 43.2906C36.4656 43.1687 36.2219 43.0468 35.8563 42.925C35.3688 42.6812 34.7594 42.6812 34.2719 43.0468L32.3219 44.5093C31.7125 44.9968 30.8594 44.8749 30.3719 44.3874L29.275 43.1687C28.7875 42.6812 28.6656 41.8281 29.1531 41.2187L30.6156 39.2687C30.9812 38.7812 30.9812 38.1718 30.7375 37.6843C30.6156 37.3187 30.4938 37.0749 30.3719 36.7093C30.1281 36.2218 29.7625 35.7343 29.1531 35.7343L26.7156 35.3687C25.9844 35.2468 25.375 34.6375 25.375 33.7843V32.0781C25.375 31.3468 25.9844 30.7375 26.7156 30.4937L29.1531 30.1281C29.7625 30.0062 30.1281 29.6406 30.3719 29.1531C30.4938 28.7875 30.6156 28.4218 30.7375 28.1781C30.9812 27.6906 30.9812 27.0812 30.6156 26.5937L29.1531 24.6437C28.6656 24.0343 28.7875 23.1812 29.275 22.6937L30.3719 21.4749C30.8594 20.8656 31.7125 20.8656 32.3219 21.3531L34.2719 22.8156C34.7594 23.1812 35.3688 23.1812 35.8563 22.9375C36.2219 22.8156 36.4656 22.6937 36.8312 22.5718C37.3187 22.3281 37.8063 21.9625 37.8063 21.3531L38.1719 18.9156C38.2937 18.1843 38.9031 17.575 39.7562 17.575H41.3406C42.0719 17.575 42.8031 18.1843 42.925 18.9156L43.2906 21.3531C43.4125 21.9625 43.7781 22.3281 44.2656 22.5718C44.6313 22.6937 44.875 22.8156 45.2406 22.9375C45.7281 23.1812 46.3375 23.1812 46.825 22.8156L48.775 21.3531C49.3844 20.8656 50.2375 20.9874 50.8469 21.4749L51.9437 22.6937C52.4312 23.1812 52.5531 24.0343 52.0656 24.6437L50.6031 26.5937C50.2375 27.0812 50.2375 27.6906 50.4812 28.1781C50.6031 28.5437 50.725 28.7875 50.8469 29.1531C51.0906 29.6406 51.4563 30.1281 52.0656 30.1281L54.5031 30.4937C55.2344 30.6156 55.8438 31.225 55.8438 32.0781V33.7843C55.8438 34.5156 55.2344 35.125 54.5031 35.3687L52.0656 35.7343C51.5781 35.7343 51.0906 36.0999 50.8469 36.7093Z" fill="#E08812"/>
<path d="M40.6094 42.8032C40.1219 41.7063 39.1468 40.8532 37.9281 40.3657C37.6844 40.2438 37.4406 40.1219 37.1969 40.1219C36.5875 39.7563 35.8562 39.6344 35.125 39.6344C34.5156 39.6344 34.0281 39.7563 33.5406 39.8782C34.0281 38.6594 33.9062 37.4407 33.4187 36.2219L33.0531 35.4907C32.5656 34.2719 31.7125 33.2969 30.6156 32.8094C31.7125 32.3219 32.6875 31.3469 33.0531 30.1282C33.175 29.8844 33.175 29.6407 33.2969 29.3969C33.9062 28.1782 33.9062 26.9594 33.4187 25.7407C33.9062 25.8625 34.5156 25.9844 35.0031 25.9844C35.7344 25.9844 36.3437 25.8625 37.075 25.4969C37.3187 25.375 37.5625 25.2532 37.8062 25.2532C39.025 24.7657 39.8781 23.9125 40.4875 22.8157C40.975 23.9125 41.95 24.7657 43.1687 25.2532C43.4125 25.375 43.6562 25.375 43.9 25.4969C44.5094 25.8625 45.2406 25.9844 45.9719 25.9844C46.5812 25.9844 47.0687 25.8625 47.5562 25.7407C47.0687 26.9594 47.1906 28.1782 47.6781 29.3969C47.8 29.6407 47.9219 29.8844 47.9219 30.1282C48.4093 31.3469 49.2625 32.3219 50.3594 32.8094C49.2625 33.2969 48.2875 34.2719 47.9219 35.4907L47.5562 36.2219C46.9469 37.4407 46.9468 38.6594 47.4343 39.8782C46.9468 39.7563 46.3375 39.6344 45.85 39.6344C45.1187 39.6344 44.5093 39.7563 43.7781 40.1219C43.5343 40.2438 43.2906 40.3657 43.0469 40.3657C42.0719 40.8532 41.0969 41.7063 40.6094 42.8032Z" fill="#E08812"/>
<path d="M41.3406 49.5062H39.7562C38.4156 49.5062 37.1969 48.5312 36.9531 47.1906L36.5875 44.7531C36.5875 44.6312 36.4656 44.5093 36.3438 44.5093C35.9781 44.3875 35.6125 44.2656 35.2469 44.0218C35.125 44.0218 35.0031 43.9 34.8812 44.0218L32.9313 45.4843C31.8344 46.3375 30.25 46.2156 29.275 45.2406L28.1781 44.0218C27.2031 43.0468 27.0813 41.5843 27.9344 40.4875L29.3969 38.5375C29.5187 38.4156 29.5187 38.2937 29.3969 38.1718C29.275 37.8062 29.0312 37.4406 28.9094 37.075L28.6656 36.8312L26.2281 36.4656C25.1313 36.3437 24.1562 35.125 24.1562 33.7843V32.0781C24.1562 30.7375 25.1312 29.5187 26.4719 29.275L28.9094 28.9093C29.0312 28.9093 29.1531 28.7875 29.1531 28.6656C29.275 28.3 29.3969 27.9343 29.6406 27.5687V27.325L28.0563 25.375C27.2031 24.2781 27.325 22.8156 28.3 21.8406L29.3969 20.6218C30.3719 19.6468 31.9562 19.525 33.0531 20.3781L35.0031 21.8406C35.125 21.9625 35.2469 21.8406 35.3688 21.8406C35.7344 21.7187 36.1 21.475 36.4656 21.3531C36.5875 21.3531 36.7094 21.2312 36.7094 21.1093L37.075 18.6718C37.3188 17.3312 38.4156 16.3562 39.8781 16.3562H41.4625C42.8031 16.3562 44.0219 17.3312 44.2656 18.6718L44.6312 21.1093C44.6312 21.2312 44.7531 21.3531 44.875 21.3531C45.2406 21.475 45.6063 21.5968 45.9719 21.8406H46.3375L48.2875 20.3781C49.3844 19.6468 50.9688 19.6468 51.9437 20.6218L53.0406 21.8406C54.0156 22.8156 54.1375 24.2781 53.2844 25.375L51.8219 27.325C51.7 27.4468 51.7 27.5687 51.8219 27.6906C51.9438 28.0562 52.1875 28.4218 52.3094 28.7875C52.3094 28.9093 52.4312 29.0312 52.5531 29.0312L54.9906 29.3968C56.3312 29.6406 57.3063 30.7375 57.3063 32.2V33.9062C57.3063 35.2468 56.3312 36.4656 54.9906 36.7093L52.5531 37.075C52.4312 37.075 52.3094 37.1968 52.3094 37.3187C52.1875 37.6843 52.0656 38.05 51.8219 38.4156V38.6593L53.2844 40.6093C54.1375 41.7062 54.0156 43.1687 53.0406 44.1437L51.9437 45.3625C50.9688 46.3375 49.3844 46.4593 48.2875 45.6062L46.0938 44.0218C45.9719 43.9 45.85 43.9 45.7281 44.0218C45.3625 44.1437 44.9969 44.3875 44.6312 44.5093C44.5094 44.5093 44.5094 44.6312 44.5094 44.7531L44.1438 47.1906C43.9 48.5312 42.8031 49.5062 41.3406 49.5062ZM35.2469 41.5843C35.6125 41.5843 36.1 41.7062 36.4656 41.8281C36.7094 41.95 37.075 42.0718 37.3187 42.1937C38.2937 42.5593 38.9031 43.4125 39.1469 44.3875L39.5125 46.825C39.5125 46.9468 39.6344 47.0687 39.7562 47.0687H41.3406C41.4625 47.0687 41.5844 46.9468 41.5844 46.825L41.95 44.3875C42.0719 43.4125 42.8031 42.5593 43.7781 42.1937C44.1437 42.0718 44.3875 41.95 44.6312 41.8281C45.4844 41.4625 46.7031 41.4625 47.4344 42.0718L49.3844 43.5343C49.5063 43.6562 49.6281 43.6562 49.75 43.5343L50.8469 42.3156C50.9688 42.1937 50.9688 42.0718 50.8469 41.95L49.6281 40C49.0188 39.1468 48.8969 38.1718 49.3844 37.1968C49.5063 36.9531 49.6281 36.5875 49.75 36.3437C50.1156 35.3687 50.9688 34.6375 51.9437 34.5156L54.2594 34.15C54.3813 34.15 54.5031 34.0281 54.5031 33.9062V32.2C54.5031 32.0781 54.3813 31.9562 54.2594 31.9562L51.8219 31.5906C50.8469 31.4687 49.9938 30.7375 49.6281 29.7625C49.5063 29.3968 49.3844 29.1531 49.2625 28.9093C48.775 27.9343 48.8969 26.8375 49.5062 26.1062L50.9688 24.1562C51.0906 24.0343 51.0906 23.9125 50.9688 23.7906L49.8719 22.6937C49.75 22.5718 49.6281 22.5718 49.5062 22.6937L47.5563 24.1562C46.825 24.7656 45.6063 24.8875 44.7531 24.4C44.5094 24.2781 44.1438 24.1562 43.9 24.0343C42.925 23.6687 42.3156 22.8156 42.0719 21.8406L41.7063 19.4031C41.7063 19.2812 41.5844 19.1593 41.4625 19.1593H39.8781C39.7562 19.1593 39.6344 19.2812 39.6344 19.4031L39.2687 21.8406C39.1469 22.8156 38.4156 23.6687 37.4406 24.0343C37.1969 24.1562 36.8313 24.2781 36.5875 24.4C35.7344 24.7656 34.5156 24.7656 33.7844 24.1562L31.8344 22.6937C31.7125 22.5718 31.5906 22.5718 31.4688 22.6937L30.3719 23.9125C30.25 24.0343 30.25 24.1562 30.3719 24.2781L31.8344 26.2281C32.4437 27.0812 32.5656 28.0562 32.0781 29.0312C31.9563 29.275 31.8344 29.6406 31.7125 29.8843C31.3469 30.8593 30.4937 31.5906 29.5187 31.7125L27.2031 32.0781C27.0812 32.0781 26.9594 32.2 26.9594 32.3218V34.0281C26.9594 34.15 27.0812 34.2718 27.2031 34.2718L29.6406 34.6375C30.6156 34.7593 31.4687 35.4906 31.8344 36.4656C31.9562 36.8312 32.0781 37.075 32.2 37.3187C32.6875 38.2937 32.5656 39.3906 31.9562 40.1218L30.4938 42.0718C30.3719 42.1937 30.3719 42.3156 30.4938 42.4375L31.5906 43.5343C31.7125 43.6562 31.8344 43.6562 31.9562 43.5343L33.9062 42.0718C34.0281 41.7062 34.6375 41.5843 35.2469 41.5843Z" fill="#474747"/>
<path d="M40.6094 38.6594C43.7729 38.6594 46.3375 36.0948 46.3375 32.9313C46.3375 29.7677 43.7729 27.2031 40.6094 27.2031C37.4458 27.2031 34.8812 29.7677 34.8812 32.9313C34.8812 36.0948 37.4458 38.6594 40.6094 38.6594Z" fill="#F4F4F4"/>
<path d="M40.6094 39.8781C36.7094 39.8781 33.6625 36.7094 33.6625 32.9313C33.6625 29.1531 36.8312 25.9844 40.6094 25.9844C44.5094 25.9844 47.5562 29.1531 47.5562 32.9313C47.5562 36.7094 44.3875 39.8781 40.6094 39.8781ZM40.6094 28.4219C38.1719 28.4219 36.1 30.4938 36.1 32.9313C36.1 35.3688 38.1719 37.4406 40.6094 37.4406C43.0469 37.4406 45.1187 35.3688 45.1187 32.9313C45.1187 30.4938 43.0469 28.4219 40.6094 28.4219Z" fill="#474747"/>
<path d="M24.4 18.7938C24.2781 19.1594 24.1562 19.4031 24.0344 19.6469C23.7906 20.1344 23.9125 20.6219 24.1562 20.9875L25.375 22.6937C25.7406 23.1812 25.7406 23.9125 25.2531 24.4L24.2781 25.375C23.7906 25.8625 23.0594 25.8625 22.5719 25.4969L20.8656 24.2781C20.5 24.0344 19.8906 23.9125 19.525 24.1562C19.2812 24.2781 18.9156 24.4 18.6719 24.5219C18.1844 24.6437 17.9406 25.1313 17.8187 25.6188L17.4531 27.8125C17.3312 28.4219 16.8437 28.9094 16.1125 28.9094H14.7719C14.1625 28.9094 13.5531 28.4219 13.4312 27.8125L13.1875 25.7406C13.0656 25.2531 12.8219 24.8875 12.3344 24.6437C12.0906 24.5219 11.725 24.4 11.4812 24.2781C10.9937 24.0344 10.5062 24.1562 10.1406 24.4L8.43437 25.6188C7.825 25.9844 7.09375 25.9844 6.60625 25.4969L5.63125 24.5219C5.14375 24.0344 5.14375 23.3031 5.50937 22.8156L6.72812 21.1094C6.97187 20.7437 7.09375 20.1344 6.85 19.7687C6.72812 19.525 6.60625 19.1594 6.48437 18.9156C6.3625 18.3062 5.875 18.0625 5.3875 17.9406L3.31562 17.575C2.70625 17.575 2.21875 16.9656 2.21875 16.3563V14.8937C2.21875 14.2844 2.70625 13.675 3.31562 13.5531L5.3875 13.1875C5.875 13.1875 6.3625 12.8219 6.48437 12.3344C6.60625 11.9688 6.72812 11.725 6.85 11.4813C7.09375 10.9938 6.97187 10.5063 6.72812 10.1406L5.50937 8.43437C5.14375 7.825 5.14375 7.09375 5.63125 6.60625L6.60625 5.63125C7.09375 5.14375 7.825 5.14375 8.3125 5.50938L10.0187 6.72812C10.3844 7.09375 10.9937 7.09375 11.3594 6.85C11.725 6.72813 11.9687 6.60625 12.2125 6.48438C12.7 6.3625 12.9437 5.875 13.0656 5.3875L13.4312 3.31562C13.5531 2.70625 14.0406 2.21875 14.7719 2.21875H16.1125C16.7219 2.21875 17.3312 2.70625 17.4531 3.31562L17.8187 5.3875C17.9406 5.875 18.1844 6.24062 18.6719 6.48438C18.9156 6.60625 19.2812 6.72813 19.525 6.85C19.8906 7.09375 20.5 7.09375 20.8656 6.72812L22.5719 5.50938C23.0594 5.14375 23.7906 5.14375 24.2781 5.63125L25.2531 6.60625C25.7406 7.09375 25.7406 7.825 25.375 8.3125L24.1562 10.0188C23.9125 10.3844 23.7906 10.9937 24.0344 11.3594C24.1562 11.6031 24.2781 11.9688 24.4 12.2125C24.5219 12.7 25.0094 13.0656 25.4969 13.0656L27.5687 13.4312C28.1781 13.5531 28.6656 14.0406 28.6656 14.7719V16.2344C28.6656 16.8438 28.1781 17.4531 27.5687 17.575L25.4969 17.9406C25.0094 17.9406 24.5219 18.3062 24.4 18.7938Z" fill="#E08812"/>
<path d="M15.5032 24.7656C15.1375 23.6688 14.2844 22.6938 13.1875 22.3281C12.9438 22.2063 12.8219 22.2062 12.5782 22.0844C11.9688 21.8406 11.3594 21.7188 10.8719 21.7188C10.2625 21.7188 9.65317 21.8406 9.0438 22.2062C9.65317 21.1094 9.65317 19.8906 9.16567 18.6719C9.0438 18.4281 8.92192 18.1844 8.92192 18.0625C8.5563 16.8438 7.5813 15.9906 6.36255 15.625C7.5813 15.2594 8.5563 14.4062 8.92192 13.1875C9.0438 12.9437 9.0438 12.7 9.16567 12.5781C9.65317 11.4812 9.65317 10.1406 9.0438 9.04375C9.5313 9.2875 10.1407 9.53125 10.8719 9.53125C11.3594 9.53125 11.9688 9.2875 12.4563 9.16562C12.7 9.04375 12.8219 8.92188 13.0657 8.92188C14.1625 8.55625 15.1375 7.58125 15.3813 6.48438C15.7469 7.58125 16.6 8.55625 17.6969 9.04375C17.9407 9.16562 18.0625 9.16563 18.3063 9.2875C18.9157 9.40938 19.525 9.53125 20.1344 9.53125C20.7438 9.53125 21.3532 9.40937 21.9626 9.04375C21.3532 10.1406 21.3532 11.3594 21.8407 12.5781C21.9626 12.8219 21.9625 13.0656 22.0844 13.1875C22.5719 14.4062 23.425 15.2594 24.6438 15.625C23.425 15.9906 22.45 16.8438 22.0844 18.0625C21.9625 18.3062 21.9626 18.55 21.8407 18.6719C21.3532 19.7688 21.3532 21.1094 21.9626 22.2062C21.3532 21.8406 20.7438 21.7188 20.1344 21.7188C19.525 21.7188 19.0375 21.8406 18.4282 22.0844C18.1844 22.2062 18.0625 22.2063 17.8188 22.3281C16.7219 22.6938 15.7469 23.6688 15.5032 24.7656Z" fill="#E08812"/>
<path d="M16.1125 30.1281H14.7719C13.5531 30.1281 12.4563 29.1531 12.2125 27.9344L11.8469 25.8625C11.4812 25.6187 11.1156 25.4969 10.75 25.375L9.04375 26.5938C7.94688 27.325 6.48438 27.2031 5.63125 26.35L4.77812 25.375C3.925 24.5219 3.80313 23.0594 4.53438 22.0844L5.75313 20.3781L5.3875 19.2812L3.19375 18.9156C1.975 18.6719 1 17.575 1 16.3563V14.8937C1 13.675 1.975 12.5781 3.19375 12.3344L5.26562 11.9688C5.50938 11.6031 5.63125 11.2375 5.75313 10.8719L4.53438 9.04375C3.80313 7.94688 3.925 6.60625 4.77812 5.75313L5.75313 4.77812C6.60625 3.925 8.06875 3.80313 9.16562 4.53438L10.8719 5.75313L11.9688 5.3875L12.3344 3.19375C12.5781 1.975 13.675 1 14.8937 1H16.2344C17.4531 1 18.55 1.975 18.7938 3.19375L19.1594 5.26562L19.2812 5.3875C19.6469 5.50938 19.8906 5.63125 20.2563 5.75313L22.0844 4.53438C23.0594 3.80313 24.6438 3.925 25.4969 4.77812L26.4719 5.75313C27.325 6.60625 27.4469 8.06875 26.7156 9.04375L25.4969 10.75L25.8625 11.8469L28.0563 12.2125C29.275 12.4563 30.25 13.5531 30.25 14.7719V16.2344C30.25 17.575 29.275 18.55 28.0563 18.7938L25.9844 19.1594C25.7406 19.525 25.6187 19.8906 25.4969 20.2563L26.7156 22.0844C27.4469 23.0594 27.325 24.5219 26.4719 25.375L25.4969 26.35C24.6438 27.2031 23.0594 27.325 22.0844 26.5938L20.3781 25.375L19.2812 25.7406L18.9156 27.9344C18.55 29.275 17.4531 30.1281 16.1125 30.1281ZM10.8719 22.9375C11.2375 22.9375 11.6031 23.0594 11.9688 23.1813L12.7 23.5469C13.5531 23.9125 14.1625 24.6438 14.4062 25.6188L14.7719 27.6906L16.2344 27.8125C16.2344 27.8125 16.3563 27.8125 16.3563 27.6906L16.7219 25.6188C16.8438 24.6438 17.4531 23.9125 18.4281 23.5469C18.6719 23.425 18.9156 23.3031 19.1594 23.3031C20.0125 22.8156 21.1094 22.9375 21.8406 23.5469L23.5469 24.7656H23.6688L24.6437 23.7906V23.6688L23.425 21.9625C22.8156 21.2313 22.8156 20.2563 23.1813 19.2812L23.5469 18.55C23.9125 17.6969 24.6438 16.9656 25.6188 16.8438L27.5687 16.4781L27.6906 16.3563V14.8937L27.5687 14.7719L25.2531 14.4062C24.2781 14.2844 23.5469 13.675 23.1813 12.7C23.1813 12.4563 23.0594 12.2125 22.9375 11.9688C22.5719 11.1156 22.5719 10.0188 23.1813 9.2875L24.4 7.58125V7.45938L23.425 6.48438H23.3031L21.5969 7.70312C20.8656 8.3125 19.7687 8.3125 18.9156 7.94687L18.1844 7.58125C17.3313 7.21563 16.7219 6.48438 16.4781 5.50938L16.1125 3.4375H14.7719C14.7719 3.4375 14.65 3.4375 14.65 3.55937L14.2844 5.63125C14.1625 6.60625 13.5531 7.3375 12.5781 7.70312C12.4563 7.825 12.2125 7.825 11.9688 7.94687C11.1156 8.43437 10.0188 8.3125 9.2875 7.70312L7.58125 6.48438H7.45938L6.48438 7.45938V7.58125L7.70312 9.2875C8.3125 10.1406 8.43437 11.1156 7.94687 11.9688C7.825 12.2125 7.70312 12.4563 7.70312 12.7C7.3375 13.5531 6.60625 14.2844 5.63125 14.4062L3.55937 14.7719L3.4375 14.8937V16.3563L3.55937 16.4781L5.63125 16.8438C6.60625 16.9656 7.3375 17.575 7.70312 18.55L8.06875 19.2812C8.43438 20.1344 8.43437 21.2313 7.825 21.9625L6.60625 23.6688L8.3125 25.6188L7.58125 24.6437L9.2875 23.425C9.775 23.0594 10.2625 22.9375 10.8719 22.9375Z" fill="#474747"/>
<path d="M15.5031 20.6219C18.2628 20.6219 20.5 18.3847 20.5 15.625C20.5 12.8654 18.2628 10.6282 15.5031 10.6282C12.7434 10.6282 10.5062 12.8654 10.5062 15.625C10.5062 18.3847 12.7434 20.6219 15.5031 20.6219Z" fill="#F4F4F4"/>
<path d="M15.5031 21.7188C11.9687 21.7188 9.28748 19.0375 9.28748 15.625C9.28748 12.2125 11.9687 9.40942 15.5031 9.40942C19.0375 9.40942 21.7187 12.0907 21.7187 15.625C21.7187 19.1594 18.9156 21.7188 15.5031 21.7188ZM15.5031 11.8469C13.4312 11.8469 11.725 13.5532 11.725 15.625C11.725 17.6969 13.4312 19.4032 15.5031 19.4032C17.575 19.4032 19.2812 17.6969 19.2812 15.625C19.1594 13.5532 17.4531 11.8469 15.5031 11.8469Z" fill="#474747"/>
</svg>
