<svg width="297" height="782" viewBox="0 0 297 782" fill="none" xmlns="http://www.w3.org/2000/svg">
<g clip-path="url(#clip0_804_5055)">
<path opacity="0.1" d="M-163.945 -36.9998C-132.543 -37.0378 -102.113 -26.1296 -77.8987 -6.1558L210.721 231.426L216.366 236.085C241.578 256.785 261.885 282.809 275.827 312.286C289.769 341.762 297 373.959 297 406.561C297 439.162 289.769 471.359 275.827 500.835C261.885 530.312 241.578 556.336 216.366 577.036L210.672 581.646L-76.0335 817.021C-89.698 828.835 -105.592 837.797 -122.778 843.377C-139.964 848.957 -158.094 851.044 -176.1 849.513C-194.106 847.983 -211.623 842.866 -227.618 834.466C-243.614 826.065 -257.764 814.55 -269.234 800.599C-280.704 786.649 -289.262 770.546 -294.404 753.239C-299.546 735.932 -301.167 717.772 -299.173 699.829C-297.178 681.886 -291.608 664.524 -282.79 648.766C-273.972 633.008 -262.086 619.173 -247.831 608.076L-2.45502 406.389L-250.04 202.544C-265.47 189.861 -277.897 173.922 -286.429 155.871C-294.961 137.821 -299.386 118.107 -299.386 98.145C-299.386 78.1833 -294.961 58.4692 -286.429 40.4186C-277.897 22.3681 -265.47 6.42903 -250.04 -6.25387C-225.807 -26.1815 -195.381 -37.0531 -163.994 -36.9998" fill="#E3E3E3"/>
</g>
<defs>
<clipPath id="clip0_804_5055">
<rect width="297" height="887" fill="white"/>
</clipPath>
</defs>
</svg>
