<svg width="28" height="29" viewBox="0 0 28 29" fill="none" xmlns="http://www.w3.org/2000/svg">
<path d="M13.7927 5.96338C8.87418 5.96338 4.89429 9.96055 4.89429 14.9004C4.89429 19.8403 8.87418 23.8375 13.7927 23.8375C18.7113 23.8375 22.6912 19.8403 22.6912 14.9004C22.6912 9.99826 18.7113 5.96338 13.7927 5.96338Z" fill="white"/>
<path d="M13.8862 5.96338C8.91597 5.96338 4.89429 9.98506 4.89429 14.9552C4.89429 19.9254 8.91597 23.9471 13.8862 23.9471C18.8563 23.9471 22.878 19.9254 22.878 14.9552C22.878 10.023 18.8563 5.96338 13.8862 5.96338ZM13.5447 23.378C8.91597 23.378 5.15987 19.6219 5.15987 14.9932C5.15987 10.3645 8.91597 6.60836 13.5447 6.60836C18.1734 6.60836 21.9295 10.3645 21.9295 14.9932C21.9675 19.6219 18.2114 23.378 13.5447 23.378Z" fill="white"/>
<path d="M14.8727 3.00407C14.8727 3.49729 14.4933 3.91464 14.0381 3.91464C13.5828 3.91464 13.2034 3.49729 13.2034 3.00407V1.41057C13.2034 0.917345 13.5828 0.5 14.0381 0.5C14.4933 0.5 14.8727 0.917345 14.8727 1.41057V3.00407Z" fill="white"/>
<path d="M14.8727 27.5894C14.8727 28.0827 14.4933 28.5 14.0381 28.5C13.5828 28.5 13.2034 28.0827 13.2034 27.5894V25.996C13.2034 25.5027 13.5828 25.0854 14.0381 25.0854C14.4933 25.0854 14.8727 25.5027 14.8727 25.996V27.5894Z" fill="white"/>
<path d="M25.4958 15.3347C25.0026 15.3347 24.5852 14.9553 24.5852 14.5C24.5852 14.0447 25.0026 13.6653 25.4958 13.6653H27.0893C27.5825 13.6653 27.9998 14.0447 27.9998 14.5C27.9998 14.9553 27.5825 15.3347 27.0893 15.3347H25.4958Z" fill="white"/>
<path d="M0.910569 15.3347C0.417344 15.3347 0 14.9553 0 14.5C0 14.0447 0.417344 13.6653 0.910569 13.6653H2.50406C2.99729 13.6653 3.41463 14.0447 3.41463 14.5C3.41463 14.9553 2.99729 15.3347 2.50406 15.3347H0.910569Z" fill="white"/>
<path d="M22.7263 6.94988C22.3848 7.29134 21.8157 7.32928 21.4742 6.98782C21.1328 6.64635 21.1707 6.11519 21.5122 5.73579L22.6504 4.59757C22.9919 4.25611 23.561 4.21817 23.9024 4.55963C24.2439 4.90109 24.206 5.43226 23.8645 5.81167L22.7263 6.94988Z" fill="white"/>
<path d="M5.34957 24.3645C5.0081 24.706 4.439 24.7439 4.09754 24.4024C3.75607 24.061 3.79401 23.5298 4.13548 23.1504L5.27369 22.0122C5.61515 21.6707 6.18426 21.6328 6.52572 21.9742C6.86718 22.3157 6.82924 22.8469 6.48778 23.2263L5.34957 24.3645Z" fill="white"/>
<path d="M21.55 23.2263C21.2086 22.8848 21.1706 22.3157 21.5121 21.9742C21.8535 21.6328 22.3847 21.6707 22.7641 22.0122L23.9023 23.1504C24.2438 23.4919 24.2817 24.061 23.9403 24.4024C23.5988 24.7439 23.0676 24.706 22.6882 24.3645L21.55 23.2263Z" fill="white"/>
<path d="M4.17356 5.81167C3.8321 5.4702 3.79416 4.90109 4.13562 4.55963C4.47708 4.21817 5.00825 4.25611 5.38765 4.59757L6.52586 5.73579C6.86733 6.07725 6.90527 6.64635 6.5638 6.98782C6.22234 7.32928 5.69118 7.29134 5.31177 6.94988L4.17356 5.81167Z" fill="white"/>
</svg>
