<svg width="898" height="847" viewBox="0 0 898 847" fill="none" xmlns="http://www.w3.org/2000/svg">
<path opacity="0.4" fill-rule="evenodd" clip-rule="evenodd" d="M248.924 -112.435C221.837 -134.818 187.795 -147.042 152.667 -147H152.612C117.5 -147.059 83.4646 -134.876 56.3554 -112.545C39.0943 -98.3321 25.1924 -80.4702 15.6481 -60.2422C6.10374 -40.0142 1.15382 -17.922 1.15382 4.44772C1.15382 26.8175 6.10374 48.9097 15.6481 69.1377C25.1924 89.3657 39.0943 107.228 56.3554 121.44L333.32 349.876L58.8263 575.893C42.8802 588.328 29.5831 603.831 19.7191 621.49C9.85499 639.15 3.62358 658.606 1.39219 678.714C-0.839196 698.821 0.974668 719.172 6.72674 738.567C12.4788 757.961 22.0527 776.007 34.884 791.64C47.7153 807.273 63.5443 820.177 81.4377 829.592C99.3311 839.006 118.927 844.739 139.069 846.454C159.212 848.169 179.494 845.831 198.719 839.578C217.945 833.324 235.725 823.282 251.011 810.043L565.485 551.416L879.96 810.043C895.246 823.282 913.026 833.324 932.251 839.578C951.477 845.831 971.759 848.169 991.901 846.454C1012.04 844.739 1031.64 839.006 1049.53 829.592C1067.43 820.177 1083.26 807.273 1096.09 791.64C1108.92 776.007 1118.49 757.961 1124.24 738.567C1130 719.172 1131.81 698.821 1129.58 678.714C1127.35 658.606 1121.12 639.15 1111.25 621.49C1101.39 603.831 1088.09 588.328 1072.14 575.893L797.65 349.876L1074.62 121.44C1091.88 107.228 1105.78 89.3657 1115.32 69.1377C1124.87 48.9097 1129.82 26.8175 1129.82 4.44772C1129.82 -17.922 1124.87 -40.0142 1115.32 -60.2422C1105.78 -80.4702 1091.88 -98.3321 1074.62 -112.545C1047.51 -134.876 1013.47 -147.059 978.359 -147H978.304C943.176 -147.042 909.134 -134.818 882.047 -112.435L565.485 148.605L248.924 -112.435Z" fill="#2D2929"/>
</svg>
