<svg width="57" height="57" viewBox="0 0 57 57" fill="none" xmlns="http://www.w3.org/2000/svg">
<path opacity="0.7" d="M5.76904 8.15991H52.1042V29.9315C52.1042 31.0363 51.8205 31.3168 50.713 31.3168H7.16826C6.05115 31.3168 5.76904 31.0394 5.76904 29.9396V8.16794V8.15991ZM36.7096 23.9338C36.9111 24.1806 37.032 24.3661 37.1932 24.5225C38.1975 25.5353 39.1953 26.5577 40.2222 27.5463C41.091 28.3833 42.1388 28.6397 43.2849 28.2527C44.4021 27.8769 45.0856 27.0673 45.2951 25.9029C45.4869 24.8305 45.1162 23.9241 44.3602 23.1613C43.2318 22.0324 42.0889 20.9035 40.9314 19.7472C41.1136 19.5521 41.2442 19.4037 41.3828 19.2634C42.4177 18.2232 43.4784 17.2056 44.4859 16.1428C44.7628 15.8632 44.9816 15.5315 45.1298 15.1669C45.2781 14.8023 45.3528 14.4119 45.3496 14.0183C45.3465 13.6247 45.2656 13.2356 45.1115 12.8734C44.9575 12.5112 44.7333 12.1831 44.452 11.9079C43.8998 11.3498 43.1496 11.0324 42.3647 11.0249C41.5798 11.0173 40.8237 11.3202 40.2608 11.8675C39.421 12.6465 38.6295 13.4803 37.8235 14.2866C37.4463 14.6688 37.0836 15.0639 36.7548 15.4155C36.6953 15.4009 36.6371 15.3814 36.5807 15.3574C35.4523 14.2398 34.3336 13.1141 33.1955 12.003C31.9172 10.7483 30.0908 10.7128 28.8737 11.8917C27.6567 13.0706 27.6583 14.9559 28.9318 16.259C29.928 17.2798 30.9484 18.2797 31.9543 19.2908C32.0913 19.4279 32.217 19.5763 32.4379 19.8166C32.241 19.9476 32.0525 20.0909 31.8737 20.2456C30.8581 21.2503 29.8329 22.2437 28.8479 23.2759C27.2892 24.9128 27.9001 27.5318 29.9989 28.2398C31.2256 28.6527 32.296 28.3317 33.2019 27.4335C34.3448 26.3126 35.4732 25.1708 36.7096 23.9338ZM25.9351 17.5088H26.0399C26.0399 16.3799 26.0399 15.251 26.0399 14.1301C26.0399 12.3352 24.7986 11.0289 23.127 11.037C21.4554 11.045 20.2544 12.3465 20.2496 14.1011C20.2496 16.2331 20.2496 18.3652 20.2496 20.4972C20.2496 21.7341 19.4597 22.605 18.3458 22.6195C17.2061 22.634 16.3921 21.7535 16.3905 20.4875C16.3905 18.3361 16.3905 16.1832 16.3905 14.0366C16.3905 12.332 15.1299 11.0418 13.5034 11.0386C11.8769 11.0354 10.6147 12.3288 10.6018 14.0205C10.5905 15.4719 10.5857 16.9234 10.6018 18.3635C10.6163 19.5489 10.5631 20.7471 10.7211 21.9115C11.2224 25.6207 14.5399 28.4188 18.3232 28.4172C22.1066 28.4156 25.4466 25.6159 25.9077 21.9002C26.085 20.4585 25.9351 18.9748 25.9351 17.5088Z" fill="#E1890F"/>
<path d="M3.83805 10.0886V10.8401C3.83805 17.2168 3.83805 23.5935 3.83805 29.9702C3.83805 32.1038 4.97933 33.2472 7.11361 33.2472H50.7873C52.8829 33.2472 54.0339 32.0941 54.0339 30.0008C54.0339 23.6048 54.0339 17.2077 54.0339 10.8095V10.0967C54.7629 10.0891 55.4673 10.36 56.0035 10.8542C56.5397 11.3483 56.8673 12.0286 56.9194 12.7561C56.9387 13.0367 56.929 13.3205 56.929 13.6011V37.0613H0.992894C0.969462 36.9372 0.954378 36.8116 0.947754 36.6855C0.947754 28.7993 0.947754 20.9137 0.947754 13.0286C0.947754 11.3707 2.12933 10.1531 3.83805 10.0886Z" fill="#E1890F"/>
<path opacity="0.5" d="M0.942871 39.0708H56.9129C56.9129 40.1787 56.9919 41.2657 56.8935 42.3365C56.7613 43.759 55.5282 44.7911 54.0886 44.8346C53.9275 44.8346 53.7663 44.8346 53.6051 44.8346H4.27807C2.06642 44.8346 0.949325 43.7057 0.949325 41.4915L0.942871 39.0708ZM30.8453 41.0222H27.0394V42.8671H30.8453V41.0222Z" fill="#E1890F"/>
<path d="M5.77248 6.1682C5.77248 4.53613 5.75959 2.94276 5.78054 1.36392C5.78054 0.794631 6.17065 0.45598 6.74774 0.415662C6.90894 0.404373 7.07014 0.415662 7.23134 0.415662H50.6504C51.8448 0.415662 52.1012 0.672075 52.1012 1.85903V6.17143L5.77248 6.1682ZM42.4292 2.39124H40.5528V4.23778H42.4292V2.39124ZM44.4103 4.24101H46.2738V2.38801H44.4103V4.24101ZM48.2791 4.24101H50.1345V2.37671H48.2791V4.24101Z" fill="#E1890F"/>
<path d="M42.3084 56.4106H15.5283C15.5912 56.1591 15.6283 55.9268 15.7024 55.722C16.0236 54.8143 16.6142 54.0263 17.3952 53.4635C18.1761 52.9007 19.1102 52.5897 20.0725 52.5724C25.9832 52.553 31.8938 52.553 37.8044 52.5724C40.029 52.5821 42.044 54.3206 42.3084 56.4106Z" fill="#E1890F"/>
<path d="M32.7718 46.8102V50.5969H25.1245V46.8086L32.7718 46.8102Z" fill="#E1890F"/>
<path d="M30.9019 12.7949C31.3145 13.061 31.6482 13.2078 31.8916 13.44C33.1812 14.7044 34.4579 15.9913 35.7378 17.2702C36.4455 17.975 36.8662 17.9782 37.5723 17.2702C38.8619 15.98 40.1515 14.6802 41.4556 13.3997C41.9891 12.8691 42.584 12.8239 43.0579 13.2497C43.5318 13.6754 43.5415 14.356 43.0095 14.8963C41.7377 16.1864 40.4529 17.4573 39.1746 18.7377C38.3815 19.5312 38.3799 19.9118 39.1746 20.6988C40.4384 21.9653 41.7033 23.2308 42.9692 24.4951C43.319 24.8435 43.5334 25.2322 43.3626 25.7369C43.0917 26.5433 42.1665 26.732 41.5152 26.0934C40.253 24.8532 39.0102 23.5936 37.7593 22.3422C36.8227 21.4068 36.5148 21.4052 35.5831 22.3422C34.3467 23.5791 33.1135 24.8193 31.8755 26.0514C31.3403 26.5804 30.7471 26.6255 30.2732 26.1998C29.7896 25.7514 29.7896 25.0918 30.3232 24.5548C31.5966 23.2646 32.8798 21.9938 34.1581 20.7133C34.948 19.9231 34.9496 19.5328 34.1581 18.7474C32.8685 17.4573 31.5757 16.1628 30.2796 14.864C29.9427 14.5237 29.7493 14.0931 30.0088 13.6674C30.2006 13.3432 30.5601 13.1159 30.9019 12.7949Z" fill="#E1890F"/>
<path d="M12.5265 17.5635C12.5265 16.4346 12.5265 15.3057 12.5265 14.1768C12.5265 13.4108 12.8779 12.9705 13.4776 12.964C14.0772 12.9576 14.4447 13.3995 14.4544 14.1542C14.4544 16.2669 14.4544 18.3779 14.4544 20.4906C14.4544 22.8194 16.1196 24.5514 18.3232 24.5466C20.5268 24.5417 22.1662 22.808 22.171 20.4664C22.171 18.3699 22.171 16.2814 22.171 14.1897C22.171 13.4172 22.5128 12.9802 23.1092 12.964C23.7056 12.9479 24.099 13.4027 24.099 14.201C24.099 16.333 24.1119 18.465 24.099 20.597C24.0764 23.916 21.5069 26.4963 18.2684 26.477C15.0621 26.4576 12.5426 23.8708 12.52 20.5728C12.52 19.5762 12.5265 18.5698 12.5265 17.5635Z" fill="#E1890F"/>
</svg>
