<svg width="459" height="457" viewBox="0 0 459 457" fill="none" xmlns="http://www.w3.org/2000/svg">
<g opacity="0.05">
<path d="M161.7 138.712L43.1486 236.194L-82.4585 133.311C-97.911 120.652 -107.688 102.389 -109.64 82.5394C-111.591 62.6901 -105.557 42.8807 -92.8642 27.4689C-80.1714 12.0571 -61.86 2.30546 -41.9583 0.359157C-22.0565 -1.58715 -2.19473 4.43134 13.2578 17.0906L161.7 138.712Z" fill="#5C5C5C"/>
<path d="M382.459 0.000108556C365.001 -0.0210513 348.083 6.05409 334.621 17.1782L174.161 149.496L171.023 152.09C157.006 163.619 145.717 178.112 137.965 194.529C130.214 210.945 126.194 228.877 126.194 247.034C126.194 265.191 130.214 283.122 137.965 299.538C145.717 315.955 157.006 330.449 171.023 341.977L174.188 344.544L333.584 475.633C341.181 482.213 350.017 487.203 359.572 490.311C369.127 493.419 379.207 494.581 389.217 493.729C399.228 492.876 408.966 490.027 417.859 485.348C426.752 480.67 434.618 474.257 440.995 466.487C447.372 458.718 452.13 449.749 454.989 440.111C457.848 430.472 458.749 420.358 457.64 410.365C456.531 400.372 453.434 390.702 448.532 381.926C443.63 373.15 437.021 365.444 429.096 359.265L292.678 246.938L430.324 133.41C438.903 126.346 445.812 117.469 450.555 107.417C455.299 97.3636 457.759 86.3841 457.759 75.2668C457.759 64.1494 455.299 53.17 450.555 43.117C445.812 33.0641 438.903 24.1871 430.324 17.1235C416.852 6.02518 399.936 -0.0295655 382.487 0.000108556" fill="#5C5C5C"/>
<path d="M160.156 356.92L17.2011 475.329C3.77911 486.403 -13.0489 492.456 -30.4144 492.456C-47.7799 492.456 -64.608 486.403 -78.0299 475.329C-86.5793 468.25 -93.4642 459.358 -98.1908 449.29C-102.917 439.222 -105.369 428.228 -105.369 417.095C-105.369 405.963 -102.917 394.968 -98.1908 384.9C-93.4642 374.832 -86.5793 365.94 -78.0299 358.862L41.9883 259.35L160.156 356.92Z" fill="#5C5C5C"/>
</g>
</svg>
