<svg width="1351" height="1174" viewBox="0 0 1351 1174" fill="none" xmlns="http://www.w3.org/2000/svg">
<g opacity="0.15">
<path d="M645.993 329.651L364.334 561.319L65.9121 316.816C29.1994 286.731 5.96976 243.328 1.33343 196.156C-3.3029 148.984 11.0339 101.907 41.1898 65.2804C71.3458 28.654 114.851 5.47897 162.134 0.853543C209.417 -3.77189 256.606 10.5312 293.318 40.6162L645.993 329.651Z" fill="#E08812"/>
<path d="M1170.48 0.000257986C1129 -0.0500287 1088.81 14.3877 1056.83 40.8242L675.598 355.279L668.142 361.445C634.841 388.843 608.018 423.288 589.603 462.302C571.187 501.316 561.636 543.93 561.636 587.08C561.636 630.231 571.187 672.845 589.603 711.859C608.018 750.873 634.841 785.317 668.142 812.715L675.663 818.816L1054.36 1130.35C1072.41 1145.99 1093.4 1157.85 1116.1 1165.23C1138.8 1172.62 1162.75 1175.38 1186.54 1173.36C1210.32 1171.33 1233.46 1164.56 1254.58 1153.44C1275.71 1142.32 1294.4 1127.08 1309.55 1108.62C1324.7 1090.15 1336.01 1068.84 1342.8 1045.93C1349.59 1023.02 1351.73 998.988 1349.1 975.239C1346.46 951.491 1339.11 928.511 1327.46 907.654C1315.81 886.797 1300.11 868.485 1281.28 853.799L957.175 586.853L1284.2 317.051C1304.58 300.265 1321 279.168 1332.27 255.277C1343.54 231.386 1349.38 205.294 1349.38 178.873C1349.38 152.452 1343.54 126.359 1332.27 102.468C1321 78.5774 1304.58 57.481 1284.2 40.6944C1252.19 14.319 1212 -0.0702629 1170.55 0.000257986" fill="#E08812"/>
<path d="M642.325 848.229L302.687 1129.63C270.798 1155.95 230.818 1170.33 189.56 1170.33C148.302 1170.33 108.322 1155.95 76.4333 1129.63C56.1214 1112.81 39.764 1091.67 28.5343 1067.75C17.3046 1043.82 11.4809 1017.69 11.4809 991.235C11.4809 964.779 17.3046 938.65 28.5343 914.723C39.764 890.796 56.1214 869.664 76.4333 852.843L361.577 616.35L642.325 848.229Z" fill="#E08812"/>
</g>
</svg>
