<svg width="1188" height="1175" viewBox="0 0 1188 1175" fill="none" xmlns="http://www.w3.org/2000/svg">
<g opacity="0.1">
<path d="M645.993 329.923L364.334 561.592L65.912 317.089C29.1993 287.004 5.96967 243.601 1.33334 196.429C-3.30299 149.257 11.0338 102.18 41.1897 65.5532C71.3457 28.9268 114.851 5.7518 162.134 1.12637C209.417 -3.49906 256.606 10.804 293.318 40.889L645.993 329.923Z" fill="#5C5C5C"/>
<path d="M1170.48 0.273085C1129 0.222798 1088.81 14.6605 1056.83 41.0971L675.598 355.552L668.142 361.718C634.841 389.116 608.018 423.56 589.603 462.574C571.187 501.588 561.635 544.203 561.635 587.353C561.635 630.503 571.187 673.118 589.603 712.132C608.018 751.146 634.841 785.59 668.142 812.988L675.663 819.089L1054.36 1130.62C1072.41 1146.26 1093.4 1158.12 1116.1 1165.51C1138.8 1172.89 1162.75 1175.65 1186.54 1173.63C1210.32 1171.6 1233.46 1164.83 1254.58 1153.71C1275.71 1142.59 1294.4 1127.35 1309.55 1108.89C1324.7 1090.42 1336.01 1069.11 1342.8 1046.2C1349.59 1023.3 1351.73 999.26 1349.1 975.512C1346.46 951.764 1339.11 928.784 1327.46 907.927C1315.81 887.07 1300.11 868.758 1281.28 854.072L957.175 587.126L1284.2 317.324C1304.58 300.538 1321 279.441 1332.27 255.55C1343.54 231.659 1349.38 205.566 1349.38 179.146C1349.38 152.725 1343.54 126.632 1332.27 102.741C1321 78.8502 1304.58 57.7539 1284.2 40.9673C1252.19 14.5918 1212 0.202564 1170.55 0.273085" fill="#5C5C5C"/>
<path d="M642.325 848.501L302.686 1129.9C270.798 1156.22 230.817 1170.6 189.56 1170.6C148.302 1170.6 108.321 1156.22 76.4331 1129.9C56.1212 1113.08 39.7638 1091.95 28.5341 1068.02C17.3044 1044.09 11.4807 1017.96 11.4807 991.508C11.4807 965.052 17.3044 938.923 28.5341 914.996C39.7638 891.069 56.1212 869.937 76.4331 853.115L361.577 616.623L642.325 848.501Z" fill="#5C5C5C"/>
</g>
</svg>
